<?xml version="1.0" encoding="utf-8"?>
<!-- Generator: Adobe Illustrator 19.0.0, SVG Export Plug-In . SVG Version: 6.00 Build 0)  -->
<svg version="1.1" id="Layer_1" xmlns="http://www.w3.org/2000/svg" xmlns:xlink="http://www.w3.org/1999/xlink" x="0px" y="0px"
	 viewBox="0 0 609 144" style="enable-background:new 0 0 609 144;" xml:space="preserve">
<style type="text/css">
	.st0{fill:#FFFFFF;}
	.st1{opacity:0.2;fill:#5B3860;}
	.st2{fill:#F6F7F7;}
</style>
<path id="XMLID_492_" d="M204.7,88.6c0,22.3-16,40.8-37.2,44.7c-1.3,0.2-2.7,0.4-4,0.6v0.2H45.6c-3.8,0-7.6-0.6-11-1.6
	c-15-4.5-26.1-18.1-27-34.4c0-0.7-0.1-1.4-0.1-2.1c0-6.2,1.5-12,4.1-17.1c3.3-6.5,8.4-12,14.7-15.7c4.4-2.6,9.4-4.3,14.7-5
	c6.3-27.6,31-48.2,60.5-48.2c23.9,0,44.6,13.5,55,33.3c0.9-0.1,1.9-0.1,2.9-0.1c4.5,0,8.8,0.6,12.9,1.9c6.7,2,12.8,5.5,17.8,10.1
	C199,63.4,204.7,75.3,204.7,88.6z"/>
<circle id="XMLID_482_" class="st0" cx="170" cy="65.1" r="6.8"/>
<circle id="XMLID_479_" class="st1" cx="100.2" cy="72.9" r="48.1"/>
<path class="st2" d="M158.3,97.5L145.1,92c2.8-6.1,4.4-12.9,4.4-20c0-26.6-21.5-48.1-48.1-48.1c-26.6,0-48.1,21.5-48.1,48.1
	c0,26.6,21.5,48.1,48.1,48.1c18,0,33.7-9.9,41.9-24.6L158.3,97.5z"/>
<circle id="XMLID_161_" cx="101.4" cy="72" r="8.4"/>
<circle id="XMLID_119_" class="st0" cx="161" cy="106.4" r="2.7"/>
<g id="XMLID_80_">
	<path id="XMLID_79_" d="M242.4,102.4c2.7,1,5.1,1.8,7.2,2.2c2.1,0.4,4,0.6,5.9,0.6c2.1,0,3.7-0.4,4.7-1.3c1-0.9,1.5-1.9,1.5-3
		c0-1.3-0.5-2.3-1.6-3.2c-1-0.9-2.3-1.7-3.9-2.4c-1.6-0.7-3.2-1.5-5-2.2c-1.8-0.7-3.5-1.7-5-2.7c-1.6-1.1-2.9-2.4-3.9-3.9
		c-1-1.5-1.6-3.4-1.6-5.7c0-1.4,0.3-2.8,0.8-4.4c0.5-1.5,1.5-2.9,2.7-4.1c1.3-1.2,2.9-2.3,5-3.1c2-0.8,4.5-1.3,7.5-1.3
		c2,0,4,0.1,6,0.4c2,0.3,4.5,0.9,7.2,1.8l-2.8,7.8c-2.2-0.6-4.1-1-5.4-1.2c-1.4-0.2-2.8-0.3-4.2-0.3c-1.7,0-3,0.3-3.9,1
		c-1,0.7-1.4,1.6-1.4,2.8c0,1.2,0.5,2.2,1.6,3.1c1,0.9,2.3,1.7,3.9,2.4c1.6,0.7,3.2,1.5,5,2.3c1.8,0.8,3.5,1.8,5,2.9
		c1.6,1.1,2.9,2.4,3.9,3.9c1,1.5,1.6,3.4,1.6,5.7c0,2.1-0.4,4-1.3,5.7c-0.9,1.7-2,3.1-3.5,4.3c-1.4,1.2-3.1,2.1-5,2.7
		c-1.9,0.6-3.8,1-5.8,1c-2.2,0-4.8-0.2-7.7-0.6c-2.9-0.4-6.3-1.4-10.1-3L242.4,102.4z"/>
	<path id="XMLID_162_" d="M283.7,77.1h-7.2v-6.8l7.2-1.7V57.9l11.4-3.7v41.9c0,2.9,0.6,5.2,1.9,6.9c1.2,1.6,2.9,2.5,4.9,2.5
		c0.8,0,1.7-0.1,2.8-0.3c1.1-0.2,2.3-0.5,3.8-1l2.5,7.9c-2.2,0.7-4.1,1.3-5.7,1.7c-1.6,0.4-3.2,0.6-4.6,0.6c-5.5,0-9.7-1.6-12.6-4.7
		c-2.9-3.1-4.3-7.6-4.3-13.6V77.1z M306.7,77.1c-1.3,0-2.4-0.3-3.3-0.8c-0.9-0.5-1.8-1.2-2.5-2c-0.7-0.8-1.3-1.7-1.7-2.7
		c-0.5-1-0.8-2-1.1-3h12.5v8.6H306.7z"/>
	<path id="XMLID_498_" d="M363.3,90.8c0,3.7-0.7,7-2,9.9c-1.4,2.9-3.1,5.4-5.3,7.4c-2.2,2-4.6,3.6-7.4,4.6c-2.8,1.1-5.6,1.6-8.4,1.6
		c-3.1,0-6-0.5-8.8-1.6c-2.8-1-5.3-2.6-7.4-4.5c-2.1-2-3.8-4.5-5.1-7.4c-1.3-2.9-1.9-6.3-1.9-10c0-4,0.7-7.5,2.2-10.5
		c1.5-3,3.3-5.4,5.6-7.3c2.3-1.9,4.8-3.3,7.5-4.2c2.7-0.9,5.3-1.4,7.8-1.4c3.5,0,6.6,0.6,9.4,1.7c2.8,1.2,5.3,2.8,7.3,4.8
		c2,2.1,3.6,4.5,4.8,7.4C362.7,84.2,363.3,87.4,363.3,90.8z M340.1,105.5c1.7,0,3.2-0.4,4.5-1.2c1.3-0.8,2.4-1.8,3.2-3.1
		c0.9-1.3,1.5-2.9,1.9-4.6c0.4-1.8,0.6-3.7,0.6-5.7c0-2-0.2-3.9-0.6-5.6c-0.4-1.7-1.1-3.3-1.9-4.6c-0.9-1.3-1.9-2.4-3.2-3.1
		c-1.3-0.8-2.8-1.2-4.5-1.2c-1.7,0-3.2,0.4-4.5,1.2c-1.3,0.8-2.4,1.8-3.2,3.1c-0.9,1.3-1.5,2.8-2,4.6c-0.5,1.7-0.7,3.6-0.7,5.6
		c0,2.2,0.2,4.2,0.7,5.9c0.5,1.8,1.2,3.3,2.1,4.6c0.9,1.3,2,2.3,3.3,3C337.2,105.1,338.6,105.5,340.1,105.5z"/>
	<path id="XMLID_543_" d="M380.2,68.5c0.5,0.4,1,1.2,1.5,2.4c0.5,1.2,0.9,2.5,1.2,4l0.2,2.1l0.9-2.1c1.2-2.3,2.7-4.1,4.5-5.4
		c1.9-1.3,3.7-1.9,5.6-1.9c1.7,0,3.5,0.3,5.6,1l-1.4,9.8c-1.2-0.3-2.1-0.6-2.9-0.7c-0.8-0.1-1.5-0.2-2.2-0.2c-1.5,0-2.8,0.4-4,1.1
		c-1.2,0.8-2.1,1.8-2.9,3.1c-0.8,1.3-1.4,2.9-1.9,4.7c-0.4,1.8-0.6,3.8-0.6,5.9v20.8h-11.3V79.4c0-1.6-0.1-3.3-0.3-5.1
		c-0.2-1.8-0.6-3.7-1.1-5.7H380.2z"/>
	<path id="XMLID_586_" d="M434.1,85.8c0.2-1.3,0.1-2.6-0.2-3.8c-0.3-1.2-0.8-2.3-1.4-3.2c-0.7-0.9-1.5-1.7-2.5-2.2
		c-1-0.5-2.2-0.8-3.5-0.8c-1.2,0-2.4,0.3-3.6,0.8c-1.2,0.5-2.3,1.3-3.2,2.5c-1,1.1-1.8,2.6-2.4,4.3c-0.6,1.8-0.9,3.9-0.9,6.4
		c0,5,1.1,8.9,3.4,11.6c2.2,2.7,5.2,4.1,8.8,4.1c2,0,4-0.2,5.9-0.7c1.9-0.5,4.2-1.3,6.7-2.5l3,8c-3.1,1.5-6,2.5-8.8,3.2
		c-2.7,0.6-5.5,0.9-8.2,0.9c-4,0-7.4-0.7-10.2-2.2c-2.9-1.4-5.2-3.3-7.1-5.6c-1.9-2.3-3.3-4.9-4.1-7.7c-0.9-2.9-1.3-5.8-1.3-8.7
		c0-3.6,0.6-6.8,1.8-9.6c1.2-2.8,2.8-5.2,4.8-7.1c2-1.9,4.5-3.4,7.2-4.5c2.8-1,5.7-1.6,8.8-1.6c3.2,0,6.1,0.6,8.7,1.9
		c2.6,1.3,4.8,3,6.4,5.3c1.6,2.2,2.6,4.9,3,8.1c0.4,3.1-0.1,6.6-1.3,10.2h-24.2c0.6-2,1.5-3.7,2.7-5.1c1.2-1.4,2.5-2,4-2H434.1z"/>
	<path id="XMLID_588_" d="M477.8,76.5c-1,0.1-1.8-0.1-2.5-0.5c-0.7-0.4-1.3-0.9-1.8-1.5c-0.5-0.6-1-1.3-1.5-2.2
		c-0.5-0.8-0.9-1.7-1.3-2.6c1.7-0.7,3.4-1.2,5.1-1.6c1.7-0.3,3.3-0.5,4.8-0.5c2.8,0,5.2,0.6,7.4,1.9c2.2,1.3,4,2.9,5.6,5
		c1.5,2,2.7,4.4,3.5,6.9c0.8,2.6,1.3,5.1,1.3,7.7c0,3.5-0.5,6.8-1.6,9.9c-1.1,3.1-2.7,5.8-4.8,8c-2.1,2.3-4.6,4.1-7.5,5.4
		c-2.9,1.3-6.2,1.9-9.9,1.9c-3.2,0-6.3-0.4-9.2-1.1c-3-0.7-6.3-2-9.8-3.8V47.7h12.1v57c1.3,0.3,2.5,0.6,3.6,0.7
		c1.1,0.1,2.2,0.2,3.4,0.2c1.7,0,3.2-0.4,4.5-1.2c1.3-0.8,2.5-1.9,3.4-3.4c0.9-1.4,1.7-3.2,2.2-5.2c0.5-2,0.7-4.2,0.7-6.6
		c0-1.4-0.1-2.8-0.4-4.4c-0.3-1.5-0.7-2.9-1.3-4.2c-0.6-1.3-1.4-2.3-2.4-3.1C480.5,76.8,479.3,76.4,477.8,76.5z"/>
	<path id="XMLID_590_" d="M507,55.6c0-2,0.7-3.7,2-5.1c1.4-1.4,3-2.1,5.1-2.1c2,0,3.7,0.7,5.1,2.1c1.4,1.4,2,3.1,2,5.1
		c0,2-0.7,3.7-2,5.1c-1.4,1.4-3,2-5.1,2c-2,0-3.7-0.7-5.1-2C507.7,59.3,507,57.6,507,55.6z M508.1,113.2V68.5h12.1v44.7H508.1z"/>
	<path id="XMLID_597_" d="M535.2,77.1H528v-6.8l7.2-1.7V57.9l11.4-3.7v41.9c0,2.9,0.6,5.2,1.9,6.9c1.2,1.6,2.9,2.5,4.9,2.5
		c0.8,0,1.7-0.1,2.8-0.3c1.1-0.2,2.3-0.5,3.8-1l2.5,7.9c-2.2,0.7-4.1,1.3-5.7,1.7c-1.6,0.4-3.2,0.6-4.6,0.6c-5.5,0-9.7-1.6-12.6-4.7
		c-2.9-3.1-4.3-7.6-4.3-13.6V77.1z M558.2,77.1c-1.3,0-2.4-0.3-3.3-0.8c-1-0.5-1.8-1.2-2.5-2c-0.7-0.8-1.3-1.7-1.7-2.7
		c-0.5-1-0.8-2-1.1-3h12.5v8.6H558.2z"/>
	<path id="XMLID_600_" d="M570.9,102.4c2.7,1,5.1,1.8,7.2,2.2c2.1,0.4,4,0.6,5.9,0.6c2.1,0,3.7-0.4,4.7-1.3c1-0.9,1.5-1.9,1.5-3
		c0-1.3-0.5-2.3-1.6-3.2c-1-0.9-2.3-1.7-3.9-2.4c-1.6-0.7-3.2-1.5-5-2.2c-1.8-0.7-3.5-1.7-5-2.7c-1.6-1.1-2.9-2.4-3.9-3.9
		c-1-1.5-1.6-3.4-1.6-5.7c0-1.4,0.3-2.8,0.8-4.4c0.5-1.5,1.5-2.9,2.7-4.1s2.9-2.3,5-3.1c2-0.8,4.5-1.3,7.5-1.3c2,0,4,0.1,6,0.4
		c2,0.3,4.4,0.9,7.2,1.8l-2.8,7.8c-2.2-0.6-4.1-1-5.4-1.2c-1.4-0.2-2.8-0.3-4.2-0.3c-1.7,0-3,0.3-3.9,1c-1,0.7-1.4,1.6-1.4,2.8
		c0,1.2,0.5,2.2,1.6,3.1c1,0.9,2.3,1.7,3.9,2.4c1.6,0.7,3.2,1.5,5,2.3c1.8,0.8,3.5,1.8,5,2.9c1.6,1.1,2.9,2.4,3.9,3.9
		c1,1.5,1.6,3.4,1.6,5.7c0,2.1-0.4,4-1.3,5.7c-0.9,1.7-2,3.1-3.5,4.3c-1.4,1.2-3.1,2.1-5,2.7c-1.9,0.6-3.8,1-5.8,1
		c-2.2,0-4.8-0.2-7.7-0.6c-2.9-0.4-6.3-1.4-10.1-3L570.9,102.4z"/>
</g>
<path id="XMLID_174_" d="M155.8,101.9c-1.5,2.8-3.3,5.5-5.2,8c-0.8,0.2-1.6,0.1-2.4-0.1l-34.8-10.1c-1.9-0.5-2.9-2.6-2.5-4.8
	c0.4-2,2-3.4,3.8-3.4c0.2,0,0.3,0,0.5,0l35.8,5C153.6,97,155.5,99.2,155.8,101.9z"/>
</svg>
