<?xml version="1.0" encoding="utf-8"?>
<!-- Generator: Adobe Illustrator 19.0.0, SVG Export Plug-In . SVG Version: 6.00 Build 0)  -->
<svg version="1.1" id="Layer_1" xmlns="http://www.w3.org/2000/svg" xmlns:xlink="http://www.w3.org/1999/xlink" x="0px" y="0px"
	 viewBox="-362 265.8 298.7 239.2" style="enable-background:new -362 265.8 298.7 239.2;" xml:space="preserve">
<g>
	<path d="M-305,427.8c4.6,1.4,9.3,2.1,14.3,2.1h152.1v-0.3c1.8-0.2,3.5-0.4,5.2-0.7c27.3-5,48-28.9,48-57.7
		c0-17.2-7.4-32.6-19.1-43.1c-6.5-5.9-14.3-10.4-23-13c-5.2-1.6-10.8-2.4-16.6-2.4c-1.3,0-2.5,0-3.7,0.1
		c-13.4-25.5-40.1-42.9-70.9-42.9c-38,0-69.9,26.5-78,62.1c-6.9,0.8-13.3,3-19,6.4c-8.1,4.7-14.7,11.8-19,20.2
		c-3.3,6.6-5.2,14.1-5.2,22.1c0,0.9,0,1.8,0.1,2.7C-338.7,404.4-324.4,421.9-305,427.8z M-130.2,332.1c4.9,0,8.8,3.9,8.8,8.8
		c0,4.9-3.9,8.8-8.8,8.8s-8.8-3.9-8.8-8.8C-139,336-135.1,332.1-130.2,332.1z M-141.8,390.7c1.9,0,3.5,1.6,3.5,3.5s-1.6,3.5-3.5,3.5
		s-3.5-1.6-3.5-3.5S-143.7,390.7-141.8,390.7z M-218.7,287.8c34.2,0,62,27.8,62,62c0,9.2-2,18-5.6,25.8l17,7.1l-19.3-2.6
		c0,0,0,0,0,0l-36.3-5.1c-0.2,0-0.4,0-0.6,0c-2.3,0-4.4,1.9-4.9,4.4c-0.6,2.8,0.8,5.5,3.2,6.2l28.2,8.2c-11.2,11.1-26.6,18-43.7,18
		c-34.2,0-62-27.8-62-62S-252.9,287.8-218.7,287.8z"/>
	<circle cx="-218.7" cy="349.8" r="10.8"/>
	<path d="M-334.8,482.1c-1.2-0.9-2.6-1.7-4-2.3c-1.4-0.7-2.8-1.3-4-1.9c-1.2-0.6-2.3-1.2-3.1-1.9c-0.8-0.7-1.2-1.5-1.2-2.5
		c0-0.9,0.3-1.7,1.1-2.2c0.7-0.5,1.8-0.8,3.1-0.8c1.2,0,2.3,0,3.4,0.2c1.2,0.1,2.6,0.4,4.4,0.9l2.2-6.2c-2.2-0.8-4.2-1.3-5.8-1.5
		c-1.6-0.2-3.2-0.3-4.8-0.3c-2.4,0-4.4,0.3-6,1c-1.7,0.7-3,1.5-4,2.5s-1.8,2.1-2.2,3.3c-0.5,1.2-0.7,2.4-0.7,3.5
		c0,1.8,0.4,3.4,1.2,4.6s1.9,2.2,3.1,3.1c1.2,0.9,2.6,1.6,4,2.2c1.4,0.6,2.8,1.2,4,1.8c1.2,0.6,2.3,1.2,3.1,1.9s1.2,1.6,1.2,2.6
		c0,0.9-0.4,1.7-1.2,2.4s-2,1.1-3.7,1.1c-1.5,0-3-0.2-4.7-0.5c-1.6-0.3-3.5-0.9-5.7-1.7l-2.2,6.4c3.1,1.3,5.8,2.1,8.1,2.4
		c2.4,0.3,4.4,0.5,6.2,0.5c1.6,0,3.2-0.3,4.7-0.8s2.8-1.3,4-2.2c1.2-1,2.1-2.1,2.8-3.5c0.7-1.3,1-2.8,1-4.5c0-1.8-0.4-3.3-1.2-4.5
		C-332.5,484-333.6,483-334.8,482.1z"/>
	<path d="M-309.8,466.7c0.4,0.8,0.8,1.6,1.4,2.2c0.6,0.6,1.2,1.2,2,1.6c0.8,0.5,1.7,0.7,2.7,0.7v-0.1h3v-6.8h-10
		C-310.5,465.1-310.2,465.9-309.8,466.7z"/>
	<path d="M-305.4,493.6c-0.8,0.1-1.6,0.2-2.2,0.2c-1.6,0-2.9-0.7-3.9-2s-1.5-3.1-1.5-5.5v-33.5l-9.1,3v8.5l-5.7,1.4v5.5h5.6v15.3
		c0,4.7,1.2,8.3,3.5,10.8s5.7,3.7,10.1,3.7c1.2,0,2.4-0.2,3.7-0.5c1.3-0.3,2.8-0.8,4.6-1.4l-2-6.3
		C-303.5,493.2-304.5,493.5-305.4,493.6z"/>
	<path d="M-263.4,468.9c-1.6-1.7-3.5-3-5.8-3.9c-2.2-0.9-4.7-1.4-7.5-1.4c-2,0-4.1,0.4-6.3,1.1c-2.2,0.8-4.2,1.9-6,3.4
		s-3.3,3.4-4.5,5.8c-1.2,2.4-1.8,5.2-1.8,8.4c0,3,0.5,5.7,1.5,8s2.4,4.3,4.1,5.9c1.7,1.6,3.7,2.8,5.9,3.6s4.6,1.2,7,1.2
		c2.2,0,4.5-0.4,6.7-1.3c2.2-0.9,4.2-2.1,5.9-3.7c1.7-1.6,3.1-3.6,4.2-5.9s1.6-5,1.6-7.9c0-2.8-0.3-5.1-1.2-7.4
		S-261.8,470.6-263.4,468.9z M-269.2,486.8c-0.4,1.4-0.9,2.6-1.6,3.7c-0.7,1-1.6,1.9-2.6,2.5c-1.1,0.6-2.3,0.9-3.6,0.9
		c-1.2,0-2.4-0.3-3.5-0.8c-1-0.6-1.9-1.4-2.6-2.4c-0.8-1.1-1.3-2.3-1.7-3.7c-0.4-1.4-0.6-3-0.6-4.7c0-1.6,0.2-3.1,0.6-4.5
		c0.4-1.4,0.9-2.6,1.6-3.7c0.7-1,1.6-1.9,2.6-2.5c1.1-0.6,2.3-0.9,3.6-0.9c1.4,0,2.6,0.3,3.6,0.9c1,0.6,1.9,1.4,2.6,2.5
		c0.7,1.1,1.3,2.3,1.6,3.7c0.3,1.4,0.5,2.9,0.5,4.5C-268.7,483.9-268.9,485.4-269.2,486.8z"/>
	<path d="M-238.4,465.1c-1.5,1-2.7,2.5-3.6,4.3l-0.7,1.7l-0.1-1.7c-0.2-1.2-0.5-2.3-0.9-3.2c-0.4-0.9-0.8-1.6-1.2-1.9v0h-7.4
		c0.5,1.6,0.7,3.1,0.9,4.6c0.1,1.4,0.2,2.8,0.2,4.1v27h9.1v-16.7c0-1.7,0.2-3.2,0.5-4.7c0.4-1.4,0.9-2.7,1.5-3.7
		c0.6-1.1,1.4-1.9,2.3-2.5c0.9-0.6,2-0.9,3.2-0.9c0.6,0,1.2,0,1.8,0.1c0.6,0.1,1.4,0.3,2.3,0.6l1.1-7.8c-1.7-0.5-3.2-0.8-4.5-0.8
		C-235.4,463.6-236.9,464.1-238.4,465.1z"/>
	<path d="M-208.1,478.1c-1.2,0-2.3,0.5-3.2,1.6c-1,1-1.7,2.4-2.2,4h19.4c1-3,1.4-5.7,1.1-8.2s-1.1-4.7-2.4-6.5s-3-3.2-5.1-4.2
		c-2.1-1-4.5-1.5-7-1.5c-2.4,0-4.8,0.4-7,1.2c-2.2,0.9-4.2,2.1-5.8,3.6c-1.7,1.5-3,3.4-3.9,5.7c-0.9,2.3-1.4,4.8-1.4,7.7
		c0,2.4,0.4,4.7,1.1,7s1.8,4.4,3.3,6.2c1.5,1.9,3.4,3.3,5.7,4.5c2.3,1.1,5,1.7,8.2,1.7c2.1,0,4.3-0.2,6.5-0.7c2.2-0.5,4.5-1.3,7-2.5
		l-2.4-6.4c-2.1,1-3.9,1.6-5.4,2c-1.5,0.4-3.1,0.6-4.7,0.6c-2.9,0-5.2-1.1-7-3.3c-1.8-2.2-2.7-5.3-2.7-9.3c0-2,0.2-3.7,0.7-5.1
		c0.5-1.4,1.1-2.6,1.9-3.5c0.8-0.9,1.7-1.6,2.6-2c1-0.4,1.9-0.6,2.9-0.6c1.1,0,2,0.3,2.8,0.7c0.8,0.5,1.5,1.1,2,1.8
		c0.5,0.8,0.9,1.7,1.1,2.6c0.2,0.9,0.2,1.9,0.1,3v-0.1H-208.1z"/>
	<path d="M-154.4,469.3c-1.3-1.7-2.7-3-4.5-4c-1.7-1-3.7-1.5-5.9-1.5c-1.2,0-2.4,0.1-3.8,0.4c-1.3,0.2-2.7,0.6-4,1.2
		c0.3,0.7,0.6,1.3,1,2c0.4,0.6,0.8,1.2,1.2,1.7c0.5,0.5,0.9,0.9,1.5,1.2c0.5,0.3,1.2,0.4,2,0.4c1.2,0,2.1,0.3,2.9,0.8
		c0.8,0.7,1.4,1.5,1.9,2.5c0.4,1.1,0.8,2.2,1,3.4c0.2,1.2,0.3,2.4,0.3,3.5c0,1.9-0.2,3.7-0.6,5.3c-0.4,1.6-0.9,2.9-1.7,4.1
		c-0.8,1.2-1.7,2.1-2.8,2.7c-1.1,0.7-2.3,1-3.6,1c-0.9,0-1.8,0-2.7-0.1c-0.9-0.1-1.8-0.3-2.9-0.6v-45.6h-9.7v49.5
		c2.8,1.5,5.4,2.5,7.8,3.1c2.4,0.6,4.9,0.9,7.4,0.9c2.9,0,5.5-0.6,7.9-1.6c2.3-1.1,4.3-2.5,6-4.3c1.7-1.8,2.9-3.9,3.8-6.4
		c0.9-2.5,1.3-5.1,1.3-7.9c0-2.1-0.3-4.1-1-6.2C-152.2,472.8-153.2,470.9-154.4,469.3z"/>
	<rect x="-142.7" y="464.4" width="9.7" height="35.7"/>
	<path d="M-137.9,448.2c-1.6,0-2.9,0.6-4,1.7c-1.1,1.1-1.6,2.5-1.6,4.1c0,1.6,0.5,2.9,1.6,4c1,1.1,2.4,1.6,4,1.6
		c1.6,0,2.9-0.5,4-1.6c1.1-1,1.6-2.4,1.6-4c0-1.6-0.5-3-1.6-4.1C-134.9,448.8-136.3,448.2-137.9,448.2z"/>
	<path d="M-108.7,466.7c0.4,0.8,0.8,1.6,1.4,2.2c0.6,0.6,1.2,1.2,2,1.6c0.8,0.5,1.7,0.7,2.7,0.7v-0.1h3v-6.8h-10
		C-109.4,465.1-109.1,465.9-108.7,466.7z"/>
	<path d="M-104.3,493.6c-0.8,0.1-1.6,0.2-2.2,0.2c-1.6,0-2.9-0.7-3.9-2s-1.5-3.1-1.5-5.5v-33.5l-9.1,3v8.5l-5.7,1.4v5.5h5.6v15.3
		c0,4.7,1.2,8.3,3.5,10.8s5.7,3.7,10.1,3.7c1.2,0,2.4-0.2,3.7-0.5c1.3-0.3,2.8-0.8,4.6-1.4l-2-6.3
		C-102.4,493.2-103.4,493.5-104.3,493.6z"/>
	<path d="M-69.1,485.2c-0.8-1.2-1.9-2.2-3.1-3.1s-2.6-1.7-4-2.3c-1.4-0.7-2.8-1.3-4-1.9c-1.2-0.6-2.3-1.2-3.1-1.9s-1.2-1.5-1.2-2.5
		c0-0.9,0.3-1.7,1.1-2.2c0.7-0.5,1.8-0.8,3.1-0.8c1.2,0,2.3,0,3.4,0.2c1.2,0.1,2.6,0.4,4.4,0.9l2.2-6.2c-2.2-0.8-4.2-1.3-5.8-1.5
		c-1.6-0.2-3.2-0.3-4.8-0.3c-2.4,0-4.4,0.3-6,1c-1.7,0.7-3,1.5-4,2.5s-1.8,2.1-2.2,3.3c-0.5,1.2-0.7,2.4-0.7,3.5
		c0,1.8,0.4,3.4,1.2,4.6c0.8,1.2,1.9,2.2,3.1,3.1c1.2,0.9,2.6,1.6,4,2.2c1.4,0.6,2.8,1.2,4,1.8c1.2,0.6,2.3,1.2,3.1,1.9
		c0.8,0.7,1.2,1.6,1.2,2.6c0,0.9-0.4,1.7-1.2,2.4s-2,1.1-3.7,1.1c-1.5,0-3-0.2-4.7-0.5c-1.6-0.3-3.5-0.9-5.7-1.7l-2.1,6.4
		c3.1,1.3,5.8,2.1,8.1,2.4c2.3,0.3,4.3,0.5,6.1,0.5c1.6,0,3.2-0.3,4.7-0.8s2.8-1.3,4-2.2c1.2-1,2.1-2.1,2.8-3.5c0.7-1.3,1-2.8,1-4.5
		C-67.9,487.9-68.3,486.4-69.1,485.2z"/>
</g>
</svg>
