<?xml version="1.0" encoding="utf-8"?>
<!-- Generator: Adobe Illustrator 19.0.0, SVG Export Plug-In . SVG Version: 6.00 Build 0)  -->
<svg version="1.1" id="Layer_1" xmlns="http://www.w3.org/2000/svg" xmlns:xlink="http://www.w3.org/1999/xlink" x="0px" y="0px"
	 viewBox="-207 313 609 144" style="enable-background:new -207 313 609 144;" xml:space="preserve">
<style type="text/css">
	.st0{fill:#238648;}
	.st1{fill:#309A47;}
	.st2{fill:#61B44D;}
	.st3{fill:#89C655;}
	.st4{fill:#FFFFFF;}
	.st5{opacity:0.4;fill:#238648;}
	.st6{opacity:0.1;fill:#89C655;}
</style>
<g id="XMLID_80_">
	<g>
		<path id="XMLID_103_" class="st0" d="M35.4,415.4c2.7,1,5.1,1.8,7.2,2.2c2.1,0.4,4,0.6,5.9,0.6c2.1,0,3.7-0.4,4.7-1.3
			s1.5-1.9,1.5-3c0-1.3-0.5-2.3-1.6-3.2c-1-0.9-2.3-1.7-3.9-2.4c-1.6-0.7-3.2-1.5-5-2.2c-1.8-0.7-3.5-1.7-5-2.7
			c-1.6-1.1-2.9-2.4-3.9-3.9s-1.6-3.4-1.6-5.7c0-1.4,0.3-2.8,0.8-4.4c0.5-1.5,1.5-2.9,2.7-4.1c1.3-1.2,2.9-2.3,5-3.1
			c2-0.8,4.5-1.3,7.5-1.3c2,0,4,0.1,6,0.4c2,0.3,4.5,0.9,7.2,1.8l-2.8,7.8c-2.2-0.6-4.1-1-5.4-1.2c-1.4-0.2-2.8-0.3-4.2-0.3
			c-1.7,0-3,0.3-3.9,1c-1,0.7-1.4,1.6-1.4,2.8s0.5,2.2,1.6,3.1c1,0.9,2.3,1.7,3.9,2.4s3.2,1.5,5,2.3c1.8,0.8,3.5,1.8,5,2.9
			c1.6,1.1,2.9,2.4,3.9,3.9s1.6,3.4,1.6,5.7c0,2.1-0.4,4-1.3,5.7s-2,3.1-3.5,4.3c-1.4,1.2-3.1,2.1-5,2.7s-3.8,1-5.8,1
			c-2.2,0-4.8-0.2-7.7-0.6s-6.3-1.4-10.1-3L35.4,415.4z"/>
		<path id="XMLID_102_" class="st0" d="M76.7,390.1h-7.2v-6.8l7.2-1.7v-10.7l11.4-3.7v41.9c0,2.9,0.6,5.2,1.9,6.9
			c1.2,1.6,2.9,2.5,4.9,2.5c0.8,0,1.7-0.1,2.8-0.3c1.1-0.2,2.3-0.5,3.8-1l2.5,7.9c-2.2,0.7-4.1,1.3-5.7,1.7
			c-1.6,0.4-3.2,0.6-4.6,0.6c-5.5,0-9.7-1.6-12.6-4.7c-2.9-3.1-4.3-7.6-4.3-13.6L76.7,390.1L76.7,390.1z M99.7,390.1
			c-1.3,0-2.4-0.3-3.3-0.8s-1.8-1.2-2.5-2c-0.7-0.8-1.3-1.7-1.7-2.7c-0.5-1-0.8-2-1.1-3h12.5v8.6h-3.9V390.1z"/>
		<path id="XMLID_101_" class="st0" d="M156.3,403.8c0,3.7-0.7,7-2,9.9c-1.4,2.9-3.1,5.4-5.3,7.4c-2.2,2-4.6,3.6-7.4,4.6
			c-2.8,1.1-5.6,1.6-8.4,1.6c-3.1,0-6-0.5-8.8-1.6c-2.8-1-5.3-2.6-7.4-4.5c-2.1-2-3.8-4.5-5.1-7.4c-1.3-2.9-1.9-6.3-1.9-10
			c0-4,0.7-7.5,2.2-10.5s3.3-5.4,5.6-7.3c2.3-1.9,4.8-3.3,7.5-4.2c2.7-0.9,5.3-1.4,7.8-1.4c3.5,0,6.6,0.6,9.4,1.7
			c2.8,1.2,5.3,2.8,7.3,4.8c2,2.1,3.6,4.5,4.8,7.4C155.7,397.2,156.3,400.4,156.3,403.8z M133.1,418.5c1.7,0,3.2-0.4,4.5-1.2
			c1.3-0.8,2.4-1.8,3.2-3.1c0.9-1.3,1.5-2.9,1.9-4.6c0.4-1.8,0.6-3.7,0.6-5.7s-0.2-3.9-0.6-5.6c-0.4-1.7-1.1-3.3-1.9-4.6
			c-0.9-1.3-1.9-2.4-3.2-3.1c-1.3-0.8-2.8-1.2-4.5-1.2s-3.2,0.4-4.5,1.2c-1.3,0.8-2.4,1.8-3.2,3.1c-0.9,1.3-1.5,2.8-2,4.6
			c-0.5,1.7-0.7,3.6-0.7,5.6c0,2.2,0.2,4.2,0.7,5.9c0.5,1.8,1.2,3.3,2.1,4.6c0.9,1.3,2,2.3,3.3,3
			C130.2,418.1,131.6,418.5,133.1,418.5z"/>
		<path id="XMLID_100_" class="st0" d="M173.2,381.5c0.5,0.4,1,1.2,1.5,2.4c0.5,1.2,0.9,2.5,1.2,4l0.2,2.1l0.9-2.1
			c1.2-2.3,2.7-4.1,4.5-5.4c1.9-1.3,3.7-1.9,5.6-1.9c1.7,0,3.5,0.3,5.6,1l-1.4,9.8c-1.2-0.3-2.1-0.6-2.9-0.7
			c-0.8-0.1-1.5-0.2-2.2-0.2c-1.5,0-2.8,0.4-4,1.1c-1.2,0.8-2.1,1.8-2.9,3.1s-1.4,2.9-1.9,4.7c-0.4,1.8-0.6,3.8-0.6,5.9v20.8h-11.3
			v-33.7c0-1.6-0.1-3.3-0.3-5.1c-0.2-1.8-0.6-3.7-1.1-5.7h9.1V381.5z"/>
		<path id="XMLID_99_" class="st0" d="M227.1,398.8c0.2-1.3,0.1-2.6-0.2-3.8c-0.3-1.2-0.8-2.3-1.4-3.2c-0.7-0.9-1.5-1.7-2.5-2.2
			s-2.2-0.8-3.5-0.8c-1.2,0-2.4,0.3-3.6,0.8s-2.3,1.3-3.2,2.5c-1,1.1-1.8,2.6-2.4,4.3c-0.6,1.8-0.9,3.9-0.9,6.4
			c0,5,1.1,8.9,3.4,11.6c2.2,2.7,5.2,4.1,8.8,4.1c2,0,4-0.2,5.9-0.7s4.2-1.3,6.7-2.5l3,8c-3.1,1.5-6,2.5-8.8,3.2
			c-2.7,0.6-5.5,0.9-8.2,0.9c-4,0-7.4-0.7-10.2-2.2c-2.9-1.4-5.2-3.3-7.1-5.6c-1.9-2.3-3.3-4.9-4.1-7.7c-0.9-2.9-1.3-5.8-1.3-8.7
			c0-3.6,0.6-6.8,1.8-9.6c1.2-2.8,2.8-5.2,4.8-7.1s4.5-3.4,7.2-4.5c2.8-1,5.7-1.6,8.8-1.6c3.2,0,6.1,0.6,8.7,1.9
			c2.6,1.3,4.8,3,6.4,5.3c1.6,2.2,2.6,4.9,3,8.1c0.4,3.1-0.1,6.6-1.3,10.2h-24.2c0.6-2,1.5-3.7,2.7-5.1s2.5-2,4-2L227.1,398.8
			L227.1,398.8z"/>
		<path id="XMLID_98_" class="st0" d="M270.8,389.5c-1,0.1-1.8-0.1-2.5-0.5s-1.3-0.9-1.8-1.5s-1-1.3-1.5-2.2
			c-0.5-0.8-0.9-1.7-1.3-2.6c1.7-0.7,3.4-1.2,5.1-1.6c1.7-0.3,3.3-0.5,4.8-0.5c2.8,0,5.2,0.6,7.4,1.9c2.2,1.3,4,2.9,5.6,5
			c1.5,2,2.7,4.4,3.5,6.9c0.8,2.6,1.3,5.1,1.3,7.7c0,3.5-0.5,6.8-1.6,9.9c-1.1,3.1-2.7,5.8-4.8,8c-2.1,2.3-4.6,4.1-7.5,5.4
			c-2.9,1.3-6.2,1.9-9.9,1.9c-3.2,0-6.3-0.4-9.2-1.1c-3-0.7-6.3-2-9.8-3.8v-61.7h12.1v57c1.3,0.3,2.5,0.6,3.6,0.7s2.2,0.2,3.4,0.2
			c1.7,0,3.2-0.4,4.5-1.2c1.3-0.8,2.5-1.9,3.4-3.4c0.9-1.4,1.7-3.2,2.2-5.2s0.7-4.2,0.7-6.6c0-1.4-0.1-2.8-0.4-4.4
			c-0.3-1.5-0.7-2.9-1.3-4.2c-0.6-1.3-1.4-2.3-2.4-3.1C273.5,389.8,272.3,389.4,270.8,389.5z"/>
		<path id="XMLID_97_" class="st0" d="M300,368.6c0-2,0.7-3.7,2-5.1c1.4-1.4,3-2.1,5.1-2.1c2,0,3.7,0.7,5.1,2.1c1.4,1.4,2,3.1,2,5.1
			s-0.7,3.7-2,5.1c-1.4,1.4-3,2-5.1,2c-2,0-3.7-0.7-5.1-2C300.7,372.3,300,370.6,300,368.6z M301.1,426.2v-44.7h12.1v44.7H301.1z"/>
		<path id="XMLID_96_" class="st0" d="M328.2,390.1H321v-6.8l7.2-1.7v-10.7l11.4-3.7v41.9c0,2.9,0.6,5.2,1.9,6.9
			c1.2,1.6,2.9,2.5,4.9,2.5c0.8,0,1.7-0.1,2.8-0.3s2.3-0.5,3.8-1l2.5,7.9c-2.2,0.7-4.1,1.3-5.7,1.7c-1.6,0.4-3.2,0.6-4.6,0.6
			c-5.5,0-9.7-1.6-12.6-4.7c-2.9-3.1-4.3-7.6-4.3-13.6v-19H328.2z M351.2,390.1c-1.3,0-2.4-0.3-3.3-0.8c-1-0.5-1.8-1.2-2.5-2
			c-0.7-0.8-1.3-1.7-1.7-2.7c-0.5-1-0.8-2-1.1-3h12.5v8.6h-3.9V390.1z"/>
		<path id="XMLID_95_" class="st0" d="M363.9,415.4c2.7,1,5.1,1.8,7.2,2.2c2.1,0.4,4,0.6,5.9,0.6c2.1,0,3.7-0.4,4.7-1.3
			s1.5-1.9,1.5-3c0-1.3-0.5-2.3-1.6-3.2c-1-0.9-2.3-1.7-3.9-2.4c-1.6-0.7-3.2-1.5-5-2.2c-1.8-0.7-3.5-1.7-5-2.7
			c-1.6-1.1-2.9-2.4-3.9-3.9s-1.6-3.4-1.6-5.7c0-1.4,0.3-2.8,0.8-4.4c0.5-1.5,1.5-2.9,2.7-4.1c1.2-1.2,2.9-2.3,5-3.1
			c2-0.8,4.5-1.3,7.5-1.3c2,0,4,0.1,6,0.4c2,0.3,4.4,0.9,7.2,1.8l-2.8,7.8c-2.2-0.6-4.1-1-5.4-1.2c-1.4-0.2-2.8-0.3-4.2-0.3
			c-1.7,0-3,0.3-3.9,1c-1,0.7-1.4,1.6-1.4,2.8s0.5,2.2,1.6,3.1c1,0.9,2.3,1.7,3.9,2.4c1.6,0.7,3.2,1.5,5,2.3c1.8,0.8,3.5,1.8,5,2.9
			c1.6,1.1,2.9,2.4,3.9,3.9s1.6,3.4,1.6,5.7c0,2.1-0.4,4-1.3,5.7c-0.9,1.7-2,3.1-3.5,4.3c-1.4,1.2-3.1,2.1-5,2.7s-3.8,1-5.8,1
			c-2.2,0-4.8-0.2-7.7-0.6s-6.3-1.4-10.1-3L363.9,415.4z"/>
	</g>
</g>
<path id="XMLID_47_" class="st0" d="M-2.3,401.6c0,22.3-16,40.8-37.2,44.7c-1.3,0.2-2.7,0.4-4,0.6v0.2h-117.9c-3.8,0-7.5-0.6-11-1.6
	c-15-4.5-26.1-18.1-27-34.4c0-0.7-0.1-1.4-0.1-2.1c0-6.2,1.5-12,4.1-17.1c3.3-6.5,8.4-12,14.7-15.7c4.4-2.6,9.4-4.3,14.7-5
	c6.3-27.6,31-48.2,60.5-48.2c23.9,0,44.6,13.5,55,33.3c0.9-0.1,1.9-0.1,2.9-0.1c4.5,0,8.8,0.6,12.9,1.9c6.7,2,12.8,5.5,17.8,10.1
	C-8,376.3-2.3,388.3-2.3,401.6z"/>
<path id="XMLID_40_" class="st1" d="M-15.5,385c0,23.7-9.1,45.2-24.1,61.3c-1.3,0.2-2.7,0.4-4,0.6v0.2h-117.9c-3.8,0-7.5-0.6-11-1.6
	c-13-14.4-21.5-33.1-23-53.6c5.6-11.1,16.5-19.1,29.4-20.7c6.3-27.6,31-48.2,60.5-48.2c23.9,0,44.6,13.5,55,33.3
	c0.9-0.1,1.9-0.1,2.9-0.1c11.8,0,22.6,4.5,30.7,11.9C-16,373.5-15.5,379.2-15.5,385z"/>
<path id="XMLID_39_" class="st2" d="M-29.9,385c0,25.7-12.8,48.4-32.3,62h-86.7c-19.5-13.7-32.3-36.4-32.3-62c0-3,0.2-6,0.5-8.9
	c4.4-2.6,9.4-4.3,14.7-5c6.3-27.6,31-48.2,60.5-48.2c23.9,0,44.6,13.5,55,33.3c0.9-0.1,1.9-0.1,2.9-0.1c4.5,0,8.8,0.6,12.9,1.9
	C-31.7,366.4-29.9,375.5-29.9,385z"/>
<path id="XMLID_55_" class="st3" d="M-43.5,385c0,10.8-2.8,21-7.7,29.9c-1.5,2.8-3.3,5.5-5.2,8c-11.3,14.7-29.1,24.2-49.1,24.2
	c-34.3,0-62-27.8-62-62c0-34.3,27.8-62,62-62C-71.3,322.9-43.5,350.7-43.5,385z"/>
<circle id="XMLID_23_" class="st4" cx="-37" cy="378.1" r="6.8"/>
<circle id="XMLID_17_" class="st5" cx="-106.8" cy="385.9" r="48.1"/>
<circle id="XMLID_16_" class="st4" cx="-105.6" cy="385" r="48.1"/>
<path id="XMLID_31_" class="st6" d="M-105.6,342.5v29.8c7,0,12.6,5.7,12.6,12.6h29.8C-63.1,361.5-82.1,342.5-105.6,342.5z"/>
<path id="XMLID_13_" class="st6" d="M-105.6,427.4v-29.8c-7,0-12.6-5.7-12.6-12.6H-148C-148,408.4-129,427.4-105.6,427.4z"/>
<path id="XMLID_41_" class="st3" d="M-51.2,414.9c-1.5,2.8-3.3,5.5-5.2,8c-0.8,0.2-1.6,0.1-2.4-0.1l-34.8-10.1
	c-1.9-0.5-2.9-2.6-2.5-4.8c0.4-2,2-3.4,3.8-3.4c0.2,0,0.3,0,0.5,0l35.8,5C-53.4,410-51.6,412.2-51.2,414.9z"/>
<polygon id="XMLID_12_" class="st4" points="-77.6,406.6 -48.7,410.5 -69.1,402 "/>
<circle id="XMLID_11_" class="st0" cx="-105.6" cy="385" r="8.4"/>
<circle id="XMLID_1_" class="st4" cx="-46" cy="419.4" r="2.7"/>
</svg>
