<?xml version="1.0" encoding="utf-8"?>
<!-- Generator: Adobe Illustrator 19.0.0, SVG Export Plug-In . SVG Version: 6.00 Build 0)  -->
<svg version="1.1" id="Layer_1" xmlns="http://www.w3.org/2000/svg" xmlns:xlink="http://www.w3.org/1999/xlink" x="0px" y="0px"
	 viewBox="-362 265.8 298.7 239.2" style="enable-background:new -362 265.8 298.7 239.2;" xml:space="preserve">
<style type="text/css">
	.st0{fill:#238648;}
	.st1{fill:#309A47;}
	.st2{fill:#61B44D;}
	.st3{fill:#89C655;}
	.st4{fill:#FFFFFF;}
	.st5{opacity:0.4;fill:#238648;}
	.st6{opacity:0.1;fill:#89C655;}
</style>
<g id="XMLID_80_">
	<g>
		<path id="XMLID_103_" class="st0" d="M-355.1,491.4c2.2,0.8,4.1,1.4,5.7,1.7c1.7,0.3,3.2,0.5,4.7,0.5c1.7,0,2.9-0.4,3.7-1.1
			s1.2-1.5,1.2-2.4c0-1-0.4-1.9-1.2-2.6s-1.9-1.3-3.1-1.9c-1.2-0.6-2.6-1.2-4-1.8s-2.8-1.3-4-2.2c-1.2-0.9-2.3-1.9-3.1-3.1
			c-0.8-1.2-1.2-2.8-1.2-4.6c0-1.1,0.2-2.3,0.7-3.5c0.4-1.2,1.2-2.3,2.2-3.3s2.3-1.8,4-2.5c1.6-0.7,3.6-1,6-1c1.6,0,3.2,0.1,4.8,0.3
			c1.6,0.2,3.6,0.7,5.8,1.5l-2.2,6.2c-1.8-0.5-3.2-0.8-4.4-0.9c-1.1-0.2-2.2-0.2-3.4-0.2c-1.3,0-2.4,0.3-3.1,0.8
			c-0.8,0.5-1.1,1.3-1.1,2.2c0,1,0.4,1.8,1.2,2.5c0.8,0.7,1.9,1.3,3.1,1.9c1.2,0.6,2.6,1.2,4,1.9c1.4,0.6,2.8,1.4,4,2.3
			c1.2,0.9,2.3,1.9,3.1,3.1c0.8,1.2,1.2,2.7,1.2,4.5c0,1.7-0.3,3.2-1,4.5c-0.7,1.4-1.6,2.5-2.8,3.5c-1.2,0.9-2.5,1.7-4,2.2
			s-3.1,0.8-4.7,0.8c-1.8,0-3.8-0.2-6.2-0.5c-2.3-0.3-5-1.1-8.1-2.4L-355.1,491.4z"/>
		<path id="XMLID_102_" class="st0" d="M-322.1,471.2h-5.7v-5.5l5.7-1.4v-8.5l9.1-3v33.5c0,2.4,0.5,4.2,1.5,5.5s2.3,2,3.9,2
			c0.6,0,1.4-0.1,2.2-0.2c0.9-0.1,1.9-0.4,3.1-0.8l2,6.3c-1.8,0.6-3.3,1.1-4.6,1.4c-1.3,0.3-2.5,0.5-3.7,0.5
			c-4.4,0-7.8-1.2-10.1-3.7c-2.3-2.5-3.5-6.1-3.5-10.8v-15.3H-322.1z M-303.7,471.2c-1,0-1.9-0.2-2.7-0.7c-0.8-0.4-1.4-1-2-1.6
			c-0.6-0.6-1-1.4-1.4-2.2c-0.4-0.8-0.7-1.6-0.9-2.4h10v6.8h-3V471.2z"/>
		<path id="XMLID_101_" class="st0" d="M-258.4,482.2c0,2.9-0.5,5.6-1.6,7.9s-2.5,4.3-4.2,5.9c-1.7,1.6-3.7,2.8-5.9,3.7
			c-2.2,0.9-4.5,1.3-6.7,1.3c-2.4,0-4.8-0.4-7-1.2c-2.2-0.8-4.2-2-5.9-3.6c-1.7-1.6-3.1-3.6-4.1-5.9c-1-2.3-1.5-5-1.5-8
			c0-3.2,0.6-6,1.8-8.4c1.2-2.4,2.7-4.3,4.5-5.8c1.8-1.5,3.8-2.6,6-3.4c2.2-0.7,4.3-1.1,6.3-1.1c2.8,0,5.3,0.5,7.5,1.4
			c2.3,0.9,4.2,2.2,5.8,3.9s2.9,3.6,3.8,5.9C-258.7,477.1-258.4,479.4-258.4,482.2z M-277,493.9c1.3,0,2.5-0.3,3.6-0.9
			c1-0.6,1.9-1.5,2.6-2.5c0.7-1.1,1.2-2.3,1.6-3.7c0.3-1.4,0.5-2.9,0.5-4.5c0-1.6-0.2-3.1-0.5-4.5c-0.3-1.4-0.9-2.6-1.6-3.7
			c-0.7-1.1-1.6-1.9-2.6-2.5s-2.2-0.9-3.6-0.9c-1.3,0-2.5,0.3-3.6,0.9c-1,0.6-1.9,1.5-2.6,2.5c-0.7,1.1-1.2,2.3-1.6,3.7
			c-0.4,1.4-0.6,2.9-0.6,4.5c0,1.7,0.2,3.3,0.6,4.7c0.4,1.4,0.9,2.6,1.7,3.7c0.7,1,1.6,1.8,2.6,2.4
			C-279.4,493.6-278.2,493.9-277,493.9z"/>
		<path id="XMLID_100_" class="st0" d="M-244.9,464.3c0.4,0.3,0.8,1,1.2,1.9c0.4,0.9,0.7,2,0.9,3.2l0.1,1.7l0.7-1.7
			c0.9-1.8,2.1-3.3,3.6-4.3s3-1.5,4.5-1.5c1.3,0,2.8,0.3,4.5,0.8l-1.1,7.8c-0.9-0.3-1.7-0.5-2.3-0.6s-1.2-0.1-1.8-0.1
			c-1.2,0-2.3,0.3-3.2,0.9c-0.9,0.6-1.7,1.4-2.3,2.5c-0.6,1-1.1,2.3-1.5,3.7c-0.3,1.5-0.5,3-0.5,4.7V500h-9.1v-27
			c0-1.3-0.1-2.7-0.2-4.1c-0.2-1.5-0.4-3-0.9-4.6L-244.9,464.3L-244.9,464.3z"/>
		<path id="XMLID_99_" class="st0" d="M-201.9,478.2c0.1-1.1,0.1-2.1-0.1-3s-0.6-1.8-1.1-2.6c-0.5-0.7-1.2-1.3-2-1.8
			c-0.8-0.4-1.7-0.7-2.8-0.7c-1,0-1.9,0.2-2.9,0.6c-0.9,0.4-1.8,1.1-2.6,2s-1.4,2.1-1.9,3.5s-0.7,3.1-0.7,5.1c0,4,0.9,7.1,2.7,9.3
			c1.8,2.2,4.1,3.3,7,3.3c1.6,0,3.2-0.2,4.7-0.6c1.5-0.4,3.3-1,5.4-2l2.4,6.4c-2.5,1.2-4.8,2-7,2.5s-4.4,0.7-6.5,0.7
			c-3.2,0-5.9-0.6-8.2-1.7c-2.3-1.2-4.2-2.6-5.7-4.5c-1.5-1.8-2.6-3.9-3.3-6.2c-0.7-2.3-1.1-4.6-1.1-7c0-2.9,0.5-5.4,1.4-7.7
			s2.2-4.2,3.9-5.7c1.6-1.5,3.6-2.7,5.8-3.6c2.2-0.8,4.6-1.2,7-1.2c2.5,0,4.9,0.5,7,1.5s3.8,2.4,5.1,4.2c1.3,1.8,2.1,4,2.4,6.5
			c0.3,2.5-0.1,5.2-1.1,8.2h-19.4c0.5-1.6,1.2-3,2.2-4c0.9-1.1,2-1.6,3.2-1.6h6.2V478.2z"/>
		<path id="XMLID_98_" class="st0" d="M-166.9,470.7c-0.8,0-1.5-0.1-2-0.4c-0.6-0.3-1-0.7-1.5-1.2c-0.4-0.5-0.8-1.1-1.2-1.7
			c-0.4-0.7-0.7-1.3-1-2c1.3-0.6,2.7-1,4-1.2c1.4-0.3,2.6-0.4,3.8-0.4c2.2,0,4.2,0.5,5.9,1.5c1.8,1,3.2,2.3,4.5,4
			c1.2,1.6,2.2,3.5,2.8,5.5c0.7,2.1,1,4.1,1,6.2c0,2.8-0.4,5.4-1.3,7.9c-0.9,2.5-2.1,4.6-3.8,6.4s-3.7,3.2-6,4.3
			c-2.4,1-5,1.6-7.9,1.6c-2.5,0-5-0.3-7.4-0.9c-2.4-0.6-5-1.6-7.8-3.1v-49.5h9.7v45.6c1.1,0.3,2,0.5,2.9,0.6s1.8,0.1,2.7,0.1
			c1.3,0,2.5-0.3,3.6-1c1.1-0.6,2-1.5,2.8-2.7c0.8-1.2,1.3-2.5,1.7-4.1c0.4-1.6,0.6-3.4,0.6-5.3c0-1.1-0.1-2.3-0.3-3.5
			s-0.6-2.3-1-3.4c-0.5-1-1.1-1.8-1.9-2.5C-164.8,471-165.7,470.7-166.9,470.7z"/>
		<path id="XMLID_97_" class="st0" d="M-143.5,454c0-1.6,0.5-3,1.6-4.1c1.1-1.1,2.4-1.7,4-1.7s3,0.6,4,1.7c1.1,1.1,1.6,2.5,1.6,4.1
			c0,1.6-0.5,3-1.6,4c-1.1,1.1-2.4,1.6-4,1.6s-3-0.5-4-1.6C-143,456.9-143.5,455.6-143.5,454z M-142.7,500.1v-35.7h9.7v35.7H-142.7z
			"/>
		<path id="XMLID_96_" class="st0" d="M-121,471.2h-5.7v-5.5l5.7-1.4v-8.5l9.1-3v33.5c0,2.4,0.5,4.2,1.5,5.5s2.3,2,3.9,2
			c0.6,0,1.4-0.1,2.2-0.2c0.9-0.1,1.9-0.4,3.1-0.8l2,6.3c-1.8,0.6-3.3,1.1-4.6,1.4c-1.3,0.3-2.5,0.5-3.7,0.5
			c-4.4,0-7.8-1.2-10.1-3.7s-3.5-6.1-3.5-10.8L-121,471.2L-121,471.2z M-102.6,471.2c-1,0-1.9-0.2-2.7-0.7c-0.8-0.4-1.4-1-2-1.6
			c-0.6-0.6-1-1.4-1.4-2.2s-0.7-1.6-0.9-2.4h10v6.8h-3V471.2z"/>
		<path id="XMLID_95_" class="st0" d="M-92.5,491.4c2.2,0.8,4.1,1.4,5.7,1.7c1.7,0.3,3.2,0.5,4.7,0.5c1.7,0,2.9-0.4,3.7-1.1
			c0.8-0.7,1.2-1.5,1.2-2.4c0-1-0.4-1.9-1.2-2.6c-0.8-0.7-1.9-1.3-3.1-1.9c-1.2-0.6-2.6-1.2-4-1.8s-2.8-1.3-4-2.2
			c-1.2-0.9-2.3-1.9-3.1-3.1c-0.8-1.2-1.2-2.8-1.2-4.6c0-1.1,0.2-2.3,0.7-3.5c0.4-1.2,1.2-2.3,2.2-3.3s2.3-1.8,4-2.5
			c1.6-0.7,3.6-1,6-1c1.6,0,3.2,0.1,4.8,0.3c1.6,0.2,3.6,0.7,5.8,1.5l-2.2,6.2c-1.8-0.5-3.2-0.8-4.4-0.9c-1.1-0.2-2.2-0.2-3.4-0.2
			c-1.3,0-2.4,0.3-3.1,0.8c-0.8,0.5-1.1,1.3-1.1,2.2c0,1,0.4,1.8,1.2,2.5c0.8,0.7,1.9,1.3,3.1,1.9c1.2,0.6,2.6,1.2,4,1.9
			c1.4,0.6,2.8,1.4,4,2.3c1.2,0.9,2.3,1.9,3.1,3.1c0.8,1.2,1.2,2.7,1.2,4.5c0,1.7-0.3,3.2-1,4.5c-0.7,1.4-1.6,2.5-2.8,3.5
			c-1.2,0.9-2.5,1.7-4,2.2s-3.1,0.8-4.7,0.8c-1.8,0-3.8-0.2-6.1-0.5c-2.3-0.3-5-1.1-8.1-2.4L-92.5,491.4z"/>
	</g>
</g>
<g>
	<path id="XMLID_47_" class="st0" d="M-85.4,371.1c0,28.8-20.7,52.7-48,57.7c-1.7,0.3-3.4,0.5-5.2,0.7v0.3h-152.1
		c-5,0-9.7-0.7-14.3-2.1c-19.4-5.9-33.7-23.4-34.8-44.4c-0.1-0.9-0.1-1.8-0.1-2.7c0-8,1.9-15.5,5.2-22.1c4.3-8.4,10.9-15.5,19-20.2
		c5.7-3.4,12.1-5.6,19-6.4c8.1-35.6,40-62.1,78-62.1c30.8,0,57.5,17.4,70.9,42.9c1.2-0.1,2.4-0.1,3.7-0.1c5.8,0,11.4,0.8,16.6,2.4
		c8.7,2.6,16.5,7.1,23,13C-92.7,338.6-85.4,354-85.4,371.1z"/>
	<path id="XMLID_40_" class="st1" d="M-102.4,349.7c0,30.5-11.8,58.3-31,79.1c-1.7,0.3-3.4,0.5-5.2,0.7v0.3h-152.1
		c-5,0-9.7-0.7-14.3-2.1c-16.8-18.6-27.7-42.7-29.7-69.2c7.2-14.3,21.3-24.7,37.9-26.7c8.1-35.6,40-62.1,78-62.1
		c30.8,0,57.5,17.4,70.9,42.9c1.2-0.1,2.4-0.1,3.7-0.1c15.3,0,29.2,5.8,39.6,15.4C-103.1,334.9-102.4,342.2-102.4,349.7z"/>
	<path id="XMLID_39_" class="st2" d="M-121,349.7c0,33.1-16.5,62.4-41.7,80.1h-111.9c-25.2-17.7-41.7-46.9-41.7-80.1
		c0-3.9,0.2-7.7,0.7-11.5c5.7-3.4,12.1-5.6,19-6.4c8.1-35.6,40-62.1,78-62.1c30.8,0,57.5,17.4,70.9,42.9c1.2-0.1,2.4-0.1,3.7-0.1
		c5.8,0,11.4,0.8,16.6,2.4C-123.3,325.7-121,337.4-121,349.7z"/>
	<path id="XMLID_55_" class="st3" d="M-138.6,349.7c0,14-3.6,27.1-9.9,38.6c-2,3.6-4.2,7.1-6.7,10.3c-14.6,19-37.6,31.2-63.4,31.2
		c-44.2,0-80.1-35.8-80.1-80.1c0-44.2,35.9-80.1,80.1-80.1C-174.5,269.6-138.6,305.5-138.6,349.7z"/>
	<circle id="XMLID_5_" class="st4" cx="-130.2" cy="340.8" r="8.8"/>
	<circle id="XMLID_10_" class="st5" cx="-220.3" cy="350.9" r="62"/>
	<circle id="XMLID_7_" class="st4" cx="-218.7" cy="349.7" r="62"/>
	<path id="XMLID_31_" class="st6" d="M-218.7,294.9v38.5c9,0,16.3,7.3,16.3,16.3h38.5C-163.9,319.4-188.4,294.9-218.7,294.9z"/>
	<path id="XMLID_11_" class="st6" d="M-218.7,404.5V366c-9,0-16.3-7.3-16.3-16.3h-38.5C-273.5,380-248.9,404.5-218.7,404.5z"/>
	<path id="XMLID_41_" class="st3" d="M-148.5,388.3c-2,3.6-4.2,7.1-6.7,10.3c-1,0.2-2.1,0.2-3.1-0.1l-44.8-13
		c-2.4-0.7-3.8-3.4-3.2-6.2c0.5-2.5,2.6-4.4,4.9-4.4c0.2,0,0.4,0,0.6,0l46.2,6.5C-151.4,381.9-149,384.8-148.5,388.3z"/>
	<polygon id="XMLID_8_" class="st4" points="-182.5,377.5 -145.3,382.7 -171.7,371.6 	"/>
	<circle id="XMLID_3_" class="st0" cx="-218.7" cy="349.7" r="10.8"/>
	<circle id="XMLID_6_" class="st4" cx="-141.8" cy="394.1" r="3.5"/>
</g>
</svg>
