<?xml version="1.0" encoding="utf-8"?>
<!-- Generator: Adobe Illustrator 19.0.0, SVG Export Plug-In . SVG Version: 6.00 Build 0)  -->
<svg version="1.1" id="Layer_1" xmlns="http://www.w3.org/2000/svg" xmlns:xlink="http://www.w3.org/1999/xlink" x="0px" y="0px"
	 viewBox="-219 323.5 584.3 123.5" style="enable-background:new -219 323.5 584.3 123.5;" xml:space="preserve">
<style type="text/css">
	.st0{fill:#238648;}
</style>
<g id="XMLID_80_">
	<path id="XMLID_79_" class="st0" d="M-203.7,418.3c4.2,1.6,7.9,2.7,11.1,3.4c3.2,0.6,6.3,0.9,9.1,0.9c3.3,0,5.7-0.7,7.3-2.1
		c1.5-1.4,2.3-2.9,2.3-4.6c0-2-0.8-3.6-2.4-5c-1.6-1.3-3.6-2.6-6-3.8c-2.4-1.2-5-2.3-7.8-3.5c-2.8-1.1-5.4-2.5-7.9-4.1
		c-2.4-1.7-4.4-3.7-6-6c-1.6-2.4-2.4-5.4-2.4-8.9c0-2.1,0.4-4.4,1.3-6.8c0.9-2.4,2.3-4.5,4.2-6.4c2-1.9,4.5-3.5,7.7-4.8
		c3.2-1.5,7.1-2.1,11.6-2.1c3,0,6.2,0.2,9.3,0.7c3.2,0.4,6.9,1.4,11.2,2.8l-4.3,12.1c-3.5-0.9-6.3-1.5-8.5-1.8
		c-2.1-0.3-4.3-0.5-6.6-0.5c-2.6,0-4.6,0.5-6.1,1.5s-2.2,2.5-2.2,4.4c0,1.9,0.8,3.5,2.4,4.8s3.6,2.6,6,3.8c2.4,1.2,5,2.4,7.8,3.6
		c2.8,1.3,5.4,2.7,7.8,4.4c2.4,1.7,4.4,3.7,6,6.1c1.6,2.4,2.4,5.3,2.4,8.8c0,3.2-0.7,6.2-2,8.8s-3.1,4.9-5.4,6.7
		c-2.2,1.8-4.8,3.2-7.7,4.2c-2.9,1-5.9,1.5-9.1,1.5c-3.5,0-7.5-0.3-12-0.9s-9.7-2.2-15.7-4.7L-203.7,418.3z"/>
	<path id="XMLID_162_" class="st0" d="M-139.5,379h-11.2v-10.6l11.1-2.7v-16.5l17.7-5.8v65.1c0,4.6,1,8.1,2.9,10.7
		c1.9,2.6,4.5,3.8,7.6,3.8c1.3,0,2.7-0.1,4.4-0.4c1.7-0.3,3.6-0.8,6-1.6l3.9,12.2c-3.4,1.2-6.4,2.1-8.9,2.7
		c-2.6,0.6-4.9,0.9-7.2,0.9c-8.6,0-15.1-2.4-19.6-7.3c-4.5-4.8-6.7-11.9-6.7-21.1L-139.5,379L-139.5,379z M-103.8,379
		c-2,0-3.7-0.4-5.2-1.3c-1.5-0.9-2.8-1.9-3.8-3.2c-1.1-1.3-2-2.7-2.7-4.2c-0.7-1.6-1.3-3.1-1.7-4.6h19.5V379H-103.8z"/>
	<path id="XMLID_498_" class="st0" d="M-15.8,400.3c0,5.7-1.1,10.9-3.2,15.4c-2.1,4.5-4.8,8.4-8.2,11.5c-3.4,3.1-7.2,5.5-11.6,7.2
		c-4.3,1.7-8.7,2.5-13.1,2.5c-4.7,0-9.3-0.8-13.6-2.4s-8.2-4-11.5-7.1s-6-6.9-7.9-11.5c-2-4.6-3-9.8-3-15.6c0-6.3,1.1-11.7,3.4-16.3
		c2.3-4.6,5.2-8.4,8.7-11.3c3.5-3,7.4-5.1,11.7-6.6c4.3-1.4,8.3-2.1,12.2-2.1c5.4,0,10.3,0.9,14.6,2.7c4.4,1.8,8.2,4.3,11.4,7.5
		s5.6,7.1,7.4,11.5S-15.8,395-15.8,400.3z M-51.8,423c2.6,0,4.9-0.6,6.9-1.8c2-1.2,3.7-2.8,5-4.9c1.3-2,2.4-4.4,3-7.2
		c0.7-2.8,1-5.7,1-8.8c0-3.1-0.3-6-1-8.7c-0.7-2.7-1.7-5.1-3-7.1s-3-3.7-5-4.9c-2-1.2-4.3-1.8-6.9-1.8c-2.6,0-4.9,0.6-6.9,1.8
		c-2,1.2-3.7,2.8-5,4.9c-1.3,2-2.4,4.4-3.1,7.1c-0.7,2.7-1.1,5.6-1.1,8.7c0,3.4,0.4,6.5,1.1,9.2c0.8,2.8,1.8,5.1,3.2,7.1
		s3.1,3.6,5.1,4.7C-56.5,422.5-54.2,423-51.8,423z"/>
	<path id="XMLID_543_" class="st0" d="M10.5,365.7c0.7,0.6,1.5,1.9,2.4,3.7c0.8,1.8,1.5,3.9,1.8,6.2l0.3,3.2l1.3-3.2
		c1.8-3.6,4.1-6.4,7.1-8.3c2.9-2,5.8-3,8.7-3c2.6,0,5.5,0.5,8.7,1.6l-2.1,15.2c-1.8-0.5-3.3-0.9-4.5-1.1s-2.3-0.3-3.4-0.3
		c-2.3,0-4.4,0.6-6.2,1.7c-1.8,1.2-3.3,2.8-4.6,4.8s-2.2,4.4-2.9,7.3c-0.7,2.8-1,5.9-1,9.2v32.4H-1.5v-52.5c0-2.5-0.2-5.2-0.5-8
		c-0.3-2.8-0.9-5.8-1.7-8.9C-3.7,365.7,10.5,365.7,10.5,365.7z"/>
	<path id="XMLID_586_" class="st0" d="M94.2,392.5c0.3-2.1,0.2-4-0.3-5.9c-0.4-1.9-1.2-3.5-2.2-5c-1-1.4-2.3-2.6-3.9-3.4
		c-1.6-0.9-3.4-1.3-5.4-1.3c-1.9,0-3.7,0.4-5.6,1.2c-1.8,0.8-3.5,2.1-5,3.8c-1.5,1.7-2.8,4-3.7,6.7c-0.9,2.7-1.4,6-1.4,9.9
		c0,7.8,1.7,13.8,5.2,18.1c3.5,4.3,8.1,6.4,13.7,6.4c3.1,0,6.2-0.4,9.2-1.1c3-0.8,6.5-2,10.4-3.8l4.7,12.5c-4.8,2.3-9.4,4-13.6,4.9
		c-4.3,0.9-8.5,1.4-12.7,1.4c-6.2,0-11.5-1.1-15.9-3.4c-4.4-2.2-8.1-5.1-11-8.7c-2.9-3.5-5.1-7.5-6.4-12c-1.4-4.5-2.1-9-2.1-13.6
		c0-5.6,0.9-10.5,2.8-14.9c1.8-4.4,4.3-8.1,7.5-11.1s6.9-5.3,11.2-6.9c4.3-1.6,8.9-2.4,13.7-2.4c4.9,0,9.4,1,13.6,3
		c4.1,2,7.4,4.7,9.9,8.2s4.1,7.7,4.6,12.6c0.6,4.9-0.1,10.2-2.1,15.9H71.8c1-3.1,2.4-5.8,4.2-7.9c1.8-2.1,3.9-3.2,6.2-3.2
		C82.2,392.5,94.2,392.5,94.2,392.5z"/>
	<path id="XMLID_588_" class="st0" d="M162.1,378c-1.5,0.1-2.8-0.2-3.9-0.7c-1.1-0.6-2-1.3-2.8-2.3c-0.8-0.9-1.6-2.1-2.3-3.4
		c-0.7-1.3-1.4-2.6-2-4c2.6-1.1,5.2-1.9,7.9-2.4c2.6-0.5,5.1-0.8,7.5-0.8c4.3,0,8.1,1,11.6,3c3.4,2,6.3,4.5,8.7,7.7
		c2.4,3.2,4.2,6.8,5.5,10.7c1.3,4,1.9,8,1.9,12c0,5.5-0.9,10.6-2.6,15.4c-1.7,4.8-4.2,9-7.4,12.5c-3.2,3.5-7.1,6.3-11.7,8.3
		s-9.7,3-15.3,3c-4.9,0-9.7-0.6-14.4-1.7c-4.7-1.1-9.7-3.1-15.2-6v-96h18.8v88.6c2,0.5,3.9,0.9,5.6,1.1s3.4,0.3,5.2,0.3
		c2.6,0,4.9-0.6,7-1.9c2.1-1.3,3.9-3,5.3-5.2c1.5-2.2,2.6-4.9,3.3-8.1c0.8-3.1,1.1-6.5,1.1-10.2c0-2.1-0.2-4.4-0.6-6.8
		s-1.1-4.5-2-6.5s-2.2-3.6-3.7-4.8C166.3,378.5,164.4,378,162.1,378z"/>
	<path id="XMLID_590_" class="st0" d="M207.5,345.5c0-3.1,1.1-5.8,3.2-8s4.7-3.3,7.9-3.3c3.1,0,5.8,1.1,7.9,3.3s3.2,4.9,3.2,8
		s-1.1,5.8-3.2,7.9s-4.7,3.2-7.9,3.2c-3.1,0-5.8-1.1-7.9-3.2S207.5,348.7,207.5,345.5z M209.1,435.1v-69.4h18.8v69.4
		C227.9,435.1,209.1,435.1,209.1,435.1z"/>
	<path id="XMLID_597_" class="st0" d="M251.3,379h-11.2v-10.6l11.2-2.7v-16.5l17.7-5.8v65.1c0,4.6,1,8.1,2.9,10.7
		c1.9,2.6,4.5,3.8,7.6,3.8c1.3,0,2.7-0.1,4.4-0.4c1.7-0.3,3.6-0.8,6-1.6l3.9,12.2c-3.4,1.2-6.4,2.1-8.9,2.7
		c-2.6,0.6-4.9,0.9-7.2,0.9c-8.6,0-15.1-2.4-19.6-7.3c-4.5-4.8-6.7-11.9-6.7-21.1L251.3,379L251.3,379z M287,379
		c-2,0-3.7-0.4-5.2-1.3c-1.5-0.9-2.8-1.9-3.8-3.2c-1.1-1.3-2-2.7-2.7-4.2c-0.7-1.6-1.3-3.1-1.7-4.6h19.5V379H287z"/>
	<path id="XMLID_600_" class="st0" d="M306.8,418.3c4.2,1.6,7.9,2.7,11.2,3.4c3.2,0.6,6.3,0.9,9.1,0.9c3.3,0,5.7-0.7,7.3-2.1
		c1.5-1.4,2.3-2.9,2.3-4.6c0-2-0.8-3.6-2.4-5c-1.6-1.3-3.6-2.6-6-3.8c-2.4-1.2-5-2.3-7.8-3.5s-5.4-2.6-7.8-4.2c-2.4-1.7-4.4-3.7-6-6
		c-1.6-2.4-2.4-5.4-2.4-8.9c0-2.1,0.4-4.4,1.3-6.8c0.8-2.4,2.3-4.5,4.2-6.4c1.9-1.9,4.5-3.5,7.7-4.8c3.2-1.3,7.1-1.9,11.6-1.9
		c3,0,6.2,0.2,9.3,0.7c3.2,0.4,6.9,1.4,11.2,2.8l-4.3,12.1c-3.5-0.9-6.3-1.5-8.5-1.8c-2.1-0.3-4.3-0.5-6.6-0.5
		c-2.6,0-4.6,0.5-6.1,1.5s-2.2,2.5-2.2,4.4c0,1.9,0.8,3.5,2.4,4.8c1.6,1.3,3.6,2.6,6,3.8c2.4,1.2,5,2.4,7.8,3.6
		c2.8,1.3,5.4,2.7,7.8,4.4c2.4,1.7,4.4,3.7,6,6.1c1.6,2.4,2.4,5.3,2.4,8.8c0,3.2-0.7,6.2-2,8.8s-3.1,4.9-5.4,6.7
		c-2.2,1.8-4.8,3.2-7.7,4.2s-5.9,1.5-9.1,1.5c-3.5,0-7.5-0.3-12-0.9s-9.7-2.2-15.7-4.7L306.8,418.3z"/>
</g>
</svg>
