<?xml version="1.0" encoding="utf-8"?>
<!-- Generator: Adobe Illustrator 19.0.0, SVG Export Plug-In . SVG Version: 6.00 Build 0)  -->
<svg version="1.1" id="Layer_1" xmlns="http://www.w3.org/2000/svg" xmlns:xlink="http://www.w3.org/1999/xlink" x="0px" y="0px"
	 viewBox="0 0 584.3 123.5" style="enable-background:new 0 0 584.3 123.5;" xml:space="preserve">
<style type="text/css">
	.st0{fill:#511A56;}
</style>
<g id="XMLID_80_">
	<path id="XMLID_79_" class="st0" d="M15.3,94.8c4.2,1.6,7.9,2.7,11.1,3.4c3.2,0.6,6.3,0.9,9.1,0.9c3.3,0,5.7-0.7,7.3-2.1
		c1.5-1.4,2.3-2.9,2.3-4.6c0-2-0.8-3.6-2.4-5c-1.6-1.3-3.6-2.6-6-3.8c-2.4-1.2-5-2.3-7.8-3.5C26.1,79,23.5,77.6,21,76
		c-2.4-1.7-4.4-3.7-6-6c-1.6-2.4-2.4-5.4-2.4-8.9c0-2.1,0.4-4.4,1.3-6.8c0.9-2.4,2.3-4.5,4.2-6.4c2-1.9,4.5-3.5,7.7-4.8
		C29,41.6,32.9,41,37.4,41c3,0,6.2,0.2,9.3,0.7c3.2,0.4,6.9,1.4,11.2,2.8l-4.3,12.1c-3.5-0.9-6.3-1.5-8.5-1.8
		c-2.1-0.3-4.3-0.5-6.6-0.5c-2.6,0-4.6,0.5-6.1,1.5c-1.5,1-2.2,2.5-2.2,4.4c0,1.9,0.8,3.5,2.4,4.8c1.6,1.3,3.6,2.6,6,3.8
		c2.4,1.2,5,2.4,7.8,3.6c2.8,1.3,5.4,2.7,7.8,4.4c2.4,1.7,4.4,3.7,6,6.1c1.6,2.4,2.4,5.3,2.4,8.8c0,3.2-0.7,6.2-2,8.8
		c-1.3,2.6-3.1,4.9-5.4,6.7c-2.2,1.8-4.8,3.2-7.7,4.2c-2.9,1-5.9,1.5-9.1,1.5c-3.5,0-7.5-0.3-12-0.9c-4.5-0.6-9.7-2.2-15.7-4.7
		L15.3,94.8z"/>
	<path id="XMLID_162_" class="st0" d="M79.5,55.5H68.3V44.9l11.1-2.7V25.7l17.7-5.8V85c0,4.6,1,8.1,2.9,10.7
		c1.9,2.6,4.5,3.8,7.6,3.8c1.3,0,2.7-0.1,4.4-0.4c1.7-0.3,3.6-0.8,6-1.6l3.9,12.2c-3.4,1.2-6.4,2.1-8.9,2.7
		c-2.6,0.6-4.9,0.9-7.2,0.9c-8.6,0-15.1-2.4-19.6-7.3c-4.5-4.8-6.7-11.9-6.7-21.1V55.5z M115.2,55.5c-2,0-3.7-0.4-5.2-1.3
		c-1.5-0.9-2.8-1.9-3.8-3.2c-1.1-1.3-2-2.7-2.7-4.2c-0.7-1.6-1.3-3.1-1.7-4.6h19.5v13.3H115.2z"/>
	<path id="XMLID_498_" class="st0" d="M203.2,76.8c0,5.7-1.1,10.9-3.2,15.4c-2.1,4.5-4.8,8.4-8.2,11.5c-3.4,3.1-7.2,5.5-11.6,7.2
		c-4.3,1.7-8.7,2.5-13.1,2.5c-4.7,0-9.3-0.8-13.6-2.4c-4.3-1.6-8.2-4-11.5-7.1c-3.3-3.1-6-6.9-7.9-11.5c-2-4.6-3-9.8-3-15.6
		c0-6.3,1.1-11.7,3.4-16.3c2.3-4.6,5.2-8.4,8.7-11.3c3.5-3,7.4-5.1,11.7-6.6c4.3-1.4,8.3-2.1,12.2-2.1c5.4,0,10.3,0.9,14.6,2.7
		c4.4,1.8,8.2,4.3,11.4,7.5c3.2,3.2,5.6,7.1,7.4,11.5S203.2,71.5,203.2,76.8z M167.2,99.5c2.6,0,4.9-0.6,6.9-1.8
		c2-1.2,3.7-2.8,5-4.9c1.3-2,2.4-4.4,3-7.2c0.7-2.8,1-5.7,1-8.8c0-3.1-0.3-6-1-8.7s-1.7-5.1-3-7.1c-1.3-2-3-3.7-5-4.9
		c-2-1.2-4.3-1.8-6.9-1.8c-2.6,0-4.9,0.6-6.9,1.8c-2,1.2-3.7,2.8-5,4.9c-1.3,2-2.4,4.4-3.1,7.1c-0.7,2.7-1.1,5.6-1.1,8.7
		c0,3.4,0.4,6.5,1.1,9.2c0.8,2.8,1.8,5.1,3.2,7.1c1.4,2,3.1,3.6,5.1,4.7C162.5,99,164.8,99.5,167.2,99.5z"/>
	<path id="XMLID_543_" class="st0" d="M229.5,42.2c0.7,0.6,1.5,1.9,2.4,3.7c0.8,1.8,1.5,3.9,1.8,6.2l0.3,3.2l1.3-3.2
		c1.8-3.6,4.1-6.4,7.1-8.3c2.9-2,5.8-3,8.7-3c2.6,0,5.5,0.5,8.7,1.6l-2.1,15.2c-1.8-0.5-3.3-0.9-4.5-1.1c-1.2-0.2-2.3-0.3-3.4-0.3
		c-2.3,0-4.4,0.6-6.2,1.7c-1.8,1.2-3.3,2.8-4.6,4.8c-1.3,2-2.2,4.4-2.9,7.3c-0.7,2.8-1,5.9-1,9.2v32.4h-17.6V59.1
		c0-2.5-0.2-5.2-0.5-8c-0.3-2.8-0.9-5.8-1.7-8.9H229.5z"/>
	<path id="XMLID_586_" class="st0" d="M313.2,69c0.3-2.1,0.2-4-0.3-5.9c-0.4-1.9-1.2-3.5-2.2-5c-1-1.4-2.3-2.6-3.9-3.4
		c-1.6-0.9-3.4-1.3-5.4-1.3c-1.9,0-3.7,0.4-5.6,1.2c-1.8,0.8-3.5,2.1-5,3.8c-1.5,1.7-2.8,4-3.7,6.7c-0.9,2.7-1.4,6-1.4,9.9
		c0,7.8,1.7,13.8,5.2,18.1c3.5,4.3,8.1,6.4,13.7,6.4c3.1,0,6.2-0.4,9.2-1.1c3-0.8,6.5-2,10.4-3.8l4.7,12.5c-4.8,2.3-9.4,4-13.6,4.9
		c-4.3,0.9-8.5,1.4-12.7,1.4c-6.2,0-11.5-1.1-15.9-3.4c-4.4-2.2-8.1-5.1-11-8.7c-2.9-3.5-5.1-7.5-6.4-12c-1.4-4.5-2.1-9-2.1-13.6
		c0-5.6,0.9-10.5,2.8-14.9c1.8-4.4,4.3-8.1,7.5-11.1c3.2-3,6.9-5.3,11.2-6.9c4.3-1.6,8.9-2.4,13.7-2.4c4.9,0,9.4,1,13.6,3
		c4.1,2,7.4,4.7,9.9,8.2c2.5,3.5,4.1,7.7,4.6,12.6c0.6,4.9-0.1,10.2-2.1,15.9h-37.6c1-3.1,2.4-5.8,4.2-7.9c1.8-2.1,3.9-3.2,6.2-3.2
		H313.2z"/>
	<path id="XMLID_588_" class="st0" d="M381.1,54.5c-1.5,0.1-2.8-0.2-3.9-0.7c-1.1-0.6-2-1.3-2.8-2.3c-0.8-0.9-1.6-2.1-2.3-3.4
		c-0.7-1.3-1.4-2.6-2-4c2.6-1.1,5.2-1.9,7.9-2.4c2.6-0.5,5.1-0.8,7.5-0.8c4.3,0,8.1,1,11.6,3c3.4,2,6.3,4.5,8.7,7.7
		c2.4,3.2,4.2,6.8,5.5,10.7c1.3,4,1.9,8,1.9,12c0,5.5-0.9,10.6-2.6,15.4c-1.7,4.8-4.2,9-7.4,12.5c-3.2,3.5-7.1,6.3-11.7,8.3
		c-4.6,2-9.7,3-15.3,3c-4.9,0-9.7-0.6-14.4-1.7c-4.7-1.1-9.7-3.1-15.2-6V9.8h18.8v88.6c2,0.5,3.9,0.9,5.6,1.1
		c1.7,0.2,3.4,0.3,5.2,0.3c2.6,0,4.9-0.6,7-1.9c2.1-1.3,3.9-3,5.3-5.2c1.5-2.2,2.6-4.9,3.3-8.1c0.8-3.1,1.1-6.5,1.1-10.2
		c0-2.1-0.2-4.4-0.6-6.8c-0.4-2.4-1.1-4.5-2-6.5c-0.9-2-2.2-3.6-3.7-4.8C385.3,55,383.4,54.5,381.1,54.5z"/>
	<path id="XMLID_590_" class="st0" d="M426.5,22c0-3.1,1.1-5.8,3.2-8c2.1-2.2,4.7-3.3,7.9-3.3c3.1,0,5.8,1.1,7.9,3.3
		c2.1,2.2,3.2,4.9,3.2,8c0,3.1-1.1,5.8-3.2,7.9c-2.1,2.1-4.7,3.2-7.9,3.2c-3.1,0-5.8-1.1-7.9-3.2C427.6,27.8,426.5,25.2,426.5,22z
		 M428.1,111.6V42.2h18.8v69.4H428.1z"/>
	<path id="XMLID_597_" class="st0" d="M470.3,55.5h-11.2V44.9l11.2-2.7V25.7l17.7-5.8V85c0,4.6,1,8.1,2.9,10.7
		c1.9,2.6,4.5,3.8,7.6,3.8c1.3,0,2.7-0.1,4.4-0.4c1.7-0.3,3.6-0.8,6-1.6l3.9,12.2c-3.4,1.2-6.4,2.1-8.9,2.7
		c-2.6,0.6-4.9,0.9-7.2,0.9c-8.6,0-15.1-2.4-19.6-7.3c-4.5-4.8-6.7-11.9-6.7-21.1V55.5z M506,55.5c-2,0-3.7-0.4-5.2-1.3
		c-1.5-0.9-2.8-1.9-3.8-3.2c-1.1-1.3-2-2.7-2.7-4.2c-0.7-1.6-1.3-3.1-1.7-4.6h19.5v13.3H506z"/>
	<path id="XMLID_600_" class="st0" d="M525.8,94.8c4.2,1.6,7.9,2.7,11.2,3.4c3.2,0.6,6.3,0.9,9.1,0.9c3.3,0,5.7-0.7,7.3-2.1
		c1.5-1.4,2.3-2.9,2.3-4.6c0-2-0.8-3.6-2.4-5c-1.6-1.3-3.6-2.6-6-3.8c-2.4-1.2-5-2.3-7.8-3.5c-2.8-1.2-5.4-2.6-7.8-4.2
		c-2.4-1.7-4.4-3.7-6-6c-1.6-2.4-2.4-5.4-2.4-8.9c0-2.1,0.4-4.4,1.3-6.8c0.8-2.4,2.3-4.5,4.2-6.4s4.5-3.5,7.7-4.8
		c3.2-1.3,7.1-1.9,11.6-1.9c3,0,6.2,0.2,9.3,0.7c3.2,0.4,6.9,1.4,11.2,2.8l-4.3,12.1c-3.5-0.9-6.3-1.5-8.5-1.8
		c-2.1-0.3-4.3-0.5-6.6-0.5c-2.6,0-4.6,0.5-6.1,1.5c-1.5,1-2.2,2.5-2.2,4.4c0,1.9,0.8,3.5,2.4,4.8c1.6,1.3,3.6,2.6,6,3.8
		c2.4,1.2,5,2.4,7.8,3.6c2.8,1.3,5.4,2.7,7.8,4.4c2.4,1.7,4.4,3.7,6,6.1c1.6,2.4,2.4,5.3,2.4,8.8c0,3.2-0.7,6.2-2,8.8
		c-1.3,2.6-3.1,4.9-5.4,6.7c-2.2,1.8-4.8,3.2-7.7,4.2c-2.9,1-5.9,1.5-9.1,1.5c-3.5,0-7.5-0.3-12-0.9c-4.5-0.6-9.7-2.2-15.7-4.7
		L525.8,94.8z"/>
</g>
</svg>
