<?xml version="1.0" encoding="utf-8"?>
<!-- Generator: Adobe Illustrator 19.0.0, SVG Export Plug-In . SVG Version: 6.00 Build 0)  -->
<svg version="1.1" id="Layer_1" xmlns="http://www.w3.org/2000/svg" xmlns:xlink="http://www.w3.org/1999/xlink" x="0px" y="0px"
	 viewBox="0 0 298.7 239.2" style="enable-background:new 0 0 298.7 239.2;" xml:space="preserve">
<style type="text/css">
	.st0{fill:#511A56;}
	.st1{fill:#8A1B50;}
	.st2{fill:#C94427;}
	.st3{fill:#F7981D;}
	.st4{fill:#FFFFFF;}
	.st5{opacity:0.2;fill:#5B3860;}
	.st6{fill:#F6F7F7;}
	.st7{opacity:5.000000e-002;fill:#511A56;}
</style>
<g>
	<g id="XMLID_69_">
		<path id="XMLID_492_" class="st0" d="M276.6,105.4c0,28.8-20.7,52.7-48,57.7c-1.7,0.3-3.4,0.5-5.2,0.7v0.3H71.3
			c-5,0-9.7-0.7-14.3-2.1c-19.4-5.9-33.7-23.4-34.8-44.4c-0.1-0.9-0.1-1.8-0.1-2.7c0-8,1.9-15.5,5.2-22.1c4.3-8.4,10.9-15.5,19-20.2
			c5.7-3.4,12.1-5.6,19-6.4c8.1-35.6,40-62.1,78-62.1c30.8,0,57.5,17.4,70.9,42.9c1.2-0.1,2.4-0.1,3.7-0.1c5.8,0,11.4,0.8,16.6,2.4
			c8.7,2.6,16.5,7.1,23,13C269.2,72.8,276.6,88.2,276.6,105.4z"/>
		<path id="XMLID_489_" class="st1" d="M259.6,84c0,30.5-11.8,58.3-31,79.1c-1.7,0.3-3.4,0.5-5.2,0.7v0.3H71.3
			c-5,0-9.7-0.7-14.3-2.1c-16.8-18.6-27.7-42.6-29.7-69.2c7.2-14.3,21.3-24.7,37.9-26.7c8.1-35.6,40-62.1,78-62.1
			c30.8,0,57.5,17.4,70.9,42.9c1.2-0.1,2.4-0.1,3.7-0.1c15.3,0,29.2,5.8,39.6,15.4C258.9,69.2,259.6,76.5,259.6,84z"/>
		<path id="XMLID_486_" class="st2" d="M240.9,84c0,33.1-16.5,62.4-41.7,80H87.4c-25.2-17.6-41.7-46.9-41.7-80
			c0-3.9,0.2-7.7,0.7-11.5c5.7-3.4,12.1-5.6,19-6.4c8.1-35.6,40-62.1,78-62.1c30.8,0,57.5,17.4,70.9,42.9c1.2-0.1,2.4-0.1,3.7-0.1
			c5.8,0,11.4,0.8,16.6,2.4C238.7,59.9,240.9,71.7,240.9,84z"/>
		<path id="XMLID_483_" class="st3" d="M223.4,84c0,14-3.6,27.1-9.9,38.6c-2,3.6-4.2,7-6.7,10.3c-14.6,19-37.6,31.2-63.4,31.2
			c-44.2,0-80.1-35.8-80.1-80c0-44.2,35.8-80.1,80.1-80.1C187.5,3.9,223.4,39.8,223.4,84z"/>
		<circle id="XMLID_482_" class="st4" cx="231.8" cy="75.1" r="8.8"/>
		<circle id="XMLID_479_" class="st5" cx="141.7" cy="85.1" r="62"/>
		<circle id="XMLID_476_" class="st6" cx="143.3" cy="84" r="62"/>
		<path id="XMLID_470_" class="st7" d="M143.3,29.2v38.5c9,0,16.3,7.3,16.3,16.3h38.5C198.1,53.7,173.6,29.2,143.3,29.2z"/>
		<path id="XMLID_192_" class="st7" d="M143.3,138.8v-38.5c-9,0-16.3-7.3-16.3-16.3H88.5C88.5,114.2,113,138.8,143.3,138.8z"/>
		<path id="XMLID_174_" class="st3" d="M213.4,122.6c-2,3.6-4.2,7-6.7,10.3c-1,0.2-2.1,0.2-3.1-0.1l-44.8-13
			c-2.4-0.7-3.8-3.4-3.2-6.2c0.5-2.5,2.6-4.4,4.9-4.4c0.2,0,0.4,0,0.6,0l46.2,6.5C210.6,116.2,213,119,213.4,122.6z"/>
		<polygon id="XMLID_173_" class="st6" points="179.4,111.8 216.7,116.9 190.3,105.9 		"/>
		<circle id="XMLID_161_" class="st0" cx="143.3" cy="84" r="10.8"/>
		<circle id="XMLID_119_" class="st4" cx="220.2" cy="128.4" r="3.5"/>
	</g>
	<g id="XMLID_80_">
		<path id="XMLID_79_" class="st0" d="M6.9,225.6c2.2,0.8,4.1,1.4,5.7,1.7c1.7,0.3,3.2,0.5,4.7,0.5c1.7,0,2.9-0.4,3.7-1.1
			c0.8-0.7,1.2-1.5,1.2-2.4c0-1-0.4-1.9-1.2-2.6c-0.8-0.7-1.9-1.3-3.1-1.9c-1.2-0.6-2.6-1.2-4-1.8c-1.4-0.6-2.8-1.3-4-2.2
			c-1.2-0.9-2.3-1.9-3.1-3.1c-0.8-1.2-1.2-2.8-1.2-4.6c0-1.1,0.2-2.3,0.7-3.5c0.4-1.2,1.2-2.3,2.2-3.3c1-1,2.3-1.8,4-2.5
			c1.6-0.7,3.6-1,6-1c1.6,0,3.2,0.1,4.8,0.3c1.6,0.2,3.6,0.7,5.8,1.5l-2.2,6.2c-1.8-0.5-3.2-0.8-4.4-0.9c-1.1-0.2-2.2-0.2-3.4-0.2
			c-1.3,0-2.4,0.3-3.1,0.8c-0.8,0.5-1.1,1.3-1.1,2.2c0,1,0.4,1.8,1.2,2.5c0.8,0.7,1.9,1.3,3.1,1.9c1.2,0.6,2.6,1.2,4,1.9
			c1.4,0.6,2.8,1.4,4,2.3c1.2,0.9,2.3,1.9,3.1,3.1c0.8,1.2,1.2,2.7,1.2,4.5c0,1.7-0.3,3.2-1,4.5c-0.7,1.4-1.6,2.5-2.8,3.5
			c-1.2,0.9-2.5,1.7-4,2.2c-1.5,0.5-3.1,0.8-4.7,0.8c-1.8,0-3.8-0.2-6.2-0.5c-2.3-0.3-5-1.1-8.1-2.4L6.9,225.6z"/>
		<path id="XMLID_162_" class="st0" d="M39.9,205.4h-5.7v-5.5l5.7-1.4V190l9.1-3v33.5c0,2.4,0.5,4.2,1.5,5.5c1,1.3,2.3,2,3.9,2
			c0.6,0,1.4-0.1,2.2-0.2c0.9-0.1,1.9-0.4,3.1-0.8l2,6.3c-1.8,0.6-3.3,1.1-4.6,1.4c-1.3,0.3-2.5,0.5-3.7,0.5
			c-4.4,0-7.8-1.2-10.1-3.7c-2.3-2.5-3.5-6.1-3.5-10.8V205.4z M58.3,205.4c-1,0-1.9-0.2-2.7-0.7c-0.8-0.4-1.4-1-2-1.6
			c-0.6-0.6-1-1.4-1.4-2.2c-0.4-0.8-0.7-1.6-0.9-2.4h10v6.8H58.3z"/>
		<path id="XMLID_498_" class="st0" d="M103.6,216.4c0,2.9-0.5,5.6-1.6,7.9c-1.1,2.3-2.5,4.3-4.2,5.9c-1.7,1.6-3.7,2.8-5.9,3.7
			c-2.2,0.9-4.5,1.3-6.7,1.3c-2.4,0-4.8-0.4-7-1.2c-2.2-0.8-4.2-2-5.9-3.6c-1.7-1.6-3.1-3.6-4.1-5.9c-1-2.3-1.5-5-1.5-8
			c0-3.2,0.6-6,1.8-8.4c1.2-2.4,2.7-4.3,4.5-5.8c1.8-1.5,3.8-2.6,6-3.4c2.2-0.7,4.3-1.1,6.3-1.1c2.8,0,5.3,0.5,7.5,1.4
			c2.3,0.9,4.2,2.2,5.8,3.9c1.6,1.7,2.9,3.6,3.8,5.9S103.6,213.6,103.6,216.4z M85,228.1c1.3,0,2.5-0.3,3.6-0.9
			c1-0.6,1.9-1.5,2.6-2.5c0.7-1.1,1.2-2.3,1.6-3.7c0.3-1.4,0.5-2.9,0.5-4.5c0-1.6-0.2-3.1-0.5-4.5c-0.3-1.4-0.9-2.6-1.6-3.7
			c-0.7-1.1-1.6-1.9-2.6-2.5c-1-0.6-2.2-0.9-3.6-0.9c-1.3,0-2.5,0.3-3.6,0.9c-1,0.6-1.9,1.5-2.6,2.5c-0.7,1.1-1.2,2.3-1.6,3.7
			c-0.4,1.4-0.6,2.9-0.6,4.5c0,1.7,0.2,3.3,0.6,4.7c0.4,1.4,0.9,2.6,1.7,3.7c0.7,1,1.6,1.8,2.6,2.4C82.6,227.8,83.8,228.1,85,228.1z
			"/>
		<path id="XMLID_543_" class="st0" d="M117.1,198.5c0.4,0.3,0.8,1,1.2,1.9c0.4,0.9,0.7,2,0.9,3.2l0.1,1.7l0.7-1.7
			c0.9-1.8,2.1-3.3,3.6-4.3c1.5-1,3-1.5,4.5-1.5c1.3,0,2.8,0.3,4.5,0.8l-1.1,7.8c-0.9-0.3-1.7-0.5-2.3-0.6c-0.6-0.1-1.2-0.1-1.8-0.1
			c-1.2,0-2.3,0.3-3.2,0.9c-0.9,0.6-1.7,1.4-2.3,2.5c-0.6,1-1.1,2.3-1.5,3.7c-0.3,1.5-0.5,3-0.5,4.7v16.7h-9.1v-27
			c0-1.3-0.1-2.7-0.2-4.1c-0.2-1.5-0.4-3-0.9-4.6H117.1z"/>
		<path id="XMLID_586_" class="st0" d="M160.1,212.4c0.1-1.1,0.1-2.1-0.1-3s-0.6-1.8-1.1-2.6c-0.5-0.7-1.2-1.3-2-1.8
			c-0.8-0.4-1.7-0.7-2.8-0.7c-1,0-1.9,0.2-2.9,0.6c-0.9,0.4-1.8,1.1-2.6,2c-0.8,0.9-1.4,2.1-1.9,3.5c-0.5,1.4-0.7,3.1-0.7,5.1
			c0,4,0.9,7.1,2.7,9.3c1.8,2.2,4.1,3.3,7,3.3c1.6,0,3.2-0.2,4.7-0.6c1.5-0.4,3.3-1,5.4-2l2.4,6.4c-2.5,1.2-4.8,2-7,2.5
			c-2.2,0.5-4.4,0.7-6.5,0.7c-3.2,0-5.9-0.6-8.2-1.7c-2.3-1.2-4.2-2.6-5.7-4.5c-1.5-1.8-2.6-3.9-3.3-6.2c-0.7-2.3-1.1-4.6-1.1-7
			c0-2.9,0.5-5.4,1.4-7.7c0.9-2.3,2.2-4.2,3.9-5.7c1.6-1.5,3.6-2.7,5.8-3.6c2.2-0.8,4.6-1.2,7-1.2c2.5,0,4.9,0.5,7,1.5
			c2.1,1,3.8,2.4,5.1,4.2c1.3,1.8,2.1,4,2.4,6.5c0.3,2.5-0.1,5.2-1.1,8.2h-19.4c0.5-1.6,1.2-3,2.2-4c0.9-1.1,2-1.6,3.2-1.6H160.1z"
			/>
		<path id="XMLID_588_" class="st0" d="M195.1,204.9c-0.8,0-1.5-0.1-2-0.4c-0.6-0.3-1-0.7-1.5-1.2c-0.4-0.5-0.8-1.1-1.2-1.7
			c-0.4-0.7-0.7-1.3-1-2c1.3-0.6,2.7-1,4-1.2c1.4-0.3,2.6-0.4,3.8-0.4c2.2,0,4.2,0.5,5.9,1.5c1.8,1,3.2,2.3,4.5,4
			c1.2,1.6,2.2,3.5,2.8,5.5c0.7,2.1,1,4.1,1,6.2c0,2.8-0.4,5.4-1.3,7.9c-0.9,2.5-2.1,4.6-3.8,6.4c-1.7,1.8-3.7,3.2-6,4.3
			c-2.4,1-5,1.6-7.9,1.6c-2.5,0-5-0.3-7.4-0.9c-2.4-0.6-5-1.6-7.8-3.1v-49.5h9.7v45.6c1.1,0.3,2,0.5,2.9,0.6
			c0.9,0.1,1.8,0.1,2.7,0.1c1.3,0,2.5-0.3,3.6-1c1.1-0.6,2-1.5,2.8-2.7c0.8-1.2,1.3-2.5,1.7-4.1c0.4-1.6,0.6-3.4,0.6-5.3
			c0-1.1-0.1-2.3-0.3-3.5c-0.2-1.2-0.6-2.3-1-3.4c-0.5-1-1.1-1.8-1.9-2.5C197.2,205.2,196.3,204.9,195.1,204.9z"/>
		<path id="XMLID_590_" class="st0" d="M218.5,188.2c0-1.6,0.5-3,1.6-4.1c1.1-1.1,2.4-1.7,4-1.7c1.6,0,3,0.6,4,1.7
			c1.1,1.1,1.6,2.5,1.6,4.1c0,1.6-0.5,3-1.6,4c-1.1,1.1-2.4,1.6-4,1.6c-1.6,0-3-0.5-4-1.6C219,191.1,218.5,189.8,218.5,188.2z
			 M219.3,234.3v-35.7h9.7v35.7H219.3z"/>
		<path id="XMLID_597_" class="st0" d="M241,205.4h-5.7v-5.5l5.7-1.4V190l9.1-3v33.5c0,2.4,0.5,4.2,1.5,5.5c1,1.3,2.3,2,3.9,2
			c0.6,0,1.4-0.1,2.2-0.2c0.9-0.1,1.9-0.4,3.1-0.8l2,6.3c-1.8,0.6-3.3,1.1-4.6,1.4c-1.3,0.3-2.5,0.5-3.7,0.5
			c-4.4,0-7.8-1.2-10.1-3.7c-2.3-2.5-3.5-6.1-3.5-10.8V205.4z M259.4,205.4c-1,0-1.9-0.2-2.7-0.7c-0.8-0.4-1.4-1-2-1.6
			c-0.6-0.6-1-1.4-1.4-2.2c-0.4-0.8-0.7-1.6-0.9-2.4h10v6.8H259.4z"/>
		<path id="XMLID_600_" class="st0" d="M269.5,225.6c2.2,0.8,4.1,1.4,5.7,1.7c1.7,0.3,3.2,0.5,4.7,0.5c1.7,0,2.9-0.4,3.7-1.1
			c0.8-0.7,1.2-1.5,1.2-2.4c0-1-0.4-1.9-1.2-2.6c-0.8-0.7-1.9-1.3-3.1-1.9c-1.2-0.6-2.6-1.2-4-1.8c-1.4-0.6-2.8-1.3-4-2.2
			c-1.2-0.9-2.3-1.9-3.1-3.1c-0.8-1.2-1.2-2.8-1.2-4.6c0-1.1,0.2-2.3,0.7-3.5c0.4-1.2,1.2-2.3,2.2-3.3s2.3-1.8,4-2.5
			c1.6-0.7,3.6-1,6-1c1.6,0,3.2,0.1,4.8,0.3c1.6,0.2,3.6,0.7,5.8,1.5l-2.2,6.2c-1.8-0.5-3.2-0.8-4.4-0.9c-1.1-0.2-2.2-0.2-3.4-0.2
			c-1.3,0-2.4,0.3-3.1,0.8c-0.8,0.5-1.1,1.3-1.1,2.2c0,1,0.4,1.8,1.2,2.5c0.8,0.7,1.9,1.3,3.1,1.9c1.2,0.6,2.6,1.2,4,1.9
			c1.4,0.6,2.8,1.4,4,2.3c1.2,0.9,2.3,1.9,3.1,3.1c0.8,1.2,1.2,2.7,1.2,4.5c0,1.7-0.3,3.2-1,4.5c-0.7,1.4-1.6,2.5-2.8,3.5
			c-1.2,0.9-2.5,1.7-4,2.2c-1.5,0.5-3.1,0.8-4.7,0.8c-1.8,0-3.8-0.2-6.1-0.5c-2.3-0.3-5-1.1-8.1-2.4L269.5,225.6z"/>
	</g>
</g>
</svg>
