<?xml version="1.0" encoding="utf-8"?>
<!-- Generator: Adobe Illustrator 19.0.0, SVG Export Plug-In . SVG Version: 6.00 Build 0)  -->
<svg version="1.1" id="Layer_1" xmlns="http://www.w3.org/2000/svg" xmlns:xlink="http://www.w3.org/1999/xlink" x="0px" y="0px"
	 viewBox="0 0 298.7 239.2" style="enable-background:new 0 0 298.7 239.2;" xml:space="preserve">
<style type="text/css">
	.st0{fill:#FFFFFF;}
</style>
<g id="XMLID_80_">
	<g>
		<path id="XMLID_193_" class="st0" d="M6.9,225.6c2.2,0.8,4.1,1.4,5.7,1.7c1.7,0.3,3.2,0.5,4.7,0.5c1.7,0,2.9-0.4,3.7-1.1
			c0.8-0.7,1.2-1.5,1.2-2.4c0-1-0.4-1.9-1.2-2.6c-0.8-0.7-1.9-1.3-3.1-1.9c-1.2-0.6-2.6-1.2-4-1.8c-1.4-0.6-2.8-1.3-4-2.2
			c-1.2-0.9-2.3-1.9-3.1-3.1c-0.8-1.2-1.2-2.8-1.2-4.6c0-1.1,0.2-2.3,0.7-3.5c0.4-1.2,1.2-2.3,2.2-3.3c1-1,2.3-1.8,4-2.5
			c1.6-0.7,3.6-1,6-1c1.6,0,3.2,0.1,4.8,0.3c1.6,0.2,3.6,0.7,5.8,1.5l-2.2,6.2c-1.8-0.5-3.2-0.8-4.4-0.9c-1.1-0.2-2.2-0.2-3.4-0.2
			c-1.3,0-2.4,0.3-3.1,0.8c-0.8,0.5-1.1,1.3-1.1,2.2c0,1,0.4,1.8,1.2,2.5c0.8,0.7,1.9,1.3,3.1,1.9c1.2,0.6,2.6,1.2,4,1.9
			c1.4,0.6,2.8,1.4,4,2.3c1.2,0.9,2.3,1.9,3.1,3.1c0.8,1.2,1.2,2.7,1.2,4.5c0,1.7-0.3,3.2-1,4.5c-0.7,1.4-1.6,2.5-2.8,3.5
			c-1.2,0.9-2.5,1.7-4,2.2c-1.5,0.5-3.1,0.8-4.7,0.8c-1.8,0-3.8-0.2-6.2-0.5c-2.3-0.3-5-1.1-8.1-2.4L6.9,225.6z"/>
		<path id="XMLID_190_" class="st0" d="M39.9,205.4h-5.7v-5.5l5.7-1.4V190l9.1-3v33.5c0,2.4,0.5,4.2,1.5,5.5c1,1.3,2.3,2,3.9,2
			c0.6,0,1.4-0.1,2.2-0.2c0.9-0.1,1.9-0.4,3.1-0.8l2,6.3c-1.8,0.6-3.3,1.1-4.6,1.4c-1.3,0.3-2.5,0.5-3.7,0.5
			c-4.4,0-7.8-1.2-10.1-3.7c-2.3-2.5-3.5-6.1-3.5-10.8V205.4z M58.3,205.4c-1,0-1.9-0.2-2.7-0.7c-0.8-0.4-1.4-1-2-1.6
			c-0.6-0.6-1-1.4-1.4-2.2c-0.4-0.8-0.7-1.6-0.9-2.4h10v6.8H58.3z"/>
		<path id="XMLID_187_" class="st0" d="M103.6,216.4c0,2.9-0.5,5.6-1.6,7.9c-1.1,2.3-2.5,4.3-4.2,5.9c-1.7,1.6-3.7,2.8-5.9,3.7
			c-2.2,0.9-4.5,1.3-6.7,1.3c-2.4,0-4.8-0.4-7-1.2c-2.2-0.8-4.2-2-5.9-3.6c-1.7-1.6-3.1-3.6-4.1-5.9c-1-2.3-1.5-5-1.5-8
			c0-3.2,0.6-6,1.8-8.4c1.2-2.4,2.7-4.3,4.5-5.8c1.8-1.5,3.8-2.6,6-3.4c2.2-0.7,4.3-1.1,6.3-1.1c2.8,0,5.3,0.5,7.5,1.4
			c2.3,0.9,4.2,2.2,5.8,3.9c1.6,1.7,2.9,3.6,3.8,5.9S103.6,213.6,103.6,216.4z M85,228.1c1.3,0,2.5-0.3,3.6-0.9
			c1-0.6,1.9-1.5,2.6-2.5c0.7-1.1,1.2-2.3,1.6-3.7c0.3-1.4,0.5-2.9,0.5-4.5c0-1.6-0.2-3.1-0.5-4.5c-0.3-1.4-0.9-2.6-1.6-3.7
			c-0.7-1.1-1.6-1.9-2.6-2.5c-1-0.6-2.2-0.9-3.6-0.9c-1.3,0-2.5,0.3-3.6,0.9c-1,0.6-1.9,1.5-2.6,2.5c-0.7,1.1-1.2,2.3-1.6,3.7
			c-0.4,1.4-0.6,2.9-0.6,4.5c0,1.7,0.2,3.3,0.6,4.7c0.4,1.4,0.9,2.6,1.7,3.7c0.7,1,1.6,1.8,2.6,2.4C82.6,227.8,83.8,228.1,85,228.1z
			"/>
		<path id="XMLID_185_" class="st0" d="M117.1,198.5c0.4,0.3,0.8,1,1.2,1.9c0.4,0.9,0.7,2,0.9,3.2l0.1,1.7l0.7-1.7
			c0.9-1.8,2.1-3.3,3.6-4.3c1.5-1,3-1.5,4.5-1.5c1.3,0,2.8,0.3,4.5,0.8l-1.1,7.8c-0.9-0.3-1.7-0.5-2.3-0.6c-0.6-0.1-1.2-0.1-1.8-0.1
			c-1.2,0-2.3,0.3-3.2,0.9c-0.9,0.6-1.7,1.4-2.3,2.5c-0.6,1-1.1,2.3-1.5,3.7c-0.3,1.5-0.5,3-0.5,4.7v16.7h-9.1v-27
			c0-1.3-0.1-2.7-0.2-4.1c-0.2-1.5-0.4-3-0.9-4.6H117.1z"/>
		<path id="XMLID_183_" class="st0" d="M160.1,212.4c0.1-1.1,0.1-2.1-0.1-3s-0.6-1.8-1.1-2.6c-0.5-0.7-1.2-1.3-2-1.8
			c-0.8-0.4-1.7-0.7-2.8-0.7c-1,0-1.9,0.2-2.9,0.6c-0.9,0.4-1.8,1.1-2.6,2c-0.8,0.9-1.4,2.1-1.9,3.5c-0.5,1.4-0.7,3.1-0.7,5.1
			c0,4,0.9,7.1,2.7,9.3c1.8,2.2,4.1,3.3,7,3.3c1.6,0,3.2-0.2,4.7-0.6c1.5-0.4,3.3-1,5.4-2l2.4,6.4c-2.5,1.2-4.8,2-7,2.5
			c-2.2,0.5-4.4,0.7-6.5,0.7c-3.2,0-5.9-0.6-8.2-1.7c-2.3-1.2-4.2-2.6-5.7-4.5c-1.5-1.8-2.6-3.9-3.3-6.2c-0.7-2.3-1.1-4.6-1.1-7
			c0-2.9,0.5-5.4,1.4-7.7c0.9-2.3,2.2-4.2,3.9-5.7c1.6-1.5,3.6-2.7,5.8-3.6c2.2-0.8,4.6-1.2,7-1.2c2.5,0,4.9,0.5,7,1.5
			c2.1,1,3.8,2.4,5.1,4.2c1.3,1.8,2.1,4,2.4,6.5c0.3,2.5-0.1,5.2-1.1,8.2h-19.4c0.5-1.6,1.2-3,2.2-4c0.9-1.1,2-1.6,3.2-1.6H160.1z"
			/>
		<path id="XMLID_181_" class="st0" d="M195.1,204.9c-0.8,0-1.5-0.1-2-0.4c-0.6-0.3-1-0.7-1.5-1.2c-0.4-0.5-0.8-1.1-1.2-1.7
			c-0.4-0.7-0.7-1.3-1-2c1.3-0.6,2.7-1,4-1.2c1.4-0.3,2.6-0.4,3.8-0.4c2.2,0,4.2,0.5,5.9,1.5c1.8,1,3.2,2.3,4.5,4
			c1.2,1.6,2.2,3.5,2.8,5.5c0.7,2.1,1,4.1,1,6.2c0,2.8-0.4,5.4-1.3,7.9c-0.9,2.5-2.1,4.6-3.8,6.4c-1.7,1.8-3.7,3.2-6,4.3
			c-2.4,1-5,1.6-7.9,1.6c-2.5,0-5-0.3-7.4-0.9c-2.4-0.6-5-1.6-7.8-3.1v-49.5h9.7v45.6c1.1,0.3,2,0.5,2.9,0.6
			c0.9,0.1,1.8,0.1,2.7,0.1c1.3,0,2.5-0.3,3.6-1c1.1-0.6,2-1.5,2.8-2.7c0.8-1.2,1.3-2.5,1.7-4.1c0.4-1.6,0.6-3.4,0.6-5.3
			c0-1.1-0.1-2.3-0.3-3.5c-0.2-1.2-0.6-2.3-1-3.4c-0.5-1-1.1-1.8-1.9-2.5C197.2,205.2,196.3,204.9,195.1,204.9z"/>
		<path id="XMLID_178_" class="st0" d="M218.5,188.2c0-1.6,0.5-3,1.6-4.1c1.1-1.1,2.4-1.7,4-1.7c1.6,0,3,0.6,4,1.7
			c1.1,1.1,1.6,2.5,1.6,4.1c0,1.6-0.5,3-1.6,4c-1.1,1.1-2.4,1.6-4,1.6c-1.6,0-3-0.5-4-1.6C219,191.1,218.5,189.8,218.5,188.2z
			 M219.3,234.3v-35.7h9.7v35.7H219.3z"/>
		<path id="XMLID_175_" class="st0" d="M241,205.4h-5.7v-5.5l5.7-1.4V190l9.1-3v33.5c0,2.4,0.5,4.2,1.5,5.5c1,1.3,2.3,2,3.9,2
			c0.6,0,1.4-0.1,2.2-0.2c0.9-0.1,1.9-0.4,3.1-0.8l2,6.3c-1.8,0.6-3.3,1.1-4.6,1.4c-1.3,0.3-2.5,0.5-3.7,0.5
			c-4.4,0-7.8-1.2-10.1-3.7c-2.3-2.5-3.5-6.1-3.5-10.8V205.4z M259.4,205.4c-1,0-1.9-0.2-2.7-0.7c-0.8-0.4-1.4-1-2-1.6
			c-0.6-0.6-1-1.4-1.4-2.2c-0.4-0.8-0.7-1.6-0.9-2.4h10v6.8H259.4z"/>
		<path id="XMLID_171_" class="st0" d="M269.5,225.6c2.2,0.8,4.1,1.4,5.7,1.7c1.7,0.3,3.2,0.5,4.7,0.5c1.7,0,2.9-0.4,3.7-1.1
			c0.8-0.7,1.2-1.5,1.2-2.4c0-1-0.4-1.9-1.2-2.6c-0.8-0.7-1.9-1.3-3.1-1.9c-1.2-0.6-2.6-1.2-4-1.8c-1.4-0.6-2.8-1.3-4-2.2
			c-1.2-0.9-2.3-1.9-3.1-3.1c-0.8-1.2-1.2-2.8-1.2-4.6c0-1.1,0.2-2.3,0.7-3.5c0.4-1.2,1.2-2.3,2.2-3.3s2.3-1.8,4-2.5
			c1.6-0.7,3.6-1,6-1c1.6,0,3.2,0.1,4.8,0.3c1.6,0.2,3.6,0.7,5.8,1.5l-2.2,6.2c-1.8-0.5-3.2-0.8-4.4-0.9c-1.1-0.2-2.2-0.2-3.4-0.2
			c-1.3,0-2.4,0.3-3.1,0.8c-0.8,0.5-1.1,1.3-1.1,2.2c0,1,0.4,1.8,1.2,2.5c0.8,0.7,1.9,1.3,3.1,1.9c1.2,0.6,2.6,1.2,4,1.9
			c1.4,0.6,2.8,1.4,4,2.3c1.2,0.9,2.3,1.9,3.1,3.1c0.8,1.2,1.2,2.7,1.2,4.5c0,1.7-0.3,3.2-1,4.5c-0.7,1.4-1.6,2.5-2.8,3.5
			c-1.2,0.9-2.5,1.7-4,2.2c-1.5,0.5-3.1,0.8-4.7,0.8c-1.8,0-3.8-0.2-6.1-0.5c-2.3-0.3-5-1.1-8.1-2.4L269.5,225.6z"/>
	</g>
</g>
<g>
	<circle id="XMLID_161_" class="st0" cx="143.3" cy="84" r="10.8"/>
	<path class="st0" d="M257.5,62.1c-6.5-6-14.3-10.5-23-13c-5.3-1.5-10.8-2.4-16.6-2.4c-1.3,0-2.5,0-3.7,0.1
		c-13.4-25.5-40.1-42.9-70.9-42.9c-38.1,0-69.9,26.6-78,62.1c-6.9,0.8-13.3,3.1-19,6.4c-8.1,4.8-14.7,11.8-19,20.2
		c-3.4,6.7-5.3,14.2-5.3,22.1c0,0.9,0,1.8,0.1,2.7c1.1,21,15.4,38.5,34.8,44.4c4.5,1.4,9.3,2.1,14.3,2.1h152.1v-0.3
		c1.8-0.2,3.5-0.4,5.2-0.7c27.3-5,48-28.9,48-57.7C276.6,88.3,269.2,72.8,257.5,62.1z M81.3,84c0-34.3,27.8-62,62-62
		c34.3,0,62,27.8,62,62c0,9.2-2,18-5.6,25.8l17,7.1l-19.3-2.6c0,0,0,0,0,0.1l-36.4-5.1c-0.2,0-0.4,0-0.6,0c-2.2,0-4.3,1.8-4.9,4.4
		c-0.6,2.8,0.8,5.5,3.2,6.2l28.3,8.2c-11.2,11.2-26.7,18.1-43.7,18.1C109,146,81.3,118.2,81.3,84z M220.2,131.8
		c-1.9,0-3.5-1.5-3.5-3.5c0-1.9,1.5-3.4,3.5-3.4c1.9,0,3.5,1.5,3.5,3.4C223.6,130.3,222.1,131.8,220.2,131.8z M231.8,83.9
		c-4.9,0-8.8-3.9-8.8-8.8c0-4.8,3.9-8.8,8.8-8.8s8.8,3.9,8.8,8.8C240.6,80,236.6,83.9,231.8,83.9z"/>
</g>
</svg>
