<?xml version="1.0" encoding="utf-8"?>
<!-- Generator: Adobe Illustrator 19.0.0, SVG Export Plug-In . SVG Version: 6.00 Build 0)  -->
<svg version="1.1" id="Layer_1" xmlns="http://www.w3.org/2000/svg" xmlns:xlink="http://www.w3.org/1999/xlink" x="0px" y="0px"
	 viewBox="0 0 609 144" style="enable-background:new 0 0 609 144;" xml:space="preserve">
<style type="text/css">
	.st0{fill:#FFFFFF;}
</style>
<g id="XMLID_80_">
	<g>
		<path id="XMLID_182_" class="st0" d="M242.4,102.4c2.7,1,5.1,1.8,7.2,2.2c2.1,0.4,4,0.6,5.9,0.6c2.1,0,3.7-0.4,4.7-1.3
			c1-0.9,1.5-1.9,1.5-3c0-1.3-0.5-2.3-1.6-3.2c-1-0.9-2.3-1.7-3.9-2.4c-1.6-0.7-3.2-1.5-5-2.2c-1.8-0.7-3.5-1.7-5-2.7
			c-1.6-1.1-2.9-2.4-3.9-3.9c-1-1.5-1.6-3.4-1.6-5.7c0-1.4,0.3-2.8,0.8-4.4c0.5-1.5,1.5-2.9,2.7-4.1c1.3-1.2,2.9-2.3,5-3.1
			c2-0.8,4.5-1.3,7.5-1.3c2,0,4,0.1,6,0.4c2,0.3,4.5,0.9,7.2,1.8l-2.8,7.8c-2.2-0.6-4.1-1-5.4-1.2c-1.4-0.2-2.8-0.3-4.2-0.3
			c-1.7,0-3,0.3-3.9,1c-1,0.7-1.4,1.6-1.4,2.8c0,1.2,0.5,2.2,1.6,3.1c1,0.9,2.3,1.7,3.9,2.4c1.6,0.7,3.2,1.5,5,2.3
			c1.8,0.8,3.5,1.8,5,2.9c1.6,1.1,2.9,2.4,3.9,3.9c1,1.5,1.6,3.4,1.6,5.7c0,2.1-0.4,4-1.3,5.7c-0.9,1.7-2,3.1-3.5,4.3
			c-1.4,1.2-3.1,2.1-5,2.7c-1.9,0.6-3.8,1-5.8,1c-2.2,0-4.8-0.2-7.7-0.6c-2.9-0.4-6.3-1.4-10.1-3L242.4,102.4z"/>
		<path id="XMLID_179_" class="st0" d="M283.7,77.1h-7.2v-6.8l7.2-1.7V57.9l11.4-3.7v41.9c0,2.9,0.6,5.2,1.9,6.9
			c1.2,1.6,2.9,2.5,4.9,2.5c0.8,0,1.7-0.1,2.8-0.3c1.1-0.2,2.3-0.5,3.8-1l2.5,7.9c-2.2,0.7-4.1,1.3-5.7,1.7
			c-1.6,0.4-3.2,0.6-4.6,0.6c-5.5,0-9.7-1.6-12.6-4.7c-2.9-3.1-4.3-7.6-4.3-13.6V77.1z M306.7,77.1c-1.3,0-2.4-0.3-3.3-0.8
			c-0.9-0.5-1.8-1.2-2.5-2c-0.7-0.8-1.3-1.7-1.7-2.7c-0.5-1-0.8-2-1.1-3h12.5v8.6H306.7z"/>
		<path id="XMLID_176_" class="st0" d="M363.3,90.8c0,3.7-0.7,7-2,9.9c-1.4,2.9-3.1,5.4-5.3,7.4c-2.2,2-4.6,3.6-7.4,4.6
			c-2.8,1.1-5.6,1.6-8.4,1.6c-3.1,0-6-0.5-8.8-1.6c-2.8-1-5.3-2.6-7.4-4.5c-2.1-2-3.8-4.5-5.1-7.4c-1.3-2.9-1.9-6.3-1.9-10
			c0-4,0.7-7.5,2.2-10.5c1.5-3,3.3-5.4,5.6-7.3c2.3-1.9,4.8-3.3,7.5-4.2c2.7-0.9,5.3-1.4,7.8-1.4c3.5,0,6.6,0.6,9.4,1.7
			c2.8,1.2,5.3,2.8,7.3,4.8c2,2.1,3.6,4.5,4.8,7.4C362.7,84.2,363.3,87.4,363.3,90.8z M340.1,105.5c1.7,0,3.2-0.4,4.5-1.2
			c1.3-0.8,2.4-1.8,3.2-3.1c0.9-1.3,1.5-2.9,1.9-4.6c0.4-1.8,0.6-3.7,0.6-5.7c0-2-0.2-3.9-0.6-5.6c-0.4-1.7-1.1-3.3-1.9-4.6
			c-0.9-1.3-1.9-2.4-3.2-3.1c-1.3-0.8-2.8-1.2-4.5-1.2c-1.7,0-3.2,0.4-4.5,1.2c-1.3,0.8-2.4,1.8-3.2,3.1c-0.9,1.3-1.5,2.8-2,4.6
			c-0.5,1.7-0.7,3.6-0.7,5.6c0,2.2,0.2,4.2,0.7,5.9c0.5,1.8,1.2,3.3,2.1,4.6c0.9,1.3,2,2.3,3.3,3
			C337.2,105.1,338.6,105.5,340.1,105.5z"/>
		<path id="XMLID_174_" class="st0" d="M380.2,68.5c0.5,0.4,1,1.2,1.5,2.4c0.5,1.2,0.9,2.5,1.2,4l0.2,2.1l0.9-2.1
			c1.2-2.3,2.7-4.1,4.5-5.4c1.9-1.3,3.7-1.9,5.6-1.9c1.7,0,3.5,0.3,5.6,1l-1.4,9.8c-1.2-0.3-2.1-0.6-2.9-0.7
			c-0.8-0.1-1.5-0.2-2.2-0.2c-1.5,0-2.8,0.4-4,1.1c-1.2,0.8-2.1,1.8-2.9,3.1c-0.8,1.3-1.4,2.9-1.9,4.7c-0.4,1.8-0.6,3.8-0.6,5.9
			v20.8h-11.3V79.4c0-1.6-0.1-3.3-0.3-5.1c-0.2-1.8-0.6-3.7-1.1-5.7H380.2z"/>
		<path id="XMLID_172_" class="st0" d="M434.1,85.8c0.2-1.3,0.1-2.6-0.2-3.8c-0.3-1.2-0.8-2.3-1.4-3.2c-0.7-0.9-1.5-1.7-2.5-2.2
			c-1-0.5-2.2-0.8-3.5-0.8c-1.2,0-2.4,0.3-3.6,0.8c-1.2,0.5-2.3,1.3-3.2,2.5c-1,1.1-1.8,2.6-2.4,4.3c-0.6,1.8-0.9,3.9-0.9,6.4
			c0,5,1.1,8.9,3.4,11.6c2.2,2.7,5.2,4.1,8.8,4.1c2,0,4-0.2,5.9-0.7c1.9-0.5,4.2-1.3,6.7-2.5l3,8c-3.1,1.5-6,2.5-8.8,3.2
			c-2.7,0.6-5.5,0.9-8.2,0.9c-4,0-7.4-0.7-10.2-2.2c-2.9-1.4-5.2-3.3-7.1-5.6c-1.9-2.3-3.3-4.9-4.1-7.7c-0.9-2.9-1.3-5.8-1.3-8.7
			c0-3.6,0.6-6.8,1.8-9.6c1.2-2.8,2.8-5.2,4.8-7.1c2-1.9,4.5-3.4,7.2-4.5c2.8-1,5.7-1.6,8.8-1.6c3.2,0,6.1,0.6,8.7,1.9
			c2.6,1.3,4.8,3,6.4,5.3c1.6,2.2,2.6,4.9,3,8.1c0.4,3.1-0.1,6.6-1.3,10.2h-24.2c0.6-2,1.5-3.7,2.7-5.1c1.2-1.4,2.5-2,4-2H434.1z"/>
		<path id="XMLID_170_" class="st0" d="M477.8,76.5c-1,0.1-1.8-0.1-2.5-0.5c-0.7-0.4-1.3-0.9-1.8-1.5c-0.5-0.6-1-1.3-1.5-2.2
			c-0.5-0.8-0.9-1.7-1.3-2.6c1.7-0.7,3.4-1.2,5.1-1.6c1.7-0.3,3.3-0.5,4.8-0.5c2.8,0,5.2,0.6,7.4,1.9c2.2,1.3,4,2.9,5.6,5
			c1.5,2,2.7,4.4,3.5,6.9c0.8,2.6,1.3,5.1,1.3,7.7c0,3.5-0.5,6.8-1.6,9.9c-1.1,3.1-2.7,5.8-4.8,8c-2.1,2.3-4.6,4.1-7.5,5.4
			c-2.9,1.3-6.2,1.9-9.9,1.9c-3.2,0-6.3-0.4-9.2-1.1c-3-0.7-6.3-2-9.8-3.8V47.7h12.1v57c1.3,0.3,2.5,0.6,3.6,0.7
			c1.1,0.1,2.2,0.2,3.4,0.2c1.7,0,3.2-0.4,4.5-1.2c1.3-0.8,2.5-1.9,3.4-3.4c0.9-1.4,1.7-3.2,2.2-5.2c0.5-2,0.7-4.2,0.7-6.6
			c0-1.4-0.1-2.8-0.4-4.4c-0.3-1.5-0.7-2.9-1.3-4.2c-0.6-1.3-1.4-2.3-2.4-3.1C480.5,76.8,479.3,76.4,477.8,76.5z"/>
		<path id="XMLID_167_" class="st0" d="M507,55.6c0-2,0.7-3.7,2-5.1c1.4-1.4,3-2.1,5.1-2.1c2,0,3.7,0.7,5.1,2.1c1.4,1.4,2,3.1,2,5.1
			c0,2-0.7,3.7-2,5.1c-1.4,1.4-3,2-5.1,2c-2,0-3.7-0.7-5.1-2C507.7,59.3,507,57.6,507,55.6z M508.1,113.2V68.5h12.1v44.7H508.1z"/>
		<path id="XMLID_164_" class="st0" d="M535.2,77.1H528v-6.8l7.2-1.7V57.9l11.4-3.7v41.9c0,2.9,0.6,5.2,1.9,6.9
			c1.2,1.6,2.9,2.5,4.9,2.5c0.8,0,1.7-0.1,2.8-0.3c1.1-0.2,2.3-0.5,3.8-1l2.5,7.9c-2.2,0.7-4.1,1.3-5.7,1.7
			c-1.6,0.4-3.2,0.6-4.6,0.6c-5.5,0-9.7-1.6-12.6-4.7c-2.9-3.1-4.3-7.6-4.3-13.6V77.1z M558.2,77.1c-1.3,0-2.4-0.3-3.3-0.8
			c-1-0.5-1.8-1.2-2.5-2c-0.7-0.8-1.3-1.7-1.7-2.7c-0.5-1-0.8-2-1.1-3h12.5v8.6H558.2z"/>
		<path id="XMLID_161_" class="st0" d="M570.9,102.4c2.7,1,5.1,1.8,7.2,2.2c2.1,0.4,4,0.6,5.9,0.6c2.1,0,3.7-0.4,4.7-1.3
			c1-0.9,1.5-1.9,1.5-3c0-1.3-0.5-2.3-1.6-3.2c-1-0.9-2.3-1.7-3.9-2.4c-1.6-0.7-3.2-1.5-5-2.2c-1.8-0.7-3.5-1.7-5-2.7
			c-1.6-1.1-2.9-2.4-3.9-3.9c-1-1.5-1.6-3.4-1.6-5.7c0-1.4,0.3-2.8,0.8-4.4c0.5-1.5,1.5-2.9,2.7-4.1s2.9-2.3,5-3.1
			c2-0.8,4.5-1.3,7.5-1.3c2,0,4,0.1,6,0.4c2,0.3,4.4,0.9,7.2,1.8l-2.8,7.8c-2.2-0.6-4.1-1-5.4-1.2c-1.4-0.2-2.8-0.3-4.2-0.3
			c-1.7,0-3,0.3-3.9,1c-1,0.7-1.4,1.6-1.4,2.8c0,1.2,0.5,2.2,1.6,3.1c1,0.9,2.3,1.7,3.9,2.4c1.6,0.7,3.2,1.5,5,2.3
			c1.8,0.8,3.5,1.8,5,2.9c1.6,1.1,2.9,2.4,3.9,3.9c1,1.5,1.6,3.4,1.6,5.7c0,2.1-0.4,4-1.3,5.7c-0.9,1.7-2,3.1-3.5,4.3
			c-1.4,1.2-3.1,2.1-5,2.7c-1.9,0.6-3.8,1-5.8,1c-2.2,0-4.8-0.2-7.7-0.6c-2.9-0.4-6.3-1.4-10.1-3L570.9,102.4z"/>
	</g>
</g>
<g>
	<circle id="XMLID_1_" class="st0" cx="101.4" cy="71.9" r="8.4"/>
	<path class="st0" d="M190,55c-5-4.6-11.1-8.1-17.8-10.1c-4.1-1.2-8.4-1.9-12.9-1.9c-1,0-1.9,0-2.9,0.1
		c-10.4-19.8-31.1-33.3-55-33.3C71.9,9.9,47.3,30.5,41,58.1c-5.3,0.7-10.3,2.4-14.7,5c-6.3,3.7-11.4,9.2-14.7,15.7
		c-2.6,5.2-4.1,11-4.1,17.1c0,0.7,0,1.4,0.1,2.1c0.9,16.3,12,29.9,27,34.4c3.5,1.1,7.2,1.6,11,1.6h117.9v-0.2c1.4-0.1,2.7-0.3,4-0.6
		c21.2-3.9,37.2-22.4,37.2-44.7C204.7,75.2,199,63.3,190,55z M53.4,71.9c0-26.5,21.5-48.1,48.1-48.1c26.5,0,48.1,21.5,48.1,48.1
		c0,7.2-1.6,13.9-4.4,20l13.2,5.5l-15-2c0,0,0,0,0,0l-28.2-4c-0.2,0-0.3,0-0.5,0c-1.7,0-3.3,1.4-3.8,3.4c-0.5,2.2,0.6,4.2,2.5,4.8
		l21.9,6.3c-8.7,8.7-20.7,14-33.9,14C74.9,120,53.4,98.5,53.4,71.9z M161,109c-1.5,0-2.7-1.2-2.7-2.7c0-1.5,1.2-2.7,2.7-2.7
		c1.5,0,2.7,1.2,2.7,2.7C163.7,107.8,162.5,109,161,109z M170,71.9c-3.8,0-6.8-3.1-6.8-6.8c0-3.8,3.1-6.8,6.8-6.8s6.8,3.1,6.8,6.8
		C176.8,68.8,173.8,71.9,170,71.9z"/>
</g>
</svg>
