<?xml version="1.0" encoding="utf-8"?>
<!-- Generator: Adobe Illustrator 19.0.0, SVG Export Plug-In . SVG Version: 6.00 Build 0)  -->
<svg version="1.1" id="Layer_1" xmlns="http://www.w3.org/2000/svg" xmlns:xlink="http://www.w3.org/1999/xlink" x="0px" y="0px"
	 viewBox="-369 288.7 330.3 216.3" style="enable-background:new -369 288.7 330.3 216.3;" xml:space="preserve">
<g id="XMLID_624_">
	<g>
		<g>
			<g>
				<path d="M-72.5,370.2c-7.9-7.2-17.4-12.8-27.9-15.8c-6.4-1.9-13.2-3-20.2-3c-1.5,0-3,0.1-4.5,0.1c-16.3-30.8-48.7-52-86.1-52
					c-46.2,0-84.8,32.2-94.7,75.5c-8.4,1.1-16.2,3.8-23,7.8c-9.8,5.8-17.8,14.3-23,24.6c-4.1,8-6.4,17.2-6.4,26.8
					c0,1.1,0,2.1,0.1,3.2c1.4,25.5,18.8,46.8,42.3,54c5.4,1.7,11.2,2.6,17.2,2.6h184.6v-0.4c2.1-0.2,4.3-0.5,6.4-0.8
					c33.2-6.1,58.3-35.1,58.3-70C-49.4,401.9-58.3,383.2-72.5,370.2z M-145.5,433.6l-44.2-6.3c-0.2,0-0.5,0-0.7,0
					c-2.7,0-5.2,2.2-5.9,5.3c-0.7,3.3,0.9,6.6,3.9,7.4l34.4,9.9c-13.6,13.6-32.4,22-53.1,22c-41.6,0-75.3-33.7-75.3-75.3
					c0-41.6,33.7-75.3,75.3-75.3c41.6,0,75.3,33.7,75.3,75.3c0,11.2-2.5,21.8-6.8,31.4l20.7,8.6L-145.5,433.6L-145.5,433.6z
					 M-117.9,454.8c-2.4,0-4.3-1.9-4.3-4.1c0-2.4,1.9-4.1,4.3-4.1c2.4,0,4.1,1.9,4.1,4.1C-113.6,452.9-115.5,454.8-117.9,454.8z
					 M-103.8,396.6c-5.9,0-10.6-4.7-10.6-10.6s4.7-10.6,10.6-10.6s10.6,4.7,10.6,10.6S-97.9,396.6-103.8,396.6z"/>
			</g>
		</g>
		<g id="XMLID_1_">
			<circle cx="-211.2" cy="396.7" r="13.1"/>
		</g>
	</g>
</g>
</svg>
