<?xml version="1.0" encoding="utf-8"?>
<!-- Generator: Adobe Illustrator 19.0.0, SVG Export Plug-In . SVG Version: 6.00 Build 0)  -->
<svg version="1.1" id="Layer_1" xmlns="http://www.w3.org/2000/svg" xmlns:xlink="http://www.w3.org/1999/xlink" x="0px" y="0px"
	 viewBox="-369 288.7 330.3 216.3" style="enable-background:new -369 288.7 330.3 216.3;" xml:space="preserve">
<style type="text/css">
	.st0{fill:#309A47;}
	.st1{fill:#61B44D;}
	.st2{fill:#89C655;}
	.st3{fill:#FFFFFF;}
	.st4{opacity:0.4;fill:#238648;enable-background:new    ;}
	.st5{opacity:0.1;fill:#89C655;enable-background:new    ;}
	.st6{fill:#238648;}
	.st7{fill:#1E5D84;}
	.st8{fill:#2B72B8;}
	.st9{fill:#3A92CF;}
	.st10{fill:#3BB6AB;}
	.st11{opacity:0.4;fill:#1E5D84;enable-background:new    ;}
	.st12{opacity:0.1;fill:#3BB6AB;enable-background:new    ;}
</style>
<g>
	<path id="XMLID_40_" class="st0" d="M-70.2,396.8c0,37.1-14.3,70.7-37.7,96c-2.1,0.4-4.1,0.7-6.3,0.8v0.4h-184.5
		c-6,0-11.8-0.9-17.2-2.6c-20.4-22.5-33.6-51.7-36-83.9c8.7-17.4,25.9-29.9,46-32.3c9.9-43.2,48.5-75.4,94.7-75.4
		c37.4,0,69.8,21.1,86.1,52.1c1.5-0.1,3-0.1,4.5-0.1c18.5,0,35.4,7.1,48,18.7C-71.1,378.9-70.2,387.8-70.2,396.8z"/>
	<path id="XMLID_39_" class="st1" d="M-92.8,396.8c0,40.1-19.9,75.7-50.6,97.1h-135.7c-30.6-21.4-50.6-56.9-50.6-97.1
		c0-4.7,0.2-9.3,0.8-13.9c6.8-4.1,14.6-6.8,23-7.8c9.9-43.2,48.5-75.4,94.7-75.4c37.4,0,69.8,21.1,86.1,52.1c1.5-0.1,3-0.1,4.5-0.1
		c7,0,13.8,1.1,20.2,3C-95.5,367.7-92.8,382-92.8,396.8z"/>
	<path id="XMLID_55_" class="st2" d="M-114.2,396.8c0,17-4.4,32.9-12,46.7c-2.4,4.4-5.2,8.5-8.1,12.5c-17.7,23-45.6,37.9-77,37.9
		c-53.6,0-97.1-43.4-97.1-97.1c0-53.6,43.4-97.1,97.1-97.1S-114.2,343.3-114.2,396.8z"/>
	<circle id="XMLID_5_" class="st3" cx="-103.9" cy="386.1" r="10.6"/>
	<circle id="XMLID_10_" class="st4" cx="-213.2" cy="398.3" r="75.2"/>
	<circle id="XMLID_7_" class="st3" cx="-211.2" cy="396.8" r="75.2"/>
	<path id="XMLID_31_" class="st5" d="M-211.2,330.4V377c11,0,19.8,8.9,19.8,19.8h46.6C-144.8,360.1-174.5,330.4-211.2,330.4z"/>
	<path id="XMLID_11_" class="st5" d="M-211.2,463.3v-46.6c-11,0-19.8-8.9-19.8-19.8h-46.6C-277.7,433.6-247.9,463.3-211.2,463.3z"/>
	<path id="XMLID_41_" class="st2" d="M-126.1,443.7c-2.4,4.4-5.2,8.5-8.1,12.5c-1.3,0.2-2.5,0.2-3.8-0.1l-54.4-15.7
		c-3-0.8-4.6-4.1-3.9-7.4c0.7-3.1,3.2-5.3,5.9-5.3c0.2,0,0.5,0,0.7,0l56.1,7.9C-129.6,435.9-126.7,439.3-126.1,443.7z"/>
	<polygon id="XMLID_8_" class="st3" points="-167.4,430.6 -122.2,436.9 -154.2,423.5 	"/>
	<circle id="XMLID_3_" class="st6" cx="-211.2" cy="396.8" r="13.1"/>
	<circle id="XMLID_6_" class="st3" cx="-118.1" cy="450.8" r="4.1"/>
	<path id="XMLID_181_" class="st7" d="M-49.4,422.8c0,34.9-25.1,64-58.3,70c-2.1,0.4-4.1,0.7-6.3,0.8v0.4h-184.6
		c-6,0-11.8-0.9-17.4-2.6c-23.6-7.1-41-28.4-42.3-53.9c-0.1-1.1-0.1-2.1-0.1-3.2c0-9.7,2.2-18.8,6.4-26.9
		c5.2-10.3,13.2-18.8,23-24.6c6.8-4.1,14.6-6.8,23-7.8c9.9-43.2,48.5-75.4,94.7-75.4c37.4,0,69.9,21.1,86.1,52.1
		c1.5-0.1,3-0.1,4.5-0.1c7,0,13.8,1.1,20.2,3c10.5,3.1,20.1,8.6,27.9,15.8C-58.2,383.3-49.4,402-49.4,422.8z"/>
	<path id="XMLID_178_" class="st8" d="M-70,396.8c0,37.1-14.3,70.8-37.7,96c-2.1,0.4-4.1,0.7-6.3,0.8v0.4h-184.5
		c-6,0-11.8-0.9-17.4-2.6c-20.4-22.5-33.6-51.7-36-83.9c8.7-17.4,25.9-29.9,46-32.3c9.9-43.2,48.5-75.4,94.7-75.4
		c37.4,0,69.8,21.1,86.1,52.1c1.5-0.1,3-0.1,4.5-0.1c18.5,0,35.4,7.1,48,18.7C-70.9,378.9-70,387.8-70,396.8z"/>
	<path id="XMLID_175_" class="st9" d="M-92.6,396.8c0,40.3-20.1,75.7-50.6,97.1H-279c-30.6-21.4-50.6-56.9-50.6-97.1
		c0-4.7,0.2-9.3,0.8-13.9c6.8-4.1,14.6-6.8,23-7.8c9.9-43.2,48.5-75.4,94.7-75.4c37.4,0,69.8,21.1,86.1,52.1c1.5-0.1,3-0.1,4.5-0.1
		c7,0,13.8,1.1,20.2,3C-95.3,367.7-92.6,382-92.6,396.8z"/>
	<path id="XMLID_172_" class="st10" d="M-113.9,396.8c0,17-4.4,32.9-12,46.9c-2.4,4.4-5.2,8.5-8.1,12.5c-17.7,23-45.6,37.9-77,37.9
		c-53.6,0-97.1-43.4-97.1-97.1s43.4-97.1,97.1-97.1C-157.4,299.7-113.9,343.1-113.9,396.8z"/>
	<circle id="XMLID_171_" class="st3" cx="-103.8" cy="386.1" r="10.6"/>
	<circle id="XMLID_168_" class="st11" cx="-213.1" cy="398.3" r="75.3"/>
	<circle id="XMLID_165_" class="st3" cx="-211.1" cy="396.8" r="75.3"/>
	<path id="XMLID_159_" class="st12" d="M-211.1,330.4V377c11,0,19.8,8.9,19.8,19.8h46.7C-144.6,360.1-174.4,330.4-211.1,330.4z"/>
	<path id="XMLID_153_" class="st12" d="M-211.1,463.3v-46.6c-11,0-19.8-8.9-19.8-19.8h-46.7C-277.6,433.6-247.8,463.3-211.1,463.3z"
		/>
	<path id="XMLID_150_" class="st10" d="M-126,443.7c-2.4,4.4-5.2,8.5-8.1,12.5c-1.3,0.2-2.5,0.2-3.8-0.1l-54.4-15.7
		c-3-0.8-4.6-4.1-3.9-7.4c0.7-3.1,3.2-5.3,5.9-5.3c0.2,0,0.5,0,0.7,0l56.1,7.9C-129.4,435.9-126.6,439.3-126,443.7z"/>
	<polygon id="XMLID_149_" class="st3" points="-167.2,430.6 -122,436.9 -154.1,423.5 	"/>
	<circle id="XMLID_146_" class="st7" cx="-211.1" cy="396.8" r="13.1"/>
	<circle id="XMLID_143_" class="st3" cx="-117.8" cy="450.8" r="4.1"/>
</g>
</svg>
