<?xml version="1.0" encoding="utf-8"?>
<!-- Generator: Adobe Illustrator 19.0.0, SVG Export Plug-In . SVG Version: 6.00 Build 0)  -->
<svg version="1.1" id="Layer_1" xmlns="http://www.w3.org/2000/svg" xmlns:xlink="http://www.w3.org/1999/xlink" x="0px" y="0px"
	 viewBox="-369 288.7 330.3 216.3" style="enable-background:new -369 288.7 330.3 216.3;" xml:space="preserve">
<style type="text/css">
	.st0{fill:#238648;}
	.st1{fill:#309A47;}
	.st2{fill:#61B44D;}
	.st3{fill:#89C655;}
	.st4{fill:#FFFFFF;}
	.st5{opacity:0.4;fill:#238648;}
	.st6{opacity:0.1;fill:#89C655;}
</style>
<g>
	<path id="XMLID_47_" class="st0" d="M-49.4,422.9c0,34.9-25.1,64-58.3,70c-2.1,0.4-4.2,0.7-6.3,0.9v0.3h-184.6
		c-6,0-11.8-0.9-17.3-2.6c-23.6-7.1-40.9-28.4-42.3-53.9c-0.1-1.1-0.1-2.1-0.1-3.2c0-9.7,2.3-18.8,6.4-26.9
		c5.2-10.2,13.2-18.8,23-24.6c6.9-4.1,14.7-6.8,23-7.8c9.9-43.2,48.5-75.4,94.7-75.4c37.4,0,69.8,21.1,86.1,52.1
		c1.5-0.1,3-0.2,4.5-0.2c7,0,13.8,1,20.2,2.9c10.5,3.1,20,8.6,27.9,15.8C-58.3,383.4-49.4,402.1-49.4,422.9z"/>
	<path id="XMLID_21_" class="st1" d="M-70,397c0,37.1-14.3,70.8-37.7,96c-2.1,0.4-4.2,0.7-6.3,0.9v0.3h-184.6
		c-6,0-11.8-0.9-17.3-2.6c-20.4-22.6-33.6-51.8-36-84c8.8-17.4,25.9-29.9,46.1-32.4c9.9-43.2,48.5-75.4,94.7-75.4
		c37.4,0,69.8,21.1,86.1,52.1c1.5-0.1,3-0.2,4.5-0.2c18.5,0,35.4,7.1,48.1,18.7C-70.9,379-70,387.9-70,397z"/>
	<path id="XMLID_20_" class="st2" d="M-92.6,397c0,40.2-20,75.8-50.6,97.2h-135.8c-30.6-21.4-50.6-57-50.6-97.2
		c0-4.7,0.3-9.4,0.8-13.9c6.9-4.1,14.7-6.8,23-7.8c9.9-43.2,48.5-75.4,94.7-75.4c37.4,0,69.8,21.1,86.1,52.1c1.5-0.1,3-0.2,4.5-0.2
		c7,0,13.8,1,20.2,2.9C-95.4,367.8-92.6,382.1-92.6,397z"/>
	<path id="XMLID_18_" class="st3" d="M-114,397c0,17-4.4,33-12,46.8c-2.4,4.4-5.1,8.6-8.2,12.5c-17.8,23-45.6,37.9-77,37.9
		c-53.7,0-97.2-43.5-97.2-97.2c0-53.7,43.5-97.2,97.2-97.2C-157.5,299.8-114,343.3-114,397z"/>
	<circle id="XMLID_17_" class="st4" cx="-103.8" cy="386.2" r="10.7"/>
	<circle id="XMLID_16_" class="st5" cx="-213.1" cy="398.4" r="75.3"/>
	<circle id="XMLID_15_" class="st4" cx="-211.2" cy="397" r="75.3"/>
	<path id="XMLID_14_" class="st6" d="M-211.2,330.5v46.7c10.9,0,19.8,8.9,19.8,19.8h46.7C-144.7,360.2-174.4,330.5-211.2,330.5z"/>
	<path id="XMLID_12_" class="st6" d="M-211.2,463.5v-46.7c-10.9,0-19.8-8.9-19.8-19.8h-46.7C-277.7,433.7-247.9,463.5-211.2,463.5z"
		/>
	<path id="XMLID_9_" class="st3" d="M-126,443.8c-2.4,4.4-5.1,8.6-8.2,12.5c-1.2,0.2-2.5,0.2-3.8-0.2l-54.4-15.7
		c-2.9-0.8-4.6-4.1-3.9-7.5c0.7-3.1,3.2-5.3,5.9-5.3c0.2,0,0.5,0,0.7,0.1l56.1,7.9C-129.5,436.1-126.6,439.5-126,443.8z"/>
	<polygon id="XMLID_4_" class="st4" points="-167.3,430.8 -122,437 -154.1,423.6 	"/>
	<circle id="XMLID_2_" class="st0" cx="-211.2" cy="397" r="13.1"/>
	<circle id="XMLID_1_" class="st4" cx="-117.8" cy="450.9" r="4.2"/>
</g>
</svg>
