<?xml version="1.0" encoding="utf-8"?>
<!-- Generator: Adobe Illustrator 19.0.0, SVG Export Plug-In . SVG Version: 6.00 Build 0)  -->
<svg version="1.1" id="Layer_1" xmlns="http://www.w3.org/2000/svg" xmlns:xlink="http://www.w3.org/1999/xlink" x="0px" y="0px"
	 viewBox="-369 288.7 330.3 216.3" style="enable-background:new -369 288.7 330.3 216.3;" xml:space="preserve">
<style type="text/css">
	.st0{fill:#511A56;}
	.st1{fill:#8A1B50;}
	.st2{fill:#C94427;}
	.st3{fill:#F7981D;}
	.st4{fill:#FFFFFF;}
	.st5{opacity:0.2;fill:#5B3860;}
	.st6{fill:#F6F7F7;}
	.st7{opacity:5.000000e-002;fill:#511A56;}
</style>
<g>
	<path id="XMLID_140_" class="st0" d="M-49.4,422.8c0,34.9-25.1,64-58.3,70c-2.1,0.4-4.2,0.7-6.3,0.9v0.3h-184.6
		c-6,0-11.8-0.9-17.3-2.6c-23.6-7.1-40.9-28.4-42.3-53.9c-0.1-1.1-0.1-2.1-0.1-3.2c0-9.7,2.3-18.8,6.4-26.9
		c5.2-10.2,13.2-18.8,23-24.6c6.9-4.1,14.7-6.8,23-7.8c9.9-43.2,48.5-75.4,94.7-75.4c37.4,0,69.8,21.1,86.1,52.1
		c1.5-0.1,3-0.2,4.5-0.2c7,0,13.8,1,20.2,2.9c10.5,3.1,20,8.6,27.9,15.8C-58.3,383.3-49.4,402-49.4,422.8z"/>
	<path id="XMLID_137_" class="st1" d="M-70,396.9c0,37.1-14.3,70.8-37.7,96c-2.1,0.4-4.2,0.7-6.3,0.9v0.3h-184.6
		c-6,0-11.8-0.9-17.3-2.6c-20.4-22.6-33.6-51.8-36-84c8.8-17.4,25.9-29.9,46.1-32.4c9.9-43.2,48.5-75.4,94.7-75.4
		c37.4,0,69.8,21.1,86.1,52.1c1.5-0.1,3-0.2,4.5-0.2c18.5,0,35.4,7.1,48.1,18.7C-70.9,378.9-70,387.8-70,396.9z"/>
	<path id="XMLID_134_" class="st2" d="M-92.6,396.9c0,40.2-20,75.8-50.6,97.2h-135.8c-30.6-21.4-50.6-57-50.6-97.2
		c0-4.7,0.3-9.4,0.8-13.9c6.9-4.1,14.7-6.8,23-7.8c9.9-43.2,48.5-75.4,94.7-75.4c37.4,0,69.8,21.1,86.1,52.1c1.5-0.1,3-0.2,4.5-0.2
		c7,0,13.8,1,20.2,2.9C-95.4,367.7-92.6,381.9-92.6,396.9z"/>
	<path id="XMLID_131_" class="st3" d="M-114,396.9c0,17-4.4,33-12,46.8c-2.4,4.4-5.1,8.6-8.2,12.5c-17.8,23-45.6,37.9-77,37.9
		c-53.7,0-97.2-43.5-97.2-97.2c0-53.7,43.5-97.2,97.2-97.2C-157.5,299.7-114,343.2-114,396.9z"/>
	<circle id="XMLID_130_" class="st4" cx="-103.8" cy="386.1" r="10.7"/>
	<circle id="XMLID_127_" class="st5" cx="-213.1" cy="398.3" r="75.3"/>
	<circle id="XMLID_124_" class="st6" cx="-211.2" cy="396.8" r="75.3"/>
	<path id="XMLID_118_" class="st7" d="M-211.2,330.3V377c10.9,0,19.8,8.9,19.8,19.8h46.7C-144.7,360.1-174.4,330.3-211.2,330.3z"/>
	<path id="XMLID_112_" class="st7" d="M-211.2,463.3v-46.7c-10.9,0-19.8-8.9-19.8-19.8h-46.7C-277.7,433.6-247.9,463.3-211.2,463.3z
		"/>
	<path id="XMLID_109_" class="st3" d="M-126,443.7c-2.4,4.4-5.1,8.6-8.2,12.5c-1.2,0.2-2.5,0.2-3.8-0.2l-54.4-15.7
		c-2.9-0.8-4.6-4.1-3.9-7.5c0.7-3.1,3.2-5.3,5.9-5.3c0.2,0,0.5,0,0.7,0.1l56.1,7.9C-129.5,436-126.6,439.4-126,443.7z"/>
	<polygon id="XMLID_108_" class="st6" points="-167.3,430.6 -122,436.9 -154.1,423.5 	"/>
	<circle id="XMLID_105_" class="st0" cx="-211.2" cy="396.8" r="13.1"/>
	<circle id="XMLID_102_" class="st4" cx="-117.8" cy="450.8" r="4.2"/>
</g>
</svg>
