<?xml version="1.0" encoding="utf-8"?>
<!-- Generator: Adobe Illustrator 19.0.0, SVG Export Plug-In . SVG Version: 6.00 Build 0)  -->
<svg version="1.1" id="Layer_1" xmlns="http://www.w3.org/2000/svg" xmlns:xlink="http://www.w3.org/1999/xlink" x="0px" y="0px"
	 viewBox="0 0 284 239.2" style="enable-background:new 0 0 284 239.2;" xml:space="preserve">
<g id="XMLID_624_">
	<g>
		<g>
			<g>
				<path d="M253.2,63.9c-6.7-6.1-14.7-10.8-23.6-13.4c-5.4-1.6-11.2-2.5-17.1-2.5c-1.3,0-2.5,0.1-3.8,0.1
					C194.9,22,167.5,4.1,135.8,4.1C96.7,4.1,64,31.4,55.6,68c-7.1,0.9-13.7,3.2-19.5,6.6C27.8,79.5,21,86.7,16.6,95.4
					c-3.5,6.8-5.4,14.6-5.4,22.7c0,0.9,0,1.8,0.1,2.7c1.2,21.6,15.9,39.6,35.8,45.7c4.6,1.4,9.5,2.2,14.6,2.2h156.3v-0.3
					c1.8-0.2,3.6-0.4,5.4-0.7c28.1-5.2,49.4-29.7,49.4-59.3C272.8,90.8,265.2,74.9,253.2,63.9z M191.4,117.6l-37.4-5.3
					c-0.2,0-0.4,0-0.6,0c-2.3,0-4.4,1.9-5,4.5c-0.6,2.8,0.8,5.6,3.3,6.3l29.1,8.4c-11.5,11.5-27.4,18.6-45,18.6
					c-35.2,0-63.8-28.5-63.8-63.8c0-35.2,28.5-63.8,63.8-63.8c35.2,0,63.8,28.5,63.8,63.8c0,9.5-2.1,18.5-5.8,26.6l17.5,7.3
					L191.4,117.6C191.4,117.6,191.4,117.6,191.4,117.6z M214.8,135.6c-2,0-3.6-1.6-3.6-3.5c0-2,1.6-3.5,3.6-3.5c2,0,3.5,1.6,3.5,3.5
					C218.4,134,216.8,135.6,214.8,135.6z M226.7,86.3c-5,0-9-4-9-9s4-9,9-9c5,0,9,4,9,9S231.7,86.3,226.7,86.3z"/>
			</g>
		</g>
		<g id="XMLID_10_">
			<circle cx="135.8" cy="86.4" r="11.1"/>
		</g>
	</g>
</g>
<g id="XMLID_74_">
	<path id="XMLID_602_" d="M19.3,234.7c-1.8,0-3.8-0.3-6.2-0.9c-2.4-0.6-4.3-1.5-5.8-2.6l2.8-6.3c3.5,1.6,6.5,2.3,9,2.3
		c1.4,0,2.7-0.3,3.9-0.8c1.2-0.5,1.8-1.3,1.8-2.2c0-1.8-2-3.4-6-4.6c-3.3-1.1-6-2.5-8.2-4.2c-2.2-1.7-3.3-3.9-3.3-6.5
		c0-3.3,1.2-5.8,3.6-7.7c2.4-1.9,5.7-2.8,9.8-2.8c1.6,0,3.6,0.3,5.9,1c2.3,0.7,4.3,1.5,5.9,2.6l-2.8,6.2c-1.8-0.8-3.4-1.4-4.8-1.8
		c-1.4-0.4-2.9-0.6-4.4-0.6c-1.2,0-2.2,0.3-2.9,0.9c-0.8,0.6-1.2,1.3-1.2,2.1c0,0.6,0.5,1.2,1.4,1.7c0.9,0.5,2.3,1.1,4,1.7
		c3.4,1.2,6.2,2.8,8.4,4.7c2.2,1.9,3.3,4.2,3.3,7c0,3.5-1.2,6.1-3.7,8C27.5,233.8,23.9,234.7,19.3,234.7z"/>
	<path id="XMLID_604_" d="M51.3,199.5h6.3l2.8,7.1h-9.1v14.6c0,1.8,0.4,3.3,1.3,4.5c0.9,1.1,2.1,1.7,3.7,1.7c1.2,0,2.5-0.3,3.8-0.9
		l2.7,6.7c-0.7,0.6-1.8,1.1-3.2,1.5c-1.4,0.4-2.7,0.6-3.8,0.6c-4.3,0-7.7-1.1-10.1-3.3s-3.6-5.2-3.6-9.2v-16.3h-4.6v-7.1h4.6v-8.2
		l9.2-1.6V199.5z"/>
	<path id="XMLID_606_" d="M84.1,234.7c-3.7,0-6.9-0.7-9.7-2.2c-2.8-1.5-4.9-3.6-6.4-6.3c-1.5-2.7-2.3-5.9-2.3-9.6s0.8-6.8,2.3-9.6
		c1.5-2.7,3.7-4.9,6.4-6.4c2.8-1.5,6-2.2,9.7-2.2s6.9,0.7,9.7,2.2c2.8,1.5,4.9,3.6,6.4,6.3c1.5,2.7,2.3,5.9,2.3,9.6
		c0,3.6-0.8,6.8-2.3,9.6c-1.5,2.7-3.7,4.9-6.4,6.4C91,234,87.8,234.7,84.1,234.7z M92.9,216.6c0-3-0.8-5.4-2.5-7.3s-3.8-2.8-6.4-2.8
		c-2.6,0-4.7,1-6.4,2.9c-1.7,1.9-2.5,4.4-2.5,7.4s0.8,5.4,2.5,7.3s3.8,2.8,6.4,2.8c2.6,0,4.7-1,6.4-2.9
		C92.1,222,92.9,219.5,92.9,216.6z"/>
	<path id="XMLID_609_" d="M125.2,208.5c-2.3,1.1-4.4,2.6-6.4,4.3v21h-9.2v-34.5h4.8l3.1,5.8c1.7-1.5,3.6-2.8,5.8-4
		c2.2-1.2,4.2-1.8,5.9-1.8l1.8,7.4C129.5,206.8,127.5,207.4,125.2,208.5z"/>
	<path id="XMLID_611_" d="M152.3,198.5c3.5,0,6.4,0.8,8.7,2.4c2.4,1.6,4.1,3.8,5.3,6.5c1.1,2.7,1.7,5.8,1.7,9.1v2.8h-23.2
		c0.5,2.4,1.5,4.3,3.1,5.5c1.6,1.3,4,1.9,7.3,1.9c1.9,0,3.6-0.3,5.1-0.8c1.5-0.5,3.1-1.3,4.9-2.3l2.7,6.7c-1.8,1.4-3.6,2.4-5.7,3.2
		c-2,0.7-4.5,1.1-7.2,1.1c-6.5,0-11.5-1.6-14.9-4.8c-3.4-3.2-5.1-7.6-5.1-13.2c0-3.6,0.7-6.8,2.1-9.6c1.4-2.7,3.4-4.9,6-6.4
		C145.6,199.3,148.7,198.5,152.3,198.5z M152,206.4c-1.9,0-3.5,0.6-4.8,1.7c-1.3,1.2-2.1,2.9-2.5,5.1h14.4c-0.5-2.3-1.3-4-2.5-5.1
		C155.5,207,153.9,206.4,152,206.4z"/>
	<path id="XMLID_614_" d="M205.6,216.7c0,3.5-0.7,6.6-2,9.3c-1.3,2.7-3.1,4.9-5.5,6.5c-2.4,1.6-5.2,2.3-8.6,2.3
		c-3,0-6.1-1.3-9.3-3.8l-0.9,2.9h-2.9v-49.4l4.4-0.7v18c2.8-2.2,5.8-3.3,9-3.3c5,0,8.8,1.7,11.6,5
		C204.2,206.8,205.6,211.2,205.6,216.7z M201.1,216.8c0-4.5-0.9-8-2.8-10.6c-1.8-2.6-4.6-3.9-8.4-3.9c-1.9,0-3.6,0.4-5,1.1
		c-1.5,0.7-2.8,1.7-4,3v21.2c1.3,1.1,2.6,2,4,2.7s3,1,5,1c3.6,0,6.4-1.3,8.3-4C200.1,224.4,201.1,221,201.1,216.8z"/>
	<path id="XMLID_617_" d="M219.7,188.6c0,0.9-0.3,1.7-1,2.4c-0.7,0.6-1.5,1-2.4,1c-1,0-1.8-0.3-2.4-1c-0.6-0.6-0.9-1.4-0.9-2.4
		s0.3-1.7,0.9-2.4c0.6-0.6,1.4-1,2.4-1c0.9,0,1.7,0.3,2.4,1C219.4,186.8,219.7,187.6,219.7,188.6z M218.6,199.4v34.5h-4.5v-34.5
		H218.6z"/>
	<path id="XMLID_620_" d="M236.9,200.1h6.3l1.5,3.3h-7.7v21.7c0,1.8,0.4,3.2,1.2,4.3c0.8,1,2,1.6,3.7,1.6c0.9,0,1.9-0.2,2.9-0.6
		l0.9,3.6c-0.1,0-0.6,0.2-1.4,0.5c-0.8,0.3-1.9,0.4-3.3,0.4c-2.6,0-4.6-0.8-6.1-2.4c-1.5-1.6-2.3-3.8-2.3-6.8v-22.2h-5l-0.1-3.3h5.1
		v-9l4.5-1.6V200.1z"/>
	<path id="XMLID_622_" d="M263,234.8c-1.6,0-3.5-0.2-5.6-0.7c-2.2-0.5-3.8-1.1-5.1-2l1.4-3.3c3.3,1.6,6.5,2.4,9.4,2.4
		c2.9,0,5.2-0.5,6.9-1.5c1.7-1,2.5-2.4,2.5-4.3c0-2.7-3.1-5.2-9.4-7.4c-3.3-1.1-6-2.4-8.1-4c-2.1-1.6-3.1-3.6-3.1-6
		c0-3,1.1-5.3,3.4-7c2.3-1.7,5.4-2.5,9.2-2.5c1.6,0,3.4,0.3,5.5,0.8c2.1,0.5,3.7,1.2,4.8,2l-1.4,3.1c-1.6-0.8-3-1.3-4.3-1.8
		c-1.3-0.4-2.9-0.6-4.8-0.6c-2.4,0-4.4,0.5-6,1.6c-1.6,1.1-2.3,2.4-2.3,4.1c0,1.5,0.8,2.7,2.4,3.7c1.5,1,3.7,2,6.6,2.9
		c7.7,2.7,11.5,6.3,11.5,10.7c0,3-1.2,5.4-3.6,7.1C270.7,233.9,267.4,234.8,263,234.8z"/>
</g>
</svg>
