<?xml version="1.0" encoding="utf-8"?>
<!-- Generator: Adobe Illustrator 19.0.0, SVG Export Plug-In . SVG Version: 6.00 Build 0)  -->
<svg version="1.1" id="Layer_1" xmlns="http://www.w3.org/2000/svg" xmlns:xlink="http://www.w3.org/1999/xlink" x="0px" y="0px"
	 viewBox="0 0 584.3 123.5" style="enable-background:new 0 0 584.3 123.5;" xml:space="preserve">
<g id="XMLID_74_">
	<path id="XMLID_602_" d="M36.4,114.3c-3.7,0-8-0.6-12.9-1.9c-4.9-1.3-8.9-3.1-12-5.5l5.8-13c7.3,3.3,13.6,4.9,18.8,4.9
		c3,0,5.7-0.5,8.2-1.6c2.5-1.1,3.7-2.6,3.7-4.6c0-3.9-4.2-7.1-12.6-9.6c-6.8-2.3-12.5-5.2-17-8.7c-4.5-3.6-6.8-8-6.8-13.5
		c0-6.8,2.5-12.2,7.6-16.1c5-3.9,11.9-5.9,20.5-5.9c3.4,0,7.5,0.7,12.3,2.1c4.8,1.4,8.9,3.2,12.3,5.5l-5.8,12.9
		c-3.8-1.7-7.1-2.9-10-3.7c-2.9-0.8-6-1.2-9.1-1.2c-2.5,0-4.5,0.6-6.2,1.9c-1.6,1.2-2.4,2.7-2.4,4.4c0,1.3,1,2.4,2.9,3.5
		c1.9,1,4.7,2.2,8.4,3.5c7,2.6,12.8,5.8,17.5,9.8c4.6,4,7,8.8,7,14.5c0,7.2-2.6,12.8-7.7,16.7C53.5,112.4,46.1,114.3,36.4,114.3z"/>
	<path id="XMLID_604_" d="M103.2,40.8h13l5.9,14.8h-19v30.5c0,3.9,0.9,7,2.7,9.3c1.8,2.4,4.4,3.6,7.8,3.6c2.6,0,5.2-0.6,7.9-1.9
		l5.6,13.9c-1.5,1.2-3.7,2.2-6.6,3.1c-2.9,0.9-5.6,1.3-7.9,1.3c-9,0-16-2.3-21-6.8s-7.6-10.9-7.6-19.1V55.7h-9.6V40.8h9.6v-17
		l19.1-3.4V40.8z"/>
	<path id="XMLID_606_" d="M171.6,114.3c-7.7,0-14.4-1.5-20.2-4.6c-5.8-3.1-10.3-7.4-13.4-13.1c-3.2-5.7-4.7-12.3-4.7-19.9
		s1.6-14.3,4.7-20c3.2-5.7,7.6-10.2,13.4-13.3c5.8-3.1,12.5-4.7,20.2-4.7c7.7,0,14.4,1.5,20.2,4.6s10.2,7.4,13.4,13.1
		c3.2,5.7,4.7,12.3,4.7,19.9c0,7.6-1.6,14.3-4.7,20c-3.2,5.7-7.6,10.2-13.4,13.3C186,112.8,179.3,114.3,171.6,114.3z M190.1,76.4
		c0-6.2-1.7-11.3-5.2-15.3s-7.9-5.9-13.3-5.9c-5.3,0-9.8,2-13.3,6.1c-3.5,4.1-5.3,9.2-5.3,15.4c0,6.2,1.7,11.3,5.2,15.3
		c3.5,4,7.9,5.9,13.3,5.9c5.3,0,9.8-2,13.3-6.1C188.3,87.8,190.1,82.6,190.1,76.4z"/>
	<path id="XMLID_609_" d="M257.4,59.7c-4.8,2.4-9.3,5.4-13.4,9v43.9h-19.3V40.7h10.1l6.4,12c3.5-3.1,7.5-5.8,12.2-8.3
		c4.6-2.5,8.7-3.7,12.3-3.7l3.9,15.4C266.3,56.1,262.2,57.3,257.4,59.7z"/>
	<path id="XMLID_611_" d="M313.8,38.8c7.2,0,13.3,1.7,18.2,5c4.9,3.4,8.6,7.9,11,13.6c2.4,5.7,3.6,12,3.6,19v5.9h-48.5
		c1,5,3.1,8.9,6.4,11.6c3.3,2.7,8.4,4,15.2,4c4,0,7.5-0.5,10.7-1.6c3.2-1.1,6.6-2.7,10.2-4.7l5.6,13.9c-3.7,2.9-7.6,5.1-11.9,6.6
		c-4.2,1.5-9.3,2.3-15.1,2.3c-13.6,0-24-3.3-31-10c-7.1-6.7-10.6-15.9-10.6-27.6c0-7.6,1.5-14.3,4.4-20c2.9-5.7,7.1-10.2,12.5-13.3
		C300,40.3,306.4,38.8,313.8,38.8z M313.4,55.2c-4,0-7.3,1.2-9.9,3.6c-2.7,2.4-4.4,6-5.2,10.6h30.1c-1-4.7-2.7-8.3-5.3-10.7
		C320.6,56.4,317.3,55.2,313.4,55.2z"/>
	<path id="XMLID_614_" d="M425.1,76.7c-0.1,7.2-1.5,13.7-4.1,19.4c-2.6,5.7-6.4,10.2-11.4,13.5c-5,3.3-10.9,4.9-17.9,4.9
		c-6.3,0-12.8-2.7-19.4-8l-1.9,6.1h-6.1V9.4l9.2-1.5v37.6c5.8-4.5,12.1-6.8,18.8-6.8c10.4,0,18.4,3.5,24.2,10.4
		C422.3,56,425.1,65.2,425.1,76.7z M415.8,76.8c0-9.3-1.9-16.7-5.8-22.2c-3.9-5.5-9.7-8.2-17.5-8.2c-4,0-7.5,0.7-10.5,2.2
		c-3.1,1.5-5.9,3.6-8.4,6.2v44.2c2.7,2.4,5.4,4.2,8.3,5.6c2.9,1.4,6.3,2.1,10.4,2.1c7.6,0,13.4-2.8,17.4-8.4
		C413.6,92.8,415.7,85.6,415.8,76.8z"/>
	<path id="XMLID_617_" d="M454.6,18c0,2-0.7,3.6-2.1,5c-1.4,1.3-3.1,2-5,2c-2.1,0-3.8-0.7-5-2c-1.3-1.3-1.9-3-1.9-5s0.6-3.6,1.9-5
		c1.3-1.3,3-2,5-2c1.9,0,3.5,0.7,5,2C453.9,14.4,454.6,16,454.6,18z M452.3,40.7v71.9h-9.3V40.7H452.3z"/>
	<path id="XMLID_620_" d="M490.3,42.2h13l3.1,7h-16.2v45.2c0,3.8,0.8,6.7,2.4,8.9c1.6,2.2,4.2,3.3,7.6,3.3c2,0,4-0.4,6.1-1.3
		l1.8,7.6c-0.3,0.1-1.3,0.4-3,1c-1.7,0.5-4,0.8-6.8,0.8c-5.3,0-9.6-1.7-12.7-5c-3.2-3.3-4.7-8-4.7-14.2V49.1h-10.5l-0.1-7H481V23.5
		l9.3-3.3V42.2z"/>
	<path id="XMLID_622_" d="M544.9,114.5c-3.4,0-7.3-0.5-11.8-1.6c-4.5-1-8-2.4-10.6-4.1l3-6.8c6.9,3.4,13.5,5,19.7,5
		c6.1,0,10.9-1,14.4-3.1c3.5-2.1,5.2-5.1,5.2-9c0-5.7-6.5-10.9-19.6-15.4c-6.9-2.3-12.5-5-16.8-8.3c-4.3-3.3-6.4-7.5-6.4-12.6
		c0-6.2,2.4-11.1,7.1-14.6s11.2-5.3,19.3-5.3c3.3,0,7.1,0.6,11.6,1.7s7.8,2.5,10.1,4.2l-3,6.5c-3.3-1.6-6.3-2.8-9-3.7
		c-2.8-0.9-6.1-1.3-9.9-1.3c-5,0-9.2,1.1-12.4,3.3c-3.3,2.2-4.9,5.1-4.9,8.5c0.1,3.1,1.8,5.7,5,7.8c3.2,2.1,7.8,4.2,13.7,6.1
		c16,5.6,24,13,24,22.2c0,6.3-2.5,11.3-7.4,14.9C561,112.7,554,114.5,544.9,114.5z"/>
</g>
</svg>
