<?xml version="1.0" encoding="utf-8"?>
<!-- Generator: Adobe Illustrator 19.0.0, SVG Export Plug-In . SVG Version: 6.00 Build 0)  -->
<svg version="1.1" id="Layer_1" xmlns="http://www.w3.org/2000/svg" xmlns:xlink="http://www.w3.org/1999/xlink" x="0px" y="0px"
	 viewBox="-219 323.5 584.3 123.5" style="enable-background:new -219 323.5 584.3 123.5;" xml:space="preserve">
<style type="text/css">
	.st0{fill:#1E5D84;}
</style>
<g id="XMLID_74_">
	<path id="XMLID_602_" class="st0" d="M-182.6,437.8c-3.7,0-8-0.6-12.9-1.9c-4.9-1.3-8.9-3.1-12-5.5l5.8-13
		c7.3,3.3,13.6,4.9,18.8,4.9c3,0,5.7-0.5,8.2-1.6c2.5-1.1,3.7-2.6,3.7-4.6c0-3.9-4.2-7.1-12.6-9.6c-6.8-2.3-12.5-5.2-17-8.7
		c-4.5-3.6-6.8-8-6.8-13.5c0-6.8,2.5-12.2,7.6-16.1c5-3.9,11.9-5.9,20.5-5.9c3.4,0,7.5,0.7,12.3,2.1c4.8,1.4,8.9,3.2,12.3,5.5
		l-5.8,12.9c-3.8-1.7-7.1-2.9-10-3.7c-2.9-0.8-6-1.2-9.1-1.2c-2.5,0-4.5,0.6-6.2,1.9c-1.6,1.2-2.4,2.7-2.4,4.4c0,1.3,1,2.4,2.9,3.5
		c1.9,1,4.7,2.2,8.4,3.5c7,2.6,12.8,5.8,17.5,9.8c4.6,4,7,8.8,7,14.5c0,7.2-2.6,12.8-7.7,16.7C-165.5,435.9-172.9,437.8-182.6,437.8
		z"/>
	<path id="XMLID_604_" class="st0" d="M-115.8,364.3h13l5.9,14.8h-19v30.5c0,3.9,0.9,7,2.7,9.3c1.8,2.4,4.4,3.6,7.8,3.6
		c2.6,0,5.2-0.6,7.9-1.9l5.6,13.9c-1.5,1.2-3.7,2.2-6.6,3.1s-5.6,1.3-7.9,1.3c-9,0-16-2.3-21-6.8c-5-4.5-7.6-10.9-7.6-19.1v-33.8
		h-9.6v-14.9h9.6v-17l19.1-3.4L-115.8,364.3L-115.8,364.3z"/>
	<path id="XMLID_606_" class="st0" d="M-47.4,437.8c-7.7,0-14.4-1.5-20.2-4.6c-5.8-3.1-10.3-7.4-13.4-13.1
		c-3.2-5.7-4.7-12.3-4.7-19.9c0-7.6,1.6-14.3,4.7-20c3.2-5.7,7.6-10.2,13.4-13.3c5.8-3.1,12.5-4.7,20.2-4.7s14.4,1.5,20.2,4.6
		c5.8,3.1,10.2,7.4,13.4,13.1c3.2,5.7,4.7,12.3,4.7,19.9c0,7.6-1.6,14.3-4.7,20c-3.2,5.7-7.6,10.2-13.4,13.3
		C-33,436.3-39.7,437.8-47.4,437.8z M-28.9,399.9c0-6.2-1.7-11.3-5.2-15.3s-7.9-5.9-13.3-5.9c-5.3,0-9.8,2-13.3,6.1
		c-3.5,4.1-5.3,9.2-5.3,15.4c0,6.2,1.7,11.3,5.2,15.3s7.9,5.9,13.3,5.9c5.3,0,9.8-2,13.3-6.1C-30.7,411.3-28.9,406.1-28.9,399.9z"/>
	<path id="XMLID_609_" class="st0" d="M38.4,383.2c-4.8,2.4-9.3,5.4-13.4,9v43.9H5.7v-71.9h10.1l6.4,12c3.5-3.1,7.5-5.8,12.2-8.3
		c4.6-2.5,8.7-3.7,12.3-3.7l3.9,15.4C47.3,379.6,43.2,380.8,38.4,383.2z"/>
	<path id="XMLID_611_" class="st0" d="M94.8,362.3c7.2,0,13.3,1.7,18.2,5c4.9,3.4,8.6,7.9,11,13.6c2.4,5.7,3.6,12,3.6,19v5.9H79.1
		c1,5,3.1,8.9,6.4,11.6c3.3,2.7,8.4,4,15.2,4c4,0,7.5-0.5,10.7-1.6c3.2-1.1,6.6-2.7,10.2-4.7l5.6,13.9c-3.7,2.9-7.6,5.1-11.9,6.6
		c-4.2,1.5-9.3,2.3-15.1,2.3c-13.6,0-24-3.3-31-10c-7.1-6.7-10.6-15.9-10.6-27.6c0-7.6,1.5-14.3,4.4-20c2.9-5.7,7.1-10.2,12.5-13.3
		C81,363.8,87.4,362.3,94.8,362.3z M94.4,378.7c-4,0-7.3,1.2-9.9,3.6c-2.7,2.4-4.4,6-5.2,10.6h30.1c-1-4.7-2.7-8.3-5.3-10.7
		C101.6,379.9,98.3,378.7,94.4,378.7z"/>
	<path id="XMLID_614_" class="st0" d="M206.1,400.2c-0.1,7.2-1.5,13.7-4.1,19.4c-2.6,5.7-6.4,10.2-11.4,13.5
		c-5,3.3-10.9,4.9-17.9,4.9c-6.3,0-12.8-2.7-19.4-8l-1.9,6.1h-6.1V332.9l9.2-1.5V369c5.8-4.5,12.1-6.8,18.8-6.8
		c10.4,0,18.4,3.5,24.2,10.4C203.3,379.5,206.1,388.7,206.1,400.2z M196.8,400.3c0-9.3-1.9-16.7-5.8-22.2s-9.7-8.2-17.5-8.2
		c-4,0-7.5,0.7-10.5,2.2c-3.1,1.5-5.9,3.6-8.4,6.2v44.2c2.7,2.4,5.4,4.2,8.3,5.6s6.3,2.1,10.4,2.1c7.6,0,13.4-2.8,17.4-8.4
		C194.6,416.3,196.7,409.1,196.8,400.3z"/>
	<path id="XMLID_617_" class="st0" d="M235.6,341.5c0,2-0.7,3.6-2.1,5c-1.4,1.3-3.1,2-5,2c-2.1,0-3.8-0.7-5-2c-1.3-1.3-1.9-3-1.9-5
		s0.6-3.6,1.9-5c1.3-1.3,3-2,5-2c1.9,0,3.5,0.7,5,2C234.9,337.9,235.6,339.5,235.6,341.5z M233.3,364.2v71.9H224v-71.9H233.3z"/>
	<path id="XMLID_620_" class="st0" d="M271.3,365.7h13l3.1,7h-16.2v45.2c0,3.8,0.8,6.7,2.4,8.9c1.6,2.2,4.2,3.3,7.6,3.3
		c2,0,4-0.4,6.1-1.3l1.8,7.6c-0.3,0.1-1.3,0.4-3,1c-1.7,0.5-4,0.8-6.8,0.8c-5.3,0-9.6-1.7-12.7-5c-3.2-3.3-4.7-8-4.7-14.2v-46.4
		h-10.5l-0.1-7H262V347l9.3-3.3V365.7z"/>
	<path id="XMLID_622_" class="st0" d="M325.9,438c-3.4,0-7.3-0.5-11.8-1.6c-4.5-1-8-2.4-10.6-4.1l3-6.8c6.9,3.4,13.5,5,19.7,5
		c6.1,0,10.9-1,14.4-3.1s5.2-5.1,5.2-9c0-5.7-6.5-10.9-19.6-15.4c-6.9-2.3-12.5-5-16.8-8.3c-4.3-3.3-6.4-7.5-6.4-12.6
		c0-6.2,2.4-11.1,7.1-14.6s11.2-5.3,19.3-5.3c3.3,0,7.1,0.6,11.6,1.7s7.8,2.5,10.1,4.2l-3,6.5c-3.3-1.6-6.3-2.8-9-3.7
		c-2.8-0.9-6.1-1.3-9.9-1.3c-5,0-9.2,1.1-12.4,3.3c-3.3,2.2-4.9,5.1-4.9,8.5c0.1,3.1,1.8,5.7,5,7.8c3.2,2.1,7.8,4.2,13.7,6.1
		c16,5.6,24,13,24,22.2c0,6.3-2.5,11.3-7.4,14.9C342,436.2,335,438,325.9,438z"/>
</g>
</svg>
