<?xml version="1.0" encoding="utf-8"?>
<!-- Generator: Adobe Illustrator 19.0.0, SVG Export Plug-In . SVG Version: 6.00 Build 0)  -->
<svg version="1.1" id="Layer_1" xmlns="http://www.w3.org/2000/svg" xmlns:xlink="http://www.w3.org/1999/xlink" x="0px" y="0px"
	 viewBox="-369 265.8 284 239.2" style="enable-background:new -369 265.8 284 239.2;" xml:space="preserve">
<style type="text/css">
	.st0{fill:#238648;}
	.st1{fill:#309A47;}
	.st2{fill:#61B44D;}
	.st3{fill:#89C655;}
	.st4{fill:#FFFFFF;}
	.st5{opacity:0.4;fill:#238648;}
	.st6{opacity:0.1;fill:#89C655;}
</style>
<g id="XMLID_74_">
	<g>
		<path id="XMLID_102_" class="st0" d="M-349.7,500.5c-1.8,0-3.8-0.3-6.2-0.9c-2.4-0.6-4.3-1.5-5.8-2.6l2.8-6.3
			c3.5,1.6,6.5,2.3,9,2.3c1.4,0,2.7-0.3,3.9-0.8s1.8-1.3,1.8-2.2c0-1.8-2-3.4-6-4.6c-3.3-1.1-6-2.5-8.2-4.2
			c-2.2-1.7-3.3-3.9-3.3-6.5c0-3.3,1.2-5.8,3.6-7.7c2.4-1.9,5.7-2.8,9.8-2.8c1.6,0,3.6,0.3,5.9,1c2.3,0.7,4.3,1.5,5.9,2.6l-2.8,6.2
			c-1.8-0.8-3.4-1.4-4.8-1.8s-2.9-0.6-4.4-0.6c-1.2,0-2.2,0.3-2.9,0.9c-0.8,0.6-1.2,1.3-1.2,2.1c0,0.6,0.5,1.2,1.4,1.7
			c0.9,0.5,2.3,1.1,4,1.7c3.4,1.2,6.2,2.8,8.4,4.7c2.2,1.9,3.3,4.2,3.3,7c0,3.5-1.2,6.1-3.7,8C-341.5,499.6-345.1,500.5-349.7,500.5
			z"/>
		<path id="XMLID_101_" class="st0" d="M-317.7,465.3h6.3l2.8,7.1h-9.1V487c0,1.8,0.4,3.3,1.3,4.5c0.9,1.1,2.1,1.7,3.7,1.7
			c1.2,0,2.5-0.3,3.8-0.9l2.7,6.7c-0.7,0.6-1.8,1.1-3.2,1.5c-1.4,0.4-2.7,0.6-3.8,0.6c-4.3,0-7.7-1.1-10.1-3.3
			c-2.4-2.2-3.6-5.2-3.6-9.2v-16.3h-4.6v-7.1h4.6V457l9.2-1.6V465.3z"/>
		<path id="XMLID_100_" class="st0" d="M-284.9,500.5c-3.7,0-6.9-0.7-9.7-2.2c-2.8-1.5-4.9-3.6-6.4-6.3c-1.5-2.7-2.3-5.9-2.3-9.6
			s0.8-6.8,2.3-9.6c1.5-2.7,3.7-4.9,6.4-6.4c2.8-1.5,6-2.2,9.7-2.2c3.7,0,6.9,0.7,9.7,2.2c2.8,1.5,4.9,3.6,6.4,6.3s2.3,5.9,2.3,9.6
			c0,3.6-0.8,6.8-2.3,9.6c-1.5,2.7-3.7,4.9-6.4,6.4C-278,499.8-281.2,500.5-284.9,500.5z M-276.1,482.4c0-3-0.8-5.4-2.5-7.3
			c-1.7-1.9-3.8-2.8-6.4-2.8s-4.7,1-6.4,2.9c-1.7,1.9-2.5,4.4-2.5,7.4s0.8,5.4,2.5,7.3c1.7,1.9,3.8,2.8,6.4,2.8s4.7-1,6.4-2.9
			C-276.9,487.8-276.1,485.3-276.1,482.4z"/>
		<path id="XMLID_99_" class="st0" d="M-243.8,474.3c-2.3,1.1-4.4,2.6-6.4,4.3v21h-9.2v-34.5h4.8l3.1,5.8c1.7-1.5,3.6-2.8,5.8-4
			s4.2-1.8,5.9-1.8l1.8,7.4C-239.5,472.6-241.5,473.2-243.8,474.3z"/>
		<path id="XMLID_98_" class="st0" d="M-216.7,464.3c3.5,0,6.4,0.8,8.7,2.4c2.4,1.6,4.1,3.8,5.3,6.5c1.1,2.7,1.7,5.8,1.7,9.1v2.8
			h-23.2c0.5,2.4,1.5,4.3,3.1,5.5c1.6,1.3,4,1.9,7.3,1.9c1.9,0,3.6-0.3,5.1-0.8s3.1-1.3,4.9-2.3l2.7,6.7c-1.8,1.4-3.6,2.4-5.7,3.2
			c-2,0.7-4.5,1.1-7.2,1.1c-6.5,0-11.5-1.6-14.9-4.8s-5.1-7.6-5.1-13.2c0-3.6,0.7-6.8,2.1-9.6c1.4-2.7,3.4-4.9,6-6.4
			C-223.4,465.1-220.3,464.3-216.7,464.3z M-217,472.2c-1.9,0-3.5,0.6-4.8,1.7c-1.3,1.2-2.1,2.9-2.5,5.1h14.4
			c-0.5-2.3-1.3-4-2.5-5.1C-213.5,472.8-215.1,472.2-217,472.2z"/>
		<path id="XMLID_97_" class="st0" d="M-163.4,482.5c0,3.5-0.7,6.6-2,9.3s-3.1,4.9-5.5,6.5s-5.2,2.3-8.6,2.3c-3,0-6.1-1.3-9.3-3.8
			l-0.9,2.9h-2.9v-49.4l4.4-0.7v18c2.8-2.2,5.8-3.3,9-3.3c5,0,8.8,1.7,11.6,5C-164.8,472.6-163.4,477-163.4,482.5z M-167.9,482.6
			c0-4.5-0.9-8-2.8-10.6c-1.8-2.6-4.6-3.9-8.4-3.9c-1.9,0-3.6,0.4-5,1.1c-1.5,0.7-2.8,1.7-4,3v21.2c1.3,1.1,2.6,2,4,2.7
			c1.4,0.7,3,1,5,1c3.6,0,6.4-1.3,8.3-4C-168.9,490.2-167.9,486.8-167.9,482.6z"/>
		<path id="XMLID_96_" class="st0" d="M-149.3,454.4c0,0.9-0.3,1.7-1,2.4c-0.7,0.6-1.5,1-2.4,1c-1,0-1.8-0.3-2.4-1
			c-0.6-0.6-0.9-1.4-0.9-2.4s0.3-1.7,0.9-2.4c0.6-0.6,1.4-1,2.4-1c0.9,0,1.7,0.3,2.4,1C-149.6,452.6-149.3,453.4-149.3,454.4z
			 M-150.4,465.2v34.5h-4.5v-34.5H-150.4z"/>
		<path id="XMLID_95_" class="st0" d="M-132.1,465.9h6.3l1.5,3.3h-7.7v21.7c0,1.8,0.4,3.2,1.2,4.3c0.8,1,2,1.6,3.7,1.6
			c0.9,0,1.9-0.2,2.9-0.6l0.9,3.6c-0.1,0-0.6,0.2-1.4,0.5c-0.8,0.3-1.9,0.4-3.3,0.4c-2.6,0-4.6-0.8-6.1-2.4
			c-1.5-1.6-2.3-3.8-2.3-6.8v-22.2h-5l-0.1-3.3h5.1v-9l4.5-1.6v10.5H-132.1z"/>
		<path id="XMLID_94_" class="st0" d="M-106,500.6c-1.6,0-3.5-0.2-5.6-0.7c-2.2-0.5-3.8-1.1-5.1-2l1.4-3.3c3.3,1.6,6.5,2.4,9.4,2.4
			s5.2-0.5,6.9-1.5c1.7-1,2.5-2.4,2.5-4.3c0-2.7-3.1-5.2-9.4-7.4c-3.3-1.1-6-2.4-8.1-4s-3.1-3.6-3.1-6c0-3,1.1-5.3,3.4-7
			s5.4-2.5,9.2-2.5c1.6,0,3.4,0.3,5.5,0.8s3.7,1.2,4.8,2l-1.4,3.1c-1.6-0.8-3-1.3-4.3-1.8c-1.3-0.4-2.9-0.6-4.8-0.6
			c-2.4,0-4.4,0.5-6,1.6s-2.3,2.4-2.3,4.1c0,1.5,0.8,2.7,2.4,3.7c1.5,1,3.7,2,6.6,2.9c7.7,2.7,11.5,6.3,11.5,10.7
			c0,3-1.2,5.4-3.6,7.1C-98.3,499.7-101.6,500.6-106,500.6z"/>
	</g>
</g>
<path id="XMLID_47_" class="st0" d="M-96.2,374.3c0,29.6-21.3,54.2-49.4,59.3c-1.8,0.3-3.5,0.6-5.3,0.7v0.3h-156.4
	c-5.1,0-10-0.8-14.7-2.2c-20-6-34.7-24.1-35.8-45.7c-0.1-0.9-0.1-1.8-0.1-2.7c0-8.2,1.9-15.9,5.4-22.8c4.4-8.7,11.2-15.9,19.5-20.8
	c5.8-3.5,12.4-5.8,19.5-6.6c8.4-36.6,41.1-63.9,80.2-63.9c31.7,0,59.2,17.9,72.9,44.1c1.3-0.1,2.5-0.1,3.8-0.1
	c5.9,0,11.7,0.9,17.1,2.5c8.9,2.6,17,7.3,23.6,13.4C-103.7,340.8-96.2,356.7-96.2,374.3z"/>
<path id="XMLID_40_" class="st1" d="M-113.8,352.3c0,31.4-12.1,59.9-31.9,81.3c-1.8,0.3-3.5,0.6-5.3,0.7v0.3h-156.3
	c-5.1,0-10-0.8-14.6-2.2c-17.3-19.1-28.5-43.8-30.5-71.1c7.4-14.7,21.9-25.3,39-27.4c8.4-36.6,41.1-63.9,80.2-63.9
	c31.7,0,59.1,17.9,72.9,44.1c1.3-0.1,2.5-0.1,3.8-0.1c15.7,0,30,6,40.7,15.8C-114.6,337.1-113.8,344.6-113.8,352.3z"/>
<path id="XMLID_39_" class="st2" d="M-133,352.3c0,34-16.9,64.1-42.9,82.3h-115c-25.9-18.1-42.9-48.2-42.9-82.3
	c0-4,0.2-7.9,0.7-11.8c5.8-3.5,12.4-5.8,19.5-6.6c8.4-36.6,41.1-63.9,80.2-63.9c31.7,0,59.1,17.9,72.9,44.1c1.3-0.1,2.5-0.1,3.8-0.1
	c5.9,0,11.7,0.9,17.1,2.5C-135.3,327.6-133,339.7-133,352.3z"/>
<path id="XMLID_55_" class="st3" d="M-151.1,352.3c0,14.4-3.7,27.9-10.2,39.6c-2,3.7-4.4,7.2-6.9,10.6c-15,19.5-38.6,32.1-65.2,32.1
	c-45.4,0-82.3-36.8-82.3-82.3c0-45.4,36.8-82.3,82.3-82.3C-187.9,270-151.1,306.9-151.1,352.3z"/>
<circle id="XMLID_5_" class="st4" cx="-142.4" cy="343.2" r="9"/>
<circle id="XMLID_10_" class="st5" cx="-235" cy="353.5" r="63.7"/>
<circle id="XMLID_7_" class="st4" cx="-233.3" cy="352.3" r="63.7"/>
<path id="XMLID_31_" class="st6" d="M-233.3,296v39.5c9.3,0,16.8,7.5,16.8,16.8h39.5C-177,321.2-202.2,296-233.3,296z"/>
<path id="XMLID_11_" class="st6" d="M-233.3,408.6v-39.5c-9.3,0-16.8-7.5-16.8-16.8h-39.5C-289.6,383.4-264.4,408.6-233.3,408.6z"/>
<path id="XMLID_41_" class="st3" d="M-161.2,392c-2,3.7-4.4,7.2-6.9,10.6c-1.1,0.2-2.1,0.2-3.2-0.1l-46.1-13.3
	c-2.5-0.7-3.9-3.5-3.3-6.3c0.6-2.6,2.7-4.5,5-4.5c0.2,0,0.4,0,0.6,0l47.5,6.7C-164.2,385.4-161.7,388.3-161.2,392z"/>
<polygon id="XMLID_8_" class="st4" points="-196.2,380.9 -157.9,386.2 -185,374.9 "/>
<circle id="XMLID_3_" class="st0" cx="-233.3" cy="352.3" r="11.1"/>
<circle id="XMLID_6_" class="st4" cx="-154.4" cy="398" r="3.5"/>
</svg>
