<?xml version="1.0" encoding="utf-8"?>
<!-- Generator: Adobe Illustrator 19.0.0, SVG Export Plug-In . SVG Version: 6.00 Build 0)  -->
<svg version="1.1" id="Layer_1" xmlns="http://www.w3.org/2000/svg" xmlns:xlink="http://www.w3.org/1999/xlink" x="0px" y="0px"
	 viewBox="-207 313 609 144" style="enable-background:new -207 313 609 144;" xml:space="preserve">
<style type="text/css">
	.st0{fill:#238648;}
	.st1{fill:#309A47;}
	.st2{fill:#61B44D;}
	.st3{fill:#89C655;}
	.st4{fill:#FFFFFF;}
	.st5{opacity:0.4;fill:#238648;}
	.st6{opacity:0.1;fill:#89C655;}
	.st7{fill:#2B72B8;}
	.st8{fill:#3A92CF;}
	.st9{fill:#3BB6AB;}
	.st10{opacity:0.4;fill:#1E5D84;}
	.st11{opacity:0.1;fill:#3BB6AB;}
	.st12{fill:#1E5D84;}
</style>
<g id="XMLID_74_">
	<g>
		<path id="XMLID_140_" class="st0" d="M38,428.9c-2.4,0-5.3-0.4-8.6-1.3s-5.9-2.1-8-3.6l3.8-8.7c4.9,2.2,9,3.2,12.5,3.2
			c2,0,3.8-0.4,5.4-1.1c1.6-0.7,2.5-1.7,2.5-3.1c0-2.6-2.8-4.7-8.4-6.4c-4.5-1.5-8.3-3.4-11.3-5.8s-4.5-5.3-4.5-9
			c0-4.5,1.7-8.1,5-10.7s7.9-3.9,13.6-3.9c2.2,0,5,0.5,8.2,1.4s5.9,2.1,8.2,3.6l-3.8,8.6c-2.5-1.1-4.7-1.9-6.6-2.5
			c-1.9-0.5-4-0.8-6.1-0.8c-1.6,0-3,0.4-4.1,1.2s-1.6,1.8-1.6,2.9c0,0.9,0.6,1.6,1.9,2.3c1.3,0.7,3.1,1.5,5.6,2.3
			c4.7,1.7,8.5,3.9,11.6,6.5s4.6,5.8,4.6,9.6c0,4.8-1.7,8.5-5.1,11.1C49.4,427.6,44.5,428.9,38,428.9z"/>
		<path id="XMLID_139_" class="st0" d="M82.4,380h8.7l3.9,9.8H82.4v20.3c0,2.6,0.6,4.6,1.8,6.2c1.2,1.6,2.9,2.4,5.2,2.4
			c1.7,0,3.4-0.4,5.2-1.3l3.7,9.2c-1,0.8-2.4,1.5-4.4,2.1c-1.9,0.6-3.7,0.9-5.3,0.9c-6,0-10.6-1.5-14-4.5c-3.3-3-5-7.2-5-12.7v-22.5
			h-6.4V380h6.4v-11.3l12.7-2.3L82.4,380L82.4,380z"/>
		<path id="XMLID_138_" class="st0" d="M127.8,428.9c-5.1,0-9.6-1-13.4-3.1c-3.8-2-6.8-4.9-8.9-8.7c-2.1-3.8-3.1-8.2-3.1-13.2
			c0-5.1,1-9.5,3.1-13.3s5.1-6.7,8.9-8.8c3.8-2.1,8.3-3.1,13.4-3.1s9.6,1,13.4,3.1c3.8,2,6.8,4.9,8.9,8.7s3.1,8.2,3.1,13.2
			c0,5.1-1.1,9.5-3.1,13.3c-2.1,3.8-5.1,6.7-8.9,8.8C137.4,427.8,132.9,428.9,127.8,428.9z M140.1,403.7c0-4.1-1.1-7.5-3.4-10.1
			s-5.2-3.9-8.9-3.9c-3.5,0-6.5,1.3-8.8,4c-2.3,2.7-3.5,6.1-3.5,10.2s1.1,7.5,3.4,10.1c2.3,2.6,5.2,3.9,8.9,3.9c3.5,0,6.5-1.3,8.8-4
			S140.1,407.8,140.1,403.7z"/>
		<path id="XMLID_137_" class="st0" d="M184.8,392.5c-3.2,1.6-6.2,3.6-8.9,6v29.1h-12.8V380h6.7l4.2,8c2.3-2,5-3.9,8.1-5.5
			s5.8-2.5,8.2-2.5l2.6,10.2C190.6,390.2,188,391,184.8,392.5z"/>
		<path id="XMLID_136_" class="st0" d="M222.2,378.7c4.8,0,8.8,1.1,12.1,3.3c3.3,2.2,5.7,5.2,7.3,9c1.6,3.8,2.4,8,2.4,12.6v3.9
			h-32.2c0.7,3.3,2.1,5.9,4.3,7.7c2.2,1.8,5.6,2.7,10.1,2.7c2.6,0,5-0.4,7.1-1.1c2.1-0.7,4.4-1.8,6.8-3.1l3.7,9.2
			c-2.4,1.9-5.1,3.4-7.9,4.4s-6.2,1.5-10,1.5c-9.1,0-15.9-2.2-20.6-6.6c-4.7-4.4-7-10.5-7-18.3c0-5.1,1-9.5,2.9-13.3
			c1.9-3.8,4.7-6.7,8.3-8.8C213,379.7,217.3,378.7,222.2,378.7z M221.9,389.6c-2.6,0-4.8,0.8-6.6,2.4c-1.8,1.6-2.9,4-3.4,7h20
			c-0.7-3.1-1.8-5.5-3.5-7.1C226.7,390.4,224.5,389.6,221.9,389.6z"/>
		<path id="XMLID_135_" class="st0" d="M296.1,403.9c-0.1,4.8-1,9.1-2.7,12.9c-1.7,3.8-4.3,6.8-7.6,9c-3.3,2.2-7.3,3.2-11.9,3.2
			c-4.2,0-8.5-1.8-12.9-5.3l-1.3,4h-4v-68.5l6.1-1v25c3.9-3,8-4.5,12.5-4.5c6.9,0,12.2,2.3,16,6.9
			C294.2,390.2,296.1,396.3,296.1,403.9z M289.9,404c0-6.2-1.3-11.1-3.8-14.7c-2.6-3.6-6.4-5.5-11.6-5.5c-2.6,0-5,0.5-7,1.5
			s-3.9,2.4-5.6,4.1v29.3c1.8,1.6,3.6,2.8,5.5,3.7s4.2,1.4,6.9,1.4c5.1,0,8.9-1.9,11.6-5.6C288.5,414.6,289.8,409.8,289.9,404z"/>
		<path id="XMLID_134_" class="st0" d="M315.7,364.9c0,1.3-0.5,2.4-1.4,3.3c-1,0.9-2.1,1.3-3.3,1.3c-1.4,0-2.5-0.4-3.3-1.3
			c-0.9-0.9-1.3-2-1.3-3.3c0-1.3,0.4-2.4,1.3-3.3c0.9-0.9,2-1.3,3.3-1.3c1.2,0,2.3,0.4,3.3,1.3C315.2,362.5,315.7,363.6,315.7,364.9
			z M314.1,380v47.7h-6.2V380H314.1z"/>
		<path id="XMLID_133_" class="st0" d="M339.4,380.9h8.7l2.1,4.6h-10.7v30c0,2.5,0.5,4.5,1.6,5.9s2.8,2.2,5.1,2.2
			c1.3,0,2.7-0.3,4-0.9l1.2,5c-0.2,0.1-0.9,0.3-2,0.6c-1.1,0.4-2.6,0.5-4.5,0.5c-3.5,0-6.4-1.1-8.5-3.3s-3.1-5.3-3.1-9.4v-30.5h-7
			l-0.1-4.6h7.1v-12.5l6.2-2.2L339.4,380.9L339.4,380.9z"/>
		<path id="XMLID_132_" class="st0" d="M375.6,429c-2.2,0-4.8-0.3-7.8-1s-5.3-1.6-7-2.7l2-4.5c4.6,2.2,9,3.3,13.1,3.3
			s7.2-0.7,9.5-2.1c2.3-1.4,3.4-3.4,3.4-6c0-3.8-4.3-7.2-13-10.2c-4.6-1.5-8.3-3.3-11.2-5.5c-2.9-2.2-4.3-5-4.3-8.4
			c0-4.1,1.6-7.4,4.7-9.7c3.1-2.3,7.4-3.5,12.8-3.5c2.2,0,4.7,0.4,7.7,1.1c3,0.7,5.2,1.7,6.7,2.8l-2,4.3c-2.2-1-4.2-1.9-6-2.5
			c-1.8-0.6-4-0.9-6.6-0.9c-3.3,0-6.1,0.7-8.3,2.2s-3.2,3.4-3.2,5.7c0.1,2,1.2,3.8,3.3,5.2s5.2,2.8,9.1,4.1
			c10.6,3.7,15.9,8.7,15.9,14.8c0,4.2-1.6,7.5-4.9,9.9C386.3,427.8,381.6,429,375.6,429z"/>
	</g>
</g>
<path id="XMLID_40_" class="st1" d="M-15.6,385.1c0,23.6-9.1,45.2-24,61.2c-1.3,0.2-2.7,0.4-4,0.6v0.2h-117.8c-3.8,0-7.5-0.6-11-1.6
	c-13-14.4-21.5-33-23-53.6c5.6-11.1,16.5-19.1,29.4-20.7c6.3-27.6,30.9-48.1,60.4-48.1c23.9,0,44.5,13.5,54.9,33.2
	c0.9-0.1,1.9-0.1,2.9-0.1c11.8,0,22.6,4.5,30.7,11.9C-16.1,373.6-15.6,379.3-15.6,385.1z"/>
<path id="XMLID_39_" class="st2" d="M-30,385.1c0,25.7-12.8,48.3-32.3,62H-149c-19.5-13.7-32.3-36.3-32.3-62c0-3,0.2-6,0.5-8.9
	c4.4-2.6,9.4-4.3,14.7-5c6.3-27.6,30.9-48.1,60.4-48.1c23.9,0,44.5,13.5,54.9,33.2c0.9-0.1,1.9-0.1,2.9-0.1c4.5,0,8.8,0.6,12.9,1.9
	C-31.8,366.4-30,375.6-30,385.1z"/>
<path id="XMLID_55_" class="st3" d="M-43.6,385.1c0,10.8-2.8,21-7.7,29.9c-1.5,2.8-3.3,5.5-5.2,8c-11.3,14.7-29.1,24.2-49.1,24.2
	c-34.2,0-62-27.8-62-62c0-34.2,27.8-62,62-62C-71.4,323.1-43.6,350.8-43.6,385.1z"/>
<circle id="XMLID_5_" class="st4" cx="-37.1" cy="378.2" r="6.8"/>
<circle id="XMLID_10_" class="st5" cx="-106.9" cy="386" r="48"/>
<circle id="XMLID_7_" class="st4" cx="-105.6" cy="385.1" r="48"/>
<path id="XMLID_31_" class="st6" d="M-105.6,342.6v29.8c7,0,12.6,5.7,12.6,12.6h29.8C-63.2,361.6-82.2,342.6-105.6,342.6z"/>
<path id="XMLID_11_" class="st6" d="M-105.6,427.5v-29.8c-7,0-12.6-5.7-12.6-12.6h-29.8C-148.1,408.5-129.1,427.5-105.6,427.5z"/>
<path id="XMLID_41_" class="st3" d="M-51.3,414.9c-1.5,2.8-3.3,5.5-5.2,8c-0.8,0.2-1.6,0.1-2.4-0.1l-34.7-10
	c-1.9-0.5-2.9-2.6-2.5-4.8c0.4-2,2-3.4,3.8-3.4c0.2,0,0.3,0,0.5,0l35.8,5C-53.6,410-51.7,412.2-51.3,414.9z"/>
<polygon id="XMLID_8_" class="st4" points="-77.7,406.6 -48.8,410.6 -69.2,402.1 "/>
<circle id="XMLID_3_" class="st0" cx="-105.6" cy="385.1" r="8.4"/>
<circle id="XMLID_6_" class="st4" cx="-46.1" cy="419.5" r="2.7"/>
<path id="XMLID_178_" class="st7" d="M-15.5,385.1c0,23.7-9.1,45.2-24,61.3c-1.3,0.2-2.7,0.4-4,0.6v0.2h-117.8
	c-3.8,0-7.5-0.6-11-1.6c-13-14.4-21.5-33-23-53.6c5.6-11.1,16.5-19.1,29.4-20.7c6.3-27.6,31-48.1,60.4-48.1
	c23.9,0,44.6,13.5,54.9,33.2c0.9-0.1,1.9-0.1,2.9-0.1c11.8,0,22.6,4.5,30.7,11.9C-16,373.6-15.5,379.3-15.5,385.1z"/>
<path id="XMLID_175_" class="st8" d="M-29.9,385.1c0,25.7-12.8,48.3-32.3,62h-86.6c-19.5-13.7-32.3-36.3-32.3-62c0-3,0.2-6,0.5-8.9
	c4.4-2.6,9.4-4.3,14.7-5c6.3-27.6,31-48.1,60.4-48.1c23.9,0,44.6,13.5,54.9,33.2c0.9-0.1,1.9-0.1,2.9-0.1c4.5,0,8.8,0.6,12.9,1.9
	C-31.6,366.4-29.9,375.5-29.9,385.1z"/>
<path id="XMLID_172_" class="st9" d="M-43.5,385.1c0,10.8-2.8,21-7.7,29.9c-1.5,2.8-3.3,5.5-5.2,8c-11.3,14.7-29.1,24.2-49.1,24.2
	c-34.2,0-62-27.8-62-62c0-34.3,27.8-62,62-62C-71.3,323.1-43.5,350.8-43.5,385.1z"/>
<circle id="XMLID_171_" class="st4" cx="-37" cy="378.2" r="6.8"/>
<circle id="XMLID_168_" class="st10" cx="-106.8" cy="386" r="48"/>
<circle id="XMLID_165_" class="st4" cx="-105.5" cy="385.1" r="48"/>
<path id="XMLID_159_" class="st11" d="M-105.5,342.6v29.8c7,0,12.6,5.7,12.6,12.6h29.8C-63.1,361.6-82.1,342.6-105.5,342.6z"/>
<path id="XMLID_153_" class="st11" d="M-105.5,427.5v-29.8c-7,0-12.6-5.7-12.6-12.6H-148C-148,408.5-129,427.5-105.5,427.5z"/>
<path id="XMLID_150_" class="st9" d="M-51.2,414.9c-1.5,2.8-3.3,5.5-5.2,8c-0.8,0.2-1.6,0.1-2.4-0.1l-34.7-10
	c-1.9-0.5-2.9-2.6-2.5-4.8c0.4-2,2-3.4,3.8-3.4c0.2,0,0.3,0,0.5,0l35.8,5C-53.4,410-51.5,412.2-51.2,414.9z"/>
<polygon id="XMLID_149_" class="st4" points="-77.5,406.6 -48.7,410.6 -69.1,402.1 "/>
<circle id="XMLID_146_" class="st12" cx="-105.5" cy="385.1" r="8.4"/>
<circle id="XMLID_143_" class="st4" cx="-46" cy="419.5" r="2.7"/>
<path id="XMLID_68_" class="st0" d="M-2.3,401.6c0,22.3-16,40.8-37.2,44.7c-1.3,0.2-2.7,0.4-4,0.6v0.2h-117.9c-3.8,0-7.6-0.6-11-1.6
	c-15-4.5-26.1-18.1-27-34.4c0-0.7-0.1-1.4-0.1-2.1c0-6.2,1.5-12,4.1-17.1c3.3-6.5,8.4-12,14.7-15.7c4.4-2.6,9.4-4.3,14.7-5
	c6.3-27.6,31-48.2,60.5-48.2c23.9,0,44.6,13.5,55,33.3c0.9-0.1,1.9-0.1,2.9-0.1c4.5,0,8.8,0.7,12.9,1.9c6.7,2,12.8,5.5,17.8,10.1
	C-8,376.4-2.3,388.3-2.3,401.6z"/>
<path id="XMLID_65_" class="st1" d="M-15.5,385c0,23.7-9.1,45.2-24.1,61.3c-1.3,0.2-2.7,0.4-4,0.6v0.2h-117.9c-3.8,0-7.6-0.6-11-1.6
	c-13-14.4-21.5-33.1-23-53.6c5.6-11.1,16.5-19.1,29.4-20.7c6.3-27.6,31-48.2,60.5-48.2c23.9,0,44.6,13.5,55,33.3
	c0.9-0.1,1.9-0.1,2.9-0.1c11.8,0,22.6,4.5,30.7,11.9C-16,373.5-15.5,379.2-15.5,385z"/>
<path id="XMLID_62_" class="st2" d="M-29.9,385c0,25.7-12.8,48.4-32.3,62.1H-149c-19.6-13.7-32.3-36.4-32.3-62.1c0-3,0.2-6,0.5-8.9
	c4.4-2.6,9.4-4.3,14.7-5c6.3-27.6,31-48.2,60.5-48.2c23.9,0,44.6,13.5,55,33.3c0.9-0.1,1.9-0.1,2.9-0.1c4.5,0,8.8,0.7,12.9,1.9
	C-31.7,366.4-29.9,375.5-29.9,385z"/>
<path id="XMLID_59_" class="st3" d="M-43.5,385c0,10.8-2.8,21-7.7,29.9c-1.5,2.8-3.3,5.5-5.2,8c-11.3,14.7-29.1,24.2-49.2,24.2
	c-34.3,0-62.1-27.8-62.1-62.1c0-34.3,27.8-62.1,62.1-62.1C-71.3,322.9-43.5,350.7-43.5,385z"/>
<circle id="XMLID_56_" class="st4" cx="-37" cy="378.1" r="6.8"/>
<circle id="XMLID_54_" class="st5" cx="-106.9" cy="385.9" r="48.1"/>
<circle id="XMLID_51_" class="st4" cx="-105.6" cy="385" r="48.1"/>
<path id="XMLID_48_" class="st6" d="M-105.6,342.5v29.8c7,0,12.6,5.7,12.6,12.6h29.8C-63.1,361.6-82.2,342.5-105.6,342.5z"/>
<path id="XMLID_35_" class="st6" d="M-105.6,427.5v-29.8c-7,0-12.6-5.7-12.6-12.6h-29.8C-148.1,408.5-129.1,427.5-105.6,427.5z"/>
<path id="XMLID_33_" class="st3" d="M-51.2,414.9c-1.5,2.8-3.3,5.5-5.2,8c-0.8,0.2-1.6,0.1-2.4-0.1l-34.8-10.1
	c-1.9-0.5-2.9-2.6-2.5-4.8c0.4-2,2-3.4,3.8-3.4c0.2,0,0.3,0,0.5,0l35.8,5C-53.5,410-51.6,412.2-51.2,414.9z"/>
<polygon id="XMLID_32_" class="st4" points="-77.6,406.6 -48.7,410.5 -69.2,402 "/>
<circle id="XMLID_29_" class="st0" cx="-105.6" cy="385" r="8.4"/>
<circle id="XMLID_1_" class="st4" cx="-46" cy="419.4" r="2.7"/>
</svg>
