<?xml version="1.0" encoding="utf-8"?>
<!-- Generator: Adobe Illustrator 19.0.0, SVG Export Plug-In . SVG Version: 6.00 Build 0)  -->
<svg version="1.1" id="Layer_1" xmlns="http://www.w3.org/2000/svg" xmlns:xlink="http://www.w3.org/1999/xlink" x="0px" y="0px"
	 viewBox="0 0 609 144" style="enable-background:new 0 0 609 144;" xml:space="preserve">
<style type="text/css">
	.st0{fill:#511A56;}
	.st1{fill:#8A1B50;}
	.st2{fill:#C94427;}
	.st3{fill:#F7981D;}
	.st4{fill:#FFFFFF;}
	.st5{opacity:0.2;fill:#5B3860;}
	.st6{fill:#F6F7F7;}
	.st7{opacity:5.000000e-002;fill:#511A56;}
</style>
<g id="XMLID_74_">
	<path id="XMLID_602_" class="st0" d="M245,115.9c-2.4,0-5.3-0.4-8.6-1.3c-3.3-0.9-5.9-2.1-8-3.6l3.8-8.7c4.9,2.2,9,3.2,12.5,3.2
		c2,0,3.8-0.4,5.4-1.1c1.6-0.7,2.5-1.7,2.5-3.1c0-2.6-2.8-4.7-8.4-6.4c-4.5-1.5-8.3-3.4-11.3-5.8c-3-2.4-4.5-5.3-4.5-9
		c0-4.5,1.7-8.1,5-10.7c3.3-2.6,7.9-3.9,13.6-3.9c2.2,0,5,0.5,8.2,1.4c3.2,0.9,5.9,2.1,8.2,3.6l-3.8,8.6c-2.5-1.1-4.7-1.9-6.6-2.5
		c-1.9-0.5-4-0.8-6.1-0.8c-1.6,0-3,0.4-4.1,1.2c-1.1,0.8-1.6,1.8-1.6,2.9c0,0.9,0.6,1.6,1.9,2.3c1.3,0.7,3.1,1.5,5.6,2.3
		c4.7,1.7,8.5,3.9,11.6,6.5c3.1,2.6,4.6,5.8,4.6,9.6c0,4.8-1.7,8.5-5.1,11.1C256.4,114.6,251.5,115.9,245,115.9z"/>
	<path id="XMLID_604_" class="st0" d="M289.4,67h8.7l3.9,9.8h-12.6v20.3c0,2.6,0.6,4.6,1.8,6.2c1.2,1.6,2.9,2.4,5.2,2.4
		c1.7,0,3.4-0.4,5.2-1.3l3.7,9.2c-1,0.8-2.4,1.5-4.4,2.1c-1.9,0.6-3.7,0.9-5.3,0.9c-6,0-10.6-1.5-14-4.5c-3.3-3-5-7.2-5-12.7V76.9
		h-6.4V67h6.4V55.7l12.7-2.3V67z"/>
	<path id="XMLID_606_" class="st0" d="M334.8,115.9c-5.1,0-9.6-1-13.4-3.1c-3.8-2-6.8-4.9-8.9-8.7c-2.1-3.8-3.1-8.2-3.1-13.2
		c0-5.1,1-9.5,3.1-13.3c2.1-3.8,5.1-6.7,8.9-8.8c3.8-2.1,8.3-3.1,13.4-3.1s9.6,1,13.4,3.1c3.8,2,6.8,4.9,8.9,8.7
		c2.1,3.8,3.1,8.2,3.1,13.2c0,5.1-1.1,9.5-3.1,13.3c-2.1,3.8-5.1,6.7-8.9,8.8C344.4,114.8,339.9,115.9,334.8,115.9z M347.1,90.7
		c0-4.1-1.1-7.5-3.4-10.1s-5.2-3.9-8.9-3.9c-3.5,0-6.5,1.3-8.8,4c-2.3,2.7-3.5,6.1-3.5,10.2s1.1,7.5,3.4,10.1
		c2.3,2.6,5.2,3.9,8.9,3.9c3.5,0,6.5-1.3,8.8-4C345.9,98.2,347.1,94.8,347.1,90.7z"/>
	<path id="XMLID_609_" class="st0" d="M391.8,79.5c-3.2,1.6-6.2,3.6-8.9,6v29.1h-12.8V67h6.7l4.2,8c2.3-2,5-3.9,8.1-5.5
		c3.1-1.6,5.8-2.5,8.2-2.5l2.6,10.2C397.6,77.2,395,78,391.8,79.5z"/>
	<path id="XMLID_611_" class="st0" d="M429.2,65.7c4.8,0,8.8,1.1,12.1,3.3c3.3,2.2,5.7,5.2,7.3,9c1.6,3.8,2.4,8,2.4,12.6v3.9h-32.2
		c0.7,3.3,2.1,5.9,4.3,7.7c2.2,1.8,5.6,2.7,10.1,2.7c2.6,0,5-0.4,7.1-1.1c2.1-0.7,4.4-1.8,6.8-3.1l3.7,9.2c-2.4,1.9-5.1,3.4-7.9,4.4
		c-2.8,1-6.2,1.5-10,1.5c-9.1,0-15.9-2.2-20.6-6.6c-4.7-4.4-7-10.5-7-18.3c0-5.1,1-9.5,2.9-13.3c1.9-3.8,4.7-6.7,8.3-8.8
		C420,66.7,424.3,65.7,429.2,65.7z M428.9,76.6c-2.6,0-4.8,0.8-6.6,2.4c-1.8,1.6-2.9,4-3.4,7h20c-0.7-3.1-1.8-5.5-3.5-7.1
		C433.7,77.4,431.5,76.6,428.9,76.6z"/>
	<path id="XMLID_614_" class="st0" d="M503.1,90.9c-0.1,4.8-1,9.1-2.7,12.9c-1.7,3.8-4.3,6.8-7.6,9c-3.3,2.2-7.3,3.2-11.9,3.2
		c-4.2,0-8.5-1.8-12.9-5.3l-1.3,4h-4V46.2l6.1-1v25c3.9-3,8-4.5,12.5-4.5c6.9,0,12.2,2.3,16,6.9C501.2,77.2,503.1,83.3,503.1,90.9z
		 M496.9,91c0-6.2-1.3-11.1-3.8-14.7c-2.6-3.6-6.4-5.5-11.6-5.5c-2.6,0-5,0.5-7,1.5c-2,1-3.9,2.4-5.6,4.1v29.3
		c1.8,1.6,3.6,2.8,5.5,3.7c1.9,0.9,4.2,1.4,6.9,1.4c5.1,0,8.9-1.9,11.6-5.6C495.5,101.6,496.8,96.8,496.9,91z"/>
	<path id="XMLID_617_" class="st0" d="M522.7,51.9c0,1.3-0.5,2.4-1.4,3.3c-1,0.9-2.1,1.3-3.3,1.3c-1.4,0-2.5-0.4-3.3-1.3
		c-0.9-0.9-1.3-2-1.3-3.3c0-1.3,0.4-2.4,1.3-3.3c0.9-0.9,2-1.3,3.3-1.3c1.2,0,2.3,0.4,3.3,1.3C522.2,49.5,522.7,50.6,522.7,51.9z
		 M521.1,67v47.7h-6.2V67H521.1z"/>
	<path id="XMLID_620_" class="st0" d="M546.4,67.9h8.7l2.1,4.6h-10.7v30c0,2.5,0.5,4.5,1.6,5.9c1.1,1.4,2.8,2.2,5.1,2.2
		c1.3,0,2.7-0.3,4-0.9l1.2,5c-0.2,0.1-0.9,0.3-2,0.6c-1.1,0.4-2.6,0.5-4.5,0.5c-3.5,0-6.4-1.1-8.5-3.3c-2.1-2.2-3.1-5.3-3.1-9.4
		V72.6h-7l-0.1-4.6h7.1V55.5l6.2-2.2V67.9z"/>
	<path id="XMLID_622_" class="st0" d="M582.6,116c-2.2,0-4.8-0.3-7.8-1c-3-0.7-5.3-1.6-7-2.7l2-4.5c4.6,2.2,9,3.3,13.1,3.3
		c4.1,0,7.2-0.7,9.5-2.1c2.3-1.4,3.4-3.4,3.4-6c0-3.8-4.3-7.2-13-10.2c-4.6-1.5-8.3-3.3-11.2-5.5c-2.9-2.2-4.3-5-4.3-8.4
		c0-4.1,1.6-7.4,4.7-9.7c3.1-2.3,7.4-3.5,12.8-3.5c2.2,0,4.7,0.4,7.7,1.1s5.2,1.7,6.7,2.8l-2,4.3c-2.2-1-4.2-1.9-6-2.5
		c-1.8-0.6-4-0.9-6.6-0.9c-3.3,0-6.1,0.7-8.3,2.2c-2.2,1.5-3.2,3.4-3.2,5.7c0.1,2,1.2,3.8,3.3,5.2c2.1,1.4,5.2,2.8,9.1,4.1
		c10.6,3.7,15.9,8.7,15.9,14.8c0,4.2-1.6,7.5-4.9,9.9C593.3,114.8,588.6,116,582.6,116z"/>
</g>
<g id="XMLID_624_">
	<path id="XMLID_448_" class="st0" d="M204.7,88.6c0,22.3-16,40.8-37.2,44.7c-1.3,0.2-2.7,0.4-4,0.6v0.2H45.6c-3.8,0-7.6-0.6-11-1.6
		c-15-4.5-26.1-18.1-27-34.4c0-0.7-0.1-1.4-0.1-2.1c0-6.2,1.5-12,4.1-17.1c3.3-6.5,8.4-12,14.7-15.7c4.4-2.6,9.4-4.3,14.7-5
		c6.3-27.6,31-48.2,60.5-48.2c23.9,0,44.6,13.5,55,33.3c0.9-0.1,1.9-0.1,2.9-0.1c4.5,0,8.8,0.6,12.9,1.9c6.7,2,12.8,5.5,17.8,10.1
		C199,63.4,204.7,75.3,204.7,88.6z"/>
	<path id="XMLID_445_" class="st1" d="M191.6,72c0,23.7-9.1,45.2-24.1,61.3c-1.3,0.2-2.7,0.4-4,0.6v0.2H45.6c-3.8,0-7.6-0.6-11-1.6
		c-13-14.4-21.5-33.1-23-53.6C17.2,67.7,28.1,59.7,41,58.1c6.3-27.6,31-48.2,60.5-48.2c23.9,0,44.6,13.5,55,33.3
		c0.9-0.1,1.9-0.1,2.9-0.1c11.8,0,22.6,4.5,30.7,11.9C191,60.5,191.6,66.2,191.6,72z"/>
	<path id="XMLID_442_" class="st2" d="M177.1,72c0,25.7-12.8,48.4-32.3,62H58.1c-19.6-13.7-32.3-36.4-32.3-62c0-3,0.2-6,0.5-8.9
		c4.4-2.6,9.4-4.3,14.7-5c6.3-27.6,31-48.2,60.5-48.2c23.9,0,44.6,13.5,55,33.3c0.9-0.1,1.9-0.1,2.9-0.1c4.5,0,8.8,0.6,12.9,1.9
		C175.4,53.4,177.1,62.5,177.1,72z"/>
	<path id="XMLID_439_" class="st3" d="M163.5,72c0,10.8-2.8,21-7.7,29.9c-1.5,2.8-3.3,5.5-5.2,8c-11.3,14.7-29.1,24.2-49.2,24.2
		c-34.3,0-62.1-27.8-62.1-62c0-34.3,27.8-62.1,62.1-62.1C135.7,9.9,163.5,37.7,163.5,72z"/>
	<circle id="XMLID_438_" class="st4" cx="170" cy="65.1" r="6.8"/>
	<circle id="XMLID_435_" class="st5" cx="100.2" cy="72.9" r="48.1"/>
	<circle id="XMLID_432_" class="st6" cx="101.4" cy="72" r="48.1"/>
	<path id="XMLID_426_" class="st7" d="M101.4,29.5v29.8c7,0,12.6,5.7,12.6,12.6h29.8C143.9,48.6,124.9,29.5,101.4,29.5z"/>
	<path id="XMLID_412_" class="st7" d="M101.4,114.5V84.6c-7,0-12.6-5.7-12.6-12.6H59C59,95.5,78,114.5,101.4,114.5z"/>
	<path id="XMLID_408_" class="st3" d="M155.8,101.9c-1.5,2.8-3.3,5.5-5.2,8c-0.8,0.2-1.6,0.1-2.4-0.1l-34.8-10.1
		c-1.9-0.5-2.9-2.6-2.5-4.8c0.4-2,2-3.4,3.8-3.4c0.2,0,0.3,0,0.5,0l35.8,5C153.6,97,155.5,99.2,155.8,101.9z"/>
	<polygon id="XMLID_406_" class="st6" points="129.5,93.6 158.3,97.5 137.9,89 	"/>
	<circle id="XMLID_120_" class="st0" cx="101.4" cy="72" r="8.4"/>
	<circle id="XMLID_111_" class="st4" cx="161" cy="106.4" r="2.7"/>
</g>
</svg>
