<?xml version="1.0" encoding="utf-8"?>
<!-- Generator: Adobe Illustrator 19.0.0, SVG Export Plug-In . SVG Version: 6.00 Build 0)  -->
<svg version="1.1" id="Layer_1" xmlns="http://www.w3.org/2000/svg" xmlns:xlink="http://www.w3.org/1999/xlink" x="0px" y="0px"
	 viewBox="0 0 284 239.2" style="enable-background:new 0 0 284 239.2;" xml:space="preserve">
<style type="text/css">
	.st0{fill:#511A56;}
	.st1{fill:#8A1B50;}
	.st2{fill:#C94427;}
	.st3{fill:#F7981D;}
	.st4{fill:#FFFFFF;}
	.st5{opacity:0.2;fill:#5B3860;}
	.st6{fill:#F6F7F7;}
	.st7{opacity:5.000000e-002;fill:#511A56;}
</style>
<g id="XMLID_624_">
	<path id="XMLID_448_" class="st0" d="M272.8,108.4c0,29.6-21.3,54.2-49.4,59.3c-1.8,0.3-3.5,0.6-5.3,0.7v0.3H61.7
		c-5.1,0-10-0.8-14.7-2.2c-19.9-6-34.7-24-35.8-45.7c-0.1-0.9-0.1-1.8-0.1-2.7c0-8.2,1.9-15.9,5.4-22.7c4.4-8.7,11.2-15.9,19.5-20.8
		c5.8-3.5,12.4-5.8,19.5-6.6C64,31.4,96.7,4.1,135.8,4.1c31.7,0,59.1,17.9,72.9,44.1c1.3-0.1,2.5-0.1,3.8-0.1
		c5.9,0,11.7,0.9,17.1,2.5c8.9,2.6,17,7.3,23.6,13.4C265.2,74.9,272.8,90.8,272.8,108.4z"/>
	<path id="XMLID_445_" class="st1" d="M255.3,86.4c0,31.4-12.1,60-31.9,81.3c-1.8,0.3-3.5,0.6-5.3,0.7v0.3H61.7
		c-5.1,0-10-0.8-14.7-2.2c-17.3-19.1-28.5-43.8-30.5-71.1C24,80.7,38.5,70.1,55.6,68C64,31.4,96.7,4.1,135.8,4.1
		c31.7,0,59.1,17.9,72.9,44.1c1.3-0.1,2.5-0.1,3.8-0.1c15.7,0,30,6,40.7,15.8C254.6,71.2,255.3,78.7,255.3,86.4z"/>
	<path id="XMLID_442_" class="st2" d="M236.2,86.4c0,34.1-17,64.1-42.9,82.3h-115c-25.9-18.1-42.9-48.2-42.9-82.3
		c0-4,0.2-7.9,0.7-11.8c5.8-3.5,12.4-5.8,19.5-6.6C64,31.4,96.7,4.1,135.8,4.1c31.7,0,59.1,17.9,72.9,44.1c1.3-0.1,2.5-0.1,3.8-0.1
		c5.9,0,11.7,0.9,17.1,2.5C233.8,61.7,236.2,73.8,236.2,86.4z"/>
	<path id="XMLID_439_" class="st3" d="M218.1,86.4c0,14.4-3.7,27.9-10.2,39.7c-2,3.7-4.4,7.2-6.9,10.6c-15,19.5-38.6,32.1-65.2,32.1
		c-45.4,0-82.3-36.8-82.3-82.3c0-45.5,36.8-82.3,82.3-82.3C181.2,4.1,218.1,40.9,218.1,86.4z"/>
	<circle id="XMLID_438_" class="st4" cx="226.7" cy="77.3" r="9"/>
	<circle id="XMLID_435_" class="st5" cx="134.1" cy="87.6" r="63.8"/>
	<circle id="XMLID_432_" class="st6" cx="135.8" cy="86.4" r="63.8"/>
	<path id="XMLID_426_" class="st7" d="M135.8,30.1v39.5c9.3,0,16.8,7.5,16.8,16.8h39.6C192.1,55.3,166.9,30.1,135.8,30.1z"/>
	<path id="XMLID_412_" class="st7" d="M135.8,142.7v-39.5c-9.3,0-16.8-7.5-16.8-16.8H79.5C79.5,117.5,104.7,142.7,135.8,142.7z"/>
	<path id="XMLID_408_" class="st3" d="M207.9,126.1c-2,3.7-4.4,7.2-6.9,10.6c-1.1,0.2-2.1,0.2-3.2-0.1l-46.1-13.3
		c-2.5-0.7-3.9-3.5-3.3-6.3c0.6-2.6,2.7-4.5,5-4.5c0.2,0,0.4,0,0.6,0l47.5,6.7C204.9,119.5,207.4,122.4,207.9,126.1z"/>
	<polygon id="XMLID_406_" class="st6" points="172.9,115 211.3,120.3 184.1,109 	"/>
	<circle id="XMLID_120_" class="st0" cx="135.8" cy="86.4" r="11.1"/>
	<circle id="XMLID_111_" class="st4" cx="214.8" cy="132.1" r="3.5"/>
</g>
<g id="XMLID_74_">
	<path id="XMLID_602_" class="st0" d="M19.3,234.7c-1.8,0-3.8-0.3-6.2-0.9c-2.4-0.6-4.3-1.5-5.8-2.6l2.8-6.3c3.5,1.6,6.5,2.3,9,2.3
		c1.4,0,2.7-0.3,3.9-0.8c1.2-0.5,1.8-1.3,1.8-2.2c0-1.8-2-3.4-6-4.6c-3.3-1.1-6-2.5-8.2-4.2c-2.2-1.7-3.3-3.9-3.3-6.5
		c0-3.3,1.2-5.8,3.6-7.7c2.4-1.9,5.7-2.8,9.8-2.8c1.6,0,3.6,0.3,5.9,1c2.3,0.7,4.3,1.5,5.9,2.6l-2.8,6.2c-1.8-0.8-3.4-1.4-4.8-1.8
		c-1.4-0.4-2.9-0.6-4.4-0.6c-1.2,0-2.2,0.3-2.9,0.9c-0.8,0.6-1.2,1.3-1.2,2.1c0,0.6,0.5,1.2,1.4,1.7c0.9,0.5,2.3,1.1,4,1.7
		c3.4,1.2,6.2,2.8,8.4,4.7c2.2,1.9,3.3,4.2,3.3,7c0,3.5-1.2,6.1-3.7,8C27.5,233.8,23.9,234.7,19.3,234.7z"/>
	<path id="XMLID_604_" class="st0" d="M51.3,199.5h6.3l2.8,7.1h-9.1v14.6c0,1.8,0.4,3.3,1.3,4.5c0.9,1.1,2.1,1.7,3.7,1.7
		c1.2,0,2.5-0.3,3.8-0.9l2.7,6.7c-0.7,0.6-1.8,1.1-3.2,1.5c-1.4,0.4-2.7,0.6-3.8,0.6c-4.3,0-7.7-1.1-10.1-3.3s-3.6-5.2-3.6-9.2
		v-16.3h-4.6v-7.1h4.6v-8.2l9.2-1.6V199.5z"/>
	<path id="XMLID_606_" class="st0" d="M84.1,234.7c-3.7,0-6.9-0.7-9.7-2.2c-2.8-1.5-4.9-3.6-6.4-6.3c-1.5-2.7-2.3-5.9-2.3-9.6
		s0.8-6.8,2.3-9.6c1.5-2.7,3.7-4.9,6.4-6.4c2.8-1.5,6-2.2,9.7-2.2s6.9,0.7,9.7,2.2c2.8,1.5,4.9,3.6,6.4,6.3c1.5,2.7,2.3,5.9,2.3,9.6
		c0,3.6-0.8,6.8-2.3,9.6c-1.5,2.7-3.7,4.9-6.4,6.4C91,234,87.8,234.7,84.1,234.7z M92.9,216.6c0-3-0.8-5.4-2.5-7.3s-3.8-2.8-6.4-2.8
		c-2.6,0-4.7,1-6.4,2.9c-1.7,1.9-2.5,4.4-2.5,7.4s0.8,5.4,2.5,7.3s3.8,2.8,6.4,2.8c2.6,0,4.7-1,6.4-2.9
		C92.1,222,92.9,219.5,92.9,216.6z"/>
	<path id="XMLID_609_" class="st0" d="M125.2,208.5c-2.3,1.1-4.4,2.6-6.4,4.3v21h-9.2v-34.5h4.8l3.1,5.8c1.7-1.5,3.6-2.8,5.8-4
		c2.2-1.2,4.2-1.8,5.9-1.8l1.8,7.4C129.5,206.8,127.5,207.4,125.2,208.5z"/>
	<path id="XMLID_611_" class="st0" d="M152.3,198.5c3.5,0,6.4,0.8,8.7,2.4c2.4,1.6,4.1,3.8,5.3,6.5c1.1,2.7,1.7,5.8,1.7,9.1v2.8
		h-23.2c0.5,2.4,1.5,4.3,3.1,5.5c1.6,1.3,4,1.9,7.3,1.9c1.9,0,3.6-0.3,5.1-0.8c1.5-0.5,3.1-1.3,4.9-2.3l2.7,6.7
		c-1.8,1.4-3.6,2.4-5.7,3.2c-2,0.7-4.5,1.1-7.2,1.1c-6.5,0-11.5-1.6-14.9-4.8c-3.4-3.2-5.1-7.6-5.1-13.2c0-3.6,0.7-6.8,2.1-9.6
		c1.4-2.7,3.4-4.9,6-6.4C145.6,199.3,148.7,198.5,152.3,198.5z M152,206.4c-1.9,0-3.5,0.6-4.8,1.7c-1.3,1.2-2.1,2.9-2.5,5.1h14.4
		c-0.5-2.3-1.3-4-2.5-5.1C155.5,207,153.9,206.4,152,206.4z"/>
	<path id="XMLID_614_" class="st0" d="M205.6,216.7c0,3.5-0.7,6.6-2,9.3c-1.3,2.7-3.1,4.9-5.5,6.5c-2.4,1.6-5.2,2.3-8.6,2.3
		c-3,0-6.1-1.3-9.3-3.8l-0.9,2.9h-2.9v-49.4l4.4-0.7v18c2.8-2.2,5.8-3.3,9-3.3c5,0,8.8,1.7,11.6,5
		C204.2,206.8,205.6,211.2,205.6,216.7z M201.1,216.8c0-4.5-0.9-8-2.8-10.6c-1.8-2.6-4.6-3.9-8.4-3.9c-1.9,0-3.6,0.4-5,1.1
		c-1.5,0.7-2.8,1.7-4,3v21.2c1.3,1.1,2.6,2,4,2.7s3,1,5,1c3.6,0,6.4-1.3,8.3-4C200.1,224.4,201.1,221,201.1,216.8z"/>
	<path id="XMLID_617_" class="st0" d="M219.7,188.6c0,0.9-0.3,1.7-1,2.4c-0.7,0.6-1.5,1-2.4,1c-1,0-1.8-0.3-2.4-1
		c-0.6-0.6-0.9-1.4-0.9-2.4s0.3-1.7,0.9-2.4c0.6-0.6,1.4-1,2.4-1c0.9,0,1.7,0.3,2.4,1C219.4,186.8,219.7,187.6,219.7,188.6z
		 M218.6,199.4v34.5h-4.5v-34.5H218.6z"/>
	<path id="XMLID_620_" class="st0" d="M236.9,200.1h6.3l1.5,3.3h-7.7v21.7c0,1.8,0.4,3.2,1.2,4.3c0.8,1,2,1.6,3.7,1.6
		c0.9,0,1.9-0.2,2.9-0.6l0.9,3.6c-0.1,0-0.6,0.2-1.4,0.5c-0.8,0.3-1.9,0.4-3.3,0.4c-2.6,0-4.6-0.8-6.1-2.4c-1.5-1.6-2.3-3.8-2.3-6.8
		v-22.2h-5l-0.1-3.3h5.1v-9l4.5-1.6V200.1z"/>
	<path id="XMLID_622_" class="st0" d="M263,234.8c-1.6,0-3.5-0.2-5.6-0.7c-2.2-0.5-3.8-1.1-5.1-2l1.4-3.3c3.3,1.6,6.5,2.4,9.4,2.4
		c2.9,0,5.2-0.5,6.9-1.5c1.7-1,2.5-2.4,2.5-4.3c0-2.7-3.1-5.2-9.4-7.4c-3.3-1.1-6-2.4-8.1-4c-2.1-1.6-3.1-3.6-3.1-6
		c0-3,1.1-5.3,3.4-7c2.3-1.7,5.4-2.5,9.2-2.5c1.6,0,3.4,0.3,5.5,0.8c2.1,0.5,3.7,1.2,4.8,2l-1.4,3.1c-1.6-0.8-3-1.3-4.3-1.8
		c-1.3-0.4-2.9-0.6-4.8-0.6c-2.4,0-4.4,0.5-6,1.6c-1.6,1.1-2.3,2.4-2.3,4.1c0,1.5,0.8,2.7,2.4,3.7c1.5,1,3.7,2,6.6,2.9
		c7.7,2.7,11.5,6.3,11.5,10.7c0,3-1.2,5.4-3.6,7.1C270.7,233.9,267.4,234.8,263,234.8z"/>
</g>
</svg>
